ISO-10303-21;
HEADER;
/* Generated by software containing ST-Developer
 * from STEP Tools, Inc. (www.steptools.com) 
 */

FILE_DESCRIPTION(
/* description */ (''),
/* implementation_level */ '2;1');

FILE_NAME(
/* name */ 'case.step',
/* time_stamp */ '2026-10-07T23:33:14+05:30',
/* author */ (''),
/* organization */ (''),
/* preprocessor_version */ 'ST-DEVELOPER v20.2',
/* originating_system */ 'Autodesk Translation Framework v15.15.0.0',
/* authorisation */ '');

FILE_SCHEMA (('AUTOMOTIVE_DESIGN { 1 0 10303 214 3 1 1 }'));
ENDSEC;

DATA;
#10=MECHANICAL_DESIGN_GEOMETRIC_PRESENTATION_REPRESENTATION('',(#13),#857);
#11=SHAPE_REPRESENTATION_RELATIONSHIP('SRR','None',#864,#12);
#12=ADVANCED_BREP_SHAPE_REPRESENTATION('',(#14),#856);
#13=STYLED_ITEM('',(#874),#14);
#14=MANIFOLD_SOLID_BREP('Body2',#537);
#15=FACE_BOUND('',#58,.T.);
#16=FACE_BOUND('',#63,.T.);
#17=FACE_BOUND('',#68,.T.);
#18=FACE_OUTER_BOUND('',#45,.T.);
#19=FACE_OUTER_BOUND('',#46,.T.);
#20=FACE_OUTER_BOUND('',#47,.T.);
#21=FACE_OUTER_BOUND('',#48,.T.);
#22=FACE_OUTER_BOUND('',#49,.T.);
#23=FACE_OUTER_BOUND('',#50,.T.);
#24=FACE_OUTER_BOUND('',#51,.T.);
#25=FACE_OUTER_BOUND('',#52,.T.);
#26=FACE_OUTER_BOUND('',#53,.T.);
#27=FACE_OUTER_BOUND('',#54,.T.);
#28=FACE_OUTER_BOUND('',#55,.T.);
#29=FACE_OUTER_BOUND('',#56,.T.);
#30=FACE_OUTER_BOUND('',#57,.T.);
#31=FACE_OUTER_BOUND('',#59,.T.);
#32=FACE_OUTER_BOUND('',#60,.T.);
#33=FACE_OUTER_BOUND('',#61,.T.);
#34=FACE_OUTER_BOUND('',#62,.T.);
#35=FACE_OUTER_BOUND('',#64,.T.);
#36=FACE_OUTER_BOUND('',#65,.T.);
#37=FACE_OUTER_BOUND('',#66,.T.);
#38=FACE_OUTER_BOUND('',#67,.T.);
#39=FACE_OUTER_BOUND('',#69,.T.);
#40=FACE_OUTER_BOUND('',#70,.T.);
#41=FACE_OUTER_BOUND('',#71,.T.);
#42=FACE_OUTER_BOUND('',#72,.T.);
#43=FACE_OUTER_BOUND('',#73,.T.);
#44=FACE_OUTER_BOUND('',#74,.T.);
#45=EDGE_LOOP('',(#339,#340,#341,#342));
#46=EDGE_LOOP('',(#343,#344,#345,#346));
#47=EDGE_LOOP('',(#347,#348,#349,#350));
#48=EDGE_LOOP('',(#351,#352,#353,#354));
#49=EDGE_LOOP('',(#355,#356,#357,#358));
#50=EDGE_LOOP('',(#359,#360,#361,#362));
#51=EDGE_LOOP('',(#363,#364,#365,#366));
#52=EDGE_LOOP('',(#367,#368,#369,#370));
#53=EDGE_LOOP('',(#371,#372,#373,#374));
#54=EDGE_LOOP('',(#375,#376,#377,#378));
#55=EDGE_LOOP('',(#379,#380,#381,#382,#383,#384,#385,#386));
#56=EDGE_LOOP('',(#387,#388,#389,#390));
#57=EDGE_LOOP('',(#391,#392,#393,#394,#395,#396,#397,#398,#399,#400,#401,
#402,#403,#404,#405,#406));
#58=EDGE_LOOP('',(#407,#408,#409,#410));
#59=EDGE_LOOP('',(#411,#412,#413,#414,#415,#416,#417,#418));
#60=EDGE_LOOP('',(#419,#420,#421,#422));
#61=EDGE_LOOP('',(#423,#424,#425,#426));
#62=EDGE_LOOP('',(#427,#428,#429,#430));
#63=EDGE_LOOP('',(#431,#432,#433,#434));
#64=EDGE_LOOP('',(#435,#436,#437,#438));
#65=EDGE_LOOP('',(#439,#440,#441,#442));
#66=EDGE_LOOP('',(#443,#444,#445,#446));
#67=EDGE_LOOP('',(#447,#448,#449,#450));
#68=EDGE_LOOP('',(#451,#452,#453,#454));
#69=EDGE_LOOP('',(#455,#456,#457,#458,#459,#460,#461,#462));
#70=EDGE_LOOP('',(#463,#464,#465,#466));
#71=EDGE_LOOP('',(#467,#468,#469,#470));
#72=EDGE_LOOP('',(#471,#472,#473,#474));
#73=EDGE_LOOP('',(#475,#476,#477,#478));
#74=EDGE_LOOP('',(#479,#480,#481,#482));
#75=LINE('',#710,#147);
#76=LINE('',#712,#148);
#77=LINE('',#714,#149);
#78=LINE('',#715,#150);
#79=LINE('',#718,#151);
#80=LINE('',#720,#152);
#81=LINE('',#721,#153);
#82=LINE('',#724,#154);
#83=LINE('',#726,#155);
#84=LINE('',#727,#156);
#85=LINE('',#729,#157);
#86=LINE('',#730,#158);
#87=LINE('',#734,#159);
#88=LINE('',#736,#160);
#89=LINE('',#738,#161);
#90=LINE('',#739,#162);
#91=LINE('',#742,#163);
#92=LINE('',#744,#164);
#93=LINE('',#745,#165);
#94=LINE('',#749,#166);
#95=LINE('',#751,#167);
#96=LINE('',#753,#168);
#97=LINE('',#754,#169);
#98=LINE('',#757,#170);
#99=LINE('',#759,#171);
#100=LINE('',#760,#172);
#101=LINE('',#763,#173);
#102=LINE('',#765,#174);
#103=LINE('',#766,#175);
#104=LINE('',#769,#176);
#105=LINE('',#771,#177);
#106=LINE('',#772,#178);
#107=LINE('',#774,#179);
#108=LINE('',#775,#180);
#109=LINE('',#777,#181);
#110=LINE('',#780,#182);
#111=LINE('',#782,#183);
#112=LINE('',#784,#184);
#113=LINE('',#786,#185);
#114=LINE('',#788,#186);
#115=LINE('',#790,#187);
#116=LINE('',#792,#188);
#117=LINE('',#794,#189);
#118=LINE('',#795,#190);
#119=LINE('',#799,#191);
#120=LINE('',#801,#192);
#121=LINE('',#803,#193);
#122=LINE('',#805,#194);
#123=LINE('',#807,#195);
#124=LINE('',#809,#196);
#125=LINE('',#811,#197);
#126=LINE('',#812,#198);
#127=LINE('',#814,#199);
#128=LINE('',#815,#200);
#129=LINE('',#817,#201);
#130=LINE('',#818,#202);
#131=LINE('',#822,#203);
#132=LINE('',#824,#204);
#133=LINE('',#826,#205);
#134=LINE('',#827,#206);
#135=LINE('',#830,#207);
#136=LINE('',#832,#208);
#137=LINE('',#833,#209);
#138=LINE('',#836,#210);
#139=LINE('',#838,#211);
#140=LINE('',#839,#212);
#141=LINE('',#841,#213);
#142=LINE('',#842,#214);
#143=LINE('',#845,#215);
#144=LINE('',#846,#216);
#145=LINE('',#848,#217);
#146=LINE('',#851,#218);
#147=VECTOR('',#582,10.);
#148=VECTOR('',#583,10.);
#149=VECTOR('',#584,10.);
#150=VECTOR('',#585,10.);
#151=VECTOR('',#588,10.);
#152=VECTOR('',#589,10.);
#153=VECTOR('',#590,10.);
#154=VECTOR('',#593,10.);
#155=VECTOR('',#594,10.);
#156=VECTOR('',#595,10.);
#157=VECTOR('',#598,10.);
#158=VECTOR('',#599,10.);
#159=VECTOR('',#602,10.);
#160=VECTOR('',#603,10.);
#161=VECTOR('',#604,10.);
#162=VECTOR('',#605,10.);
#163=VECTOR('',#608,10.);
#164=VECTOR('',#609,10.);
#165=VECTOR('',#610,10.);
#166=VECTOR('',#613,10.);
#167=VECTOR('',#614,10.);
#168=VECTOR('',#615,10.);
#169=VECTOR('',#616,10.);
#170=VECTOR('',#619,10.);
#171=VECTOR('',#620,10.);
#172=VECTOR('',#621,10.);
#173=VECTOR('',#624,10.);
#174=VECTOR('',#625,10.);
#175=VECTOR('',#626,10.);
#176=VECTOR('',#629,10.);
#177=VECTOR('',#630,10.);
#178=VECTOR('',#631,10.);
#179=VECTOR('',#634,10.);
#180=VECTOR('',#635,10.);
#181=VECTOR('',#638,10.);
#182=VECTOR('',#641,10.);
#183=VECTOR('',#642,10.);
#184=VECTOR('',#643,10.);
#185=VECTOR('',#644,10.);
#186=VECTOR('',#645,10.);
#187=VECTOR('',#646,10.);
#188=VECTOR('',#647,10.);
#189=VECTOR('',#648,10.);
#190=VECTOR('',#649,10.);
#191=VECTOR('',#652,10.);
#192=VECTOR('',#653,10.);
#193=VECTOR('',#654,10.);
#194=VECTOR('',#655,10.);
#195=VECTOR('',#656,10.);
#196=VECTOR('',#657,10.);
#197=VECTOR('',#658,10.);
#198=VECTOR('',#659,10.);
#199=VECTOR('',#662,10.);
#200=VECTOR('',#663,10.);
#201=VECTOR('',#666,10.);
#202=VECTOR('',#667,10.);
#203=VECTOR('',#670,10.);
#204=VECTOR('',#671,10.);
#205=VECTOR('',#672,10.);
#206=VECTOR('',#673,10.);
#207=VECTOR('',#676,10.);
#208=VECTOR('',#677,10.);
#209=VECTOR('',#678,10.);
#210=VECTOR('',#681,10.);
#211=VECTOR('',#682,10.);
#212=VECTOR('',#683,10.);
#213=VECTOR('',#686,10.);
#214=VECTOR('',#687,10.);
#215=VECTOR('',#692,10.);
#216=VECTOR('',#693,10.);
#217=VECTOR('',#696,10.);
#218=VECTOR('',#701,10.);
#219=VERTEX_POINT('',#708);
#220=VERTEX_POINT('',#709);
#221=VERTEX_POINT('',#711);
#222=VERTEX_POINT('',#713);
#223=VERTEX_POINT('',#717);
#224=VERTEX_POINT('',#719);
#225=VERTEX_POINT('',#723);
#226=VERTEX_POINT('',#725);
#227=VERTEX_POINT('',#732);
#228=VERTEX_POINT('',#733);
#229=VERTEX_POINT('',#735);
#230=VERTEX_POINT('',#737);
#231=VERTEX_POINT('',#741);
#232=VERTEX_POINT('',#743);
#233=VERTEX_POINT('',#747);
#234=VERTEX_POINT('',#748);
#235=VERTEX_POINT('',#750);
#236=VERTEX_POINT('',#752);
#237=VERTEX_POINT('',#756);
#238=VERTEX_POINT('',#758);
#239=VERTEX_POINT('',#762);
#240=VERTEX_POINT('',#764);
#241=VERTEX_POINT('',#768);
#242=VERTEX_POINT('',#770);
#243=VERTEX_POINT('',#779);
#244=VERTEX_POINT('',#781);
#245=VERTEX_POINT('',#783);
#246=VERTEX_POINT('',#785);
#247=VERTEX_POINT('',#787);
#248=VERTEX_POINT('',#789);
#249=VERTEX_POINT('',#791);
#250=VERTEX_POINT('',#793);
#251=VERTEX_POINT('',#797);
#252=VERTEX_POINT('',#798);
#253=VERTEX_POINT('',#800);
#254=VERTEX_POINT('',#802);
#255=VERTEX_POINT('',#804);
#256=VERTEX_POINT('',#806);
#257=VERTEX_POINT('',#808);
#258=VERTEX_POINT('',#810);
#259=VERTEX_POINT('',#820);
#260=VERTEX_POINT('',#821);
#261=VERTEX_POINT('',#823);
#262=VERTEX_POINT('',#825);
#263=VERTEX_POINT('',#829);
#264=VERTEX_POINT('',#831);
#265=VERTEX_POINT('',#835);
#266=VERTEX_POINT('',#837);
#267=EDGE_CURVE('',#219,#220,#75,.T.);
#268=EDGE_CURVE('',#221,#219,#76,.T.);
#269=EDGE_CURVE('',#222,#221,#77,.T.);
#270=EDGE_CURVE('',#222,#220,#78,.T.);
#271=EDGE_CURVE('',#220,#223,#79,.T.);
#272=EDGE_CURVE('',#224,#222,#80,.T.);
#273=EDGE_CURVE('',#224,#223,#81,.T.);
#274=EDGE_CURVE('',#223,#225,#82,.T.);
#275=EDGE_CURVE('',#226,#224,#83,.T.);
#276=EDGE_CURVE('',#226,#225,#84,.T.);
#277=EDGE_CURVE('',#225,#219,#85,.T.);
#278=EDGE_CURVE('',#221,#226,#86,.T.);
#279=EDGE_CURVE('',#227,#228,#87,.T.);
#280=EDGE_CURVE('',#227,#229,#88,.T.);
#281=EDGE_CURVE('',#230,#229,#89,.T.);
#282=EDGE_CURVE('',#228,#230,#90,.T.);
#283=EDGE_CURVE('',#228,#231,#91,.T.);
#284=EDGE_CURVE('',#232,#230,#92,.T.);
#285=EDGE_CURVE('',#231,#232,#93,.T.);
#286=EDGE_CURVE('',#233,#234,#94,.T.);
#287=EDGE_CURVE('',#235,#233,#95,.T.);
#288=EDGE_CURVE('',#236,#235,#96,.T.);
#289=EDGE_CURVE('',#234,#236,#97,.T.);
#290=EDGE_CURVE('',#234,#237,#98,.T.);
#291=EDGE_CURVE('',#238,#236,#99,.T.);
#292=EDGE_CURVE('',#237,#238,#100,.T.);
#293=EDGE_CURVE('',#237,#239,#101,.T.);
#294=EDGE_CURVE('',#240,#238,#102,.T.);
#295=EDGE_CURVE('',#239,#240,#103,.T.);
#296=EDGE_CURVE('',#241,#227,#104,.T.);
#297=EDGE_CURVE('',#242,#241,#105,.T.);
#298=EDGE_CURVE('',#229,#242,#106,.T.);
#299=EDGE_CURVE('',#240,#242,#107,.T.);
#300=EDGE_CURVE('',#232,#235,#108,.T.);
#301=EDGE_CURVE('',#239,#233,#109,.T.);
#302=EDGE_CURVE('',#243,#241,#110,.T.);
#303=EDGE_CURVE('',#243,#244,#111,.T.);
#304=EDGE_CURVE('',#245,#244,#112,.T.);
#305=EDGE_CURVE('',#245,#246,#113,.T.);
#306=EDGE_CURVE('',#247,#246,#114,.T.);
#307=EDGE_CURVE('',#248,#247,#115,.T.);
#308=EDGE_CURVE('',#249,#248,#116,.T.);
#309=EDGE_CURVE('',#250,#249,#117,.T.);
#310=EDGE_CURVE('',#231,#250,#118,.T.);
#311=EDGE_CURVE('',#251,#252,#119,.T.);
#312=EDGE_CURVE('',#253,#251,#120,.T.);
#313=EDGE_CURVE('',#254,#253,#121,.T.);
#314=EDGE_CURVE('',#254,#255,#122,.T.);
#315=EDGE_CURVE('',#256,#255,#123,.T.);
#316=EDGE_CURVE('',#256,#257,#124,.T.);
#317=EDGE_CURVE('',#258,#257,#125,.T.);
#318=EDGE_CURVE('',#252,#258,#126,.T.);
#319=EDGE_CURVE('',#248,#256,#127,.T.);
#320=EDGE_CURVE('',#257,#247,#128,.T.);
#321=EDGE_CURVE('',#252,#245,#129,.T.);
#322=EDGE_CURVE('',#246,#258,#130,.T.);
#323=EDGE_CURVE('',#259,#260,#131,.T.);
#324=EDGE_CURVE('',#260,#261,#132,.T.);
#325=EDGE_CURVE('',#262,#261,#133,.T.);
#326=EDGE_CURVE('',#259,#262,#134,.T.);
#327=EDGE_CURVE('',#263,#259,#135,.T.);
#328=EDGE_CURVE('',#264,#262,#136,.T.);
#329=EDGE_CURVE('',#263,#264,#137,.T.);
#330=EDGE_CURVE('',#265,#263,#138,.T.);
#331=EDGE_CURVE('',#266,#264,#139,.T.);
#332=EDGE_CURVE('',#265,#266,#140,.T.);
#333=EDGE_CURVE('',#260,#265,#141,.T.);
#334=EDGE_CURVE('',#261,#266,#142,.T.);
#335=EDGE_CURVE('',#254,#250,#143,.T.);
#336=EDGE_CURVE('',#243,#253,#144,.T.);
#337=EDGE_CURVE('',#255,#249,#145,.T.);
#338=EDGE_CURVE('',#244,#251,#146,.T.);
#339=ORIENTED_EDGE('',*,*,#267,.F.);
#340=ORIENTED_EDGE('',*,*,#268,.F.);
#341=ORIENTED_EDGE('',*,*,#269,.F.);
#342=ORIENTED_EDGE('',*,*,#270,.T.);
#343=ORIENTED_EDGE('',*,*,#271,.F.);
#344=ORIENTED_EDGE('',*,*,#270,.F.);
#345=ORIENTED_EDGE('',*,*,#272,.F.);
#346=ORIENTED_EDGE('',*,*,#273,.T.);
#347=ORIENTED_EDGE('',*,*,#274,.F.);
#348=ORIENTED_EDGE('',*,*,#273,.F.);
#349=ORIENTED_EDGE('',*,*,#275,.F.);
#350=ORIENTED_EDGE('',*,*,#276,.T.);
#351=ORIENTED_EDGE('',*,*,#277,.F.);
#352=ORIENTED_EDGE('',*,*,#276,.F.);
#353=ORIENTED_EDGE('',*,*,#278,.F.);
#354=ORIENTED_EDGE('',*,*,#268,.T.);
#355=ORIENTED_EDGE('',*,*,#279,.F.);
#356=ORIENTED_EDGE('',*,*,#280,.T.);
#357=ORIENTED_EDGE('',*,*,#281,.F.);
#358=ORIENTED_EDGE('',*,*,#282,.F.);
#359=ORIENTED_EDGE('',*,*,#283,.F.);
#360=ORIENTED_EDGE('',*,*,#282,.T.);
#361=ORIENTED_EDGE('',*,*,#284,.F.);
#362=ORIENTED_EDGE('',*,*,#285,.F.);
#363=ORIENTED_EDGE('',*,*,#286,.F.);
#364=ORIENTED_EDGE('',*,*,#287,.F.);
#365=ORIENTED_EDGE('',*,*,#288,.F.);
#366=ORIENTED_EDGE('',*,*,#289,.F.);
#367=ORIENTED_EDGE('',*,*,#290,.F.);
#368=ORIENTED_EDGE('',*,*,#289,.T.);
#369=ORIENTED_EDGE('',*,*,#291,.F.);
#370=ORIENTED_EDGE('',*,*,#292,.F.);
#371=ORIENTED_EDGE('',*,*,#293,.F.);
#372=ORIENTED_EDGE('',*,*,#292,.T.);
#373=ORIENTED_EDGE('',*,*,#294,.F.);
#374=ORIENTED_EDGE('',*,*,#295,.F.);
#375=ORIENTED_EDGE('',*,*,#296,.F.);
#376=ORIENTED_EDGE('',*,*,#297,.F.);
#377=ORIENTED_EDGE('',*,*,#298,.F.);
#378=ORIENTED_EDGE('',*,*,#280,.F.);
#379=ORIENTED_EDGE('',*,*,#298,.T.);
#380=ORIENTED_EDGE('',*,*,#299,.F.);
#381=ORIENTED_EDGE('',*,*,#294,.T.);
#382=ORIENTED_EDGE('',*,*,#291,.T.);
#383=ORIENTED_EDGE('',*,*,#288,.T.);
#384=ORIENTED_EDGE('',*,*,#300,.F.);
#385=ORIENTED_EDGE('',*,*,#284,.T.);
#386=ORIENTED_EDGE('',*,*,#281,.T.);
#387=ORIENTED_EDGE('',*,*,#286,.T.);
#388=ORIENTED_EDGE('',*,*,#290,.T.);
#389=ORIENTED_EDGE('',*,*,#293,.T.);
#390=ORIENTED_EDGE('',*,*,#301,.T.);
#391=ORIENTED_EDGE('',*,*,#285,.T.);
#392=ORIENTED_EDGE('',*,*,#300,.T.);
#393=ORIENTED_EDGE('',*,*,#287,.T.);
#394=ORIENTED_EDGE('',*,*,#301,.F.);
#395=ORIENTED_EDGE('',*,*,#295,.T.);
#396=ORIENTED_EDGE('',*,*,#299,.T.);
#397=ORIENTED_EDGE('',*,*,#297,.T.);
#398=ORIENTED_EDGE('',*,*,#302,.F.);
#399=ORIENTED_EDGE('',*,*,#303,.T.);
#400=ORIENTED_EDGE('',*,*,#304,.F.);
#401=ORIENTED_EDGE('',*,*,#305,.T.);
#402=ORIENTED_EDGE('',*,*,#306,.F.);
#403=ORIENTED_EDGE('',*,*,#307,.F.);
#404=ORIENTED_EDGE('',*,*,#308,.F.);
#405=ORIENTED_EDGE('',*,*,#309,.F.);
#406=ORIENTED_EDGE('',*,*,#310,.F.);
#407=ORIENTED_EDGE('',*,*,#267,.T.);
#408=ORIENTED_EDGE('',*,*,#271,.T.);
#409=ORIENTED_EDGE('',*,*,#274,.T.);
#410=ORIENTED_EDGE('',*,*,#277,.T.);
#411=ORIENTED_EDGE('',*,*,#311,.F.);
#412=ORIENTED_EDGE('',*,*,#312,.F.);
#413=ORIENTED_EDGE('',*,*,#313,.F.);
#414=ORIENTED_EDGE('',*,*,#314,.T.);
#415=ORIENTED_EDGE('',*,*,#315,.F.);
#416=ORIENTED_EDGE('',*,*,#316,.T.);
#417=ORIENTED_EDGE('',*,*,#317,.F.);
#418=ORIENTED_EDGE('',*,*,#318,.F.);
#419=ORIENTED_EDGE('',*,*,#319,.F.);
#420=ORIENTED_EDGE('',*,*,#307,.T.);
#421=ORIENTED_EDGE('',*,*,#320,.F.);
#422=ORIENTED_EDGE('',*,*,#316,.F.);
#423=ORIENTED_EDGE('',*,*,#321,.F.);
#424=ORIENTED_EDGE('',*,*,#318,.T.);
#425=ORIENTED_EDGE('',*,*,#322,.F.);
#426=ORIENTED_EDGE('',*,*,#305,.F.);
#427=ORIENTED_EDGE('',*,*,#323,.T.);
#428=ORIENTED_EDGE('',*,*,#324,.T.);
#429=ORIENTED_EDGE('',*,*,#325,.F.);
#430=ORIENTED_EDGE('',*,*,#326,.F.);
#431=ORIENTED_EDGE('',*,*,#269,.T.);
#432=ORIENTED_EDGE('',*,*,#278,.T.);
#433=ORIENTED_EDGE('',*,*,#275,.T.);
#434=ORIENTED_EDGE('',*,*,#272,.T.);
#435=ORIENTED_EDGE('',*,*,#327,.T.);
#436=ORIENTED_EDGE('',*,*,#326,.T.);
#437=ORIENTED_EDGE('',*,*,#328,.F.);
#438=ORIENTED_EDGE('',*,*,#329,.F.);
#439=ORIENTED_EDGE('',*,*,#330,.T.);
#440=ORIENTED_EDGE('',*,*,#329,.T.);
#441=ORIENTED_EDGE('',*,*,#331,.F.);
#442=ORIENTED_EDGE('',*,*,#332,.F.);
#443=ORIENTED_EDGE('',*,*,#333,.T.);
#444=ORIENTED_EDGE('',*,*,#332,.T.);
#445=ORIENTED_EDGE('',*,*,#334,.F.);
#446=ORIENTED_EDGE('',*,*,#324,.F.);
#447=ORIENTED_EDGE('',*,*,#334,.T.);
#448=ORIENTED_EDGE('',*,*,#331,.T.);
#449=ORIENTED_EDGE('',*,*,#328,.T.);
#450=ORIENTED_EDGE('',*,*,#325,.T.);
#451=ORIENTED_EDGE('',*,*,#320,.T.);
#452=ORIENTED_EDGE('',*,*,#306,.T.);
#453=ORIENTED_EDGE('',*,*,#322,.T.);
#454=ORIENTED_EDGE('',*,*,#317,.T.);
#455=ORIENTED_EDGE('',*,*,#283,.T.);
#456=ORIENTED_EDGE('',*,*,#310,.T.);
#457=ORIENTED_EDGE('',*,*,#335,.F.);
#458=ORIENTED_EDGE('',*,*,#313,.T.);
#459=ORIENTED_EDGE('',*,*,#336,.F.);
#460=ORIENTED_EDGE('',*,*,#302,.T.);
#461=ORIENTED_EDGE('',*,*,#296,.T.);
#462=ORIENTED_EDGE('',*,*,#279,.T.);
#463=ORIENTED_EDGE('',*,*,#335,.T.);
#464=ORIENTED_EDGE('',*,*,#309,.T.);
#465=ORIENTED_EDGE('',*,*,#337,.F.);
#466=ORIENTED_EDGE('',*,*,#314,.F.);
#467=ORIENTED_EDGE('',*,*,#319,.T.);
#468=ORIENTED_EDGE('',*,*,#315,.T.);
#469=ORIENTED_EDGE('',*,*,#337,.T.);
#470=ORIENTED_EDGE('',*,*,#308,.T.);
#471=ORIENTED_EDGE('',*,*,#336,.T.);
#472=ORIENTED_EDGE('',*,*,#312,.T.);
#473=ORIENTED_EDGE('',*,*,#338,.F.);
#474=ORIENTED_EDGE('',*,*,#303,.F.);
#475=ORIENTED_EDGE('',*,*,#338,.T.);
#476=ORIENTED_EDGE('',*,*,#311,.T.);
#477=ORIENTED_EDGE('',*,*,#321,.T.);
#478=ORIENTED_EDGE('',*,*,#304,.T.);
#479=ORIENTED_EDGE('',*,*,#333,.F.);
#480=ORIENTED_EDGE('',*,*,#323,.F.);
#481=ORIENTED_EDGE('',*,*,#327,.F.);
#482=ORIENTED_EDGE('',*,*,#330,.F.);
#483=PLANE('',#551);
#484=PLANE('',#552);
#485=PLANE('',#553);
#486=PLANE('',#554);
#487=PLANE('',#555);
#488=PLANE('',#556);
#489=PLANE('',#557);
#490=PLANE('',#558);
#491=PLANE('',#559);
#492=PLANE('',#560);
#493=PLANE('',#561);
#494=PLANE('',#562);
#495=PLANE('',#563);
#496=PLANE('',#564);
#497=PLANE('',#565);
#498=PLANE('',#566);
#499=PLANE('',#567);
#500=PLANE('',#568);
#501=PLANE('',#569);
#502=PLANE('',#570);
#503=PLANE('',#571);
#504=PLANE('',#572);
#505=PLANE('',#573);
#506=PLANE('',#574);
#507=PLANE('',#575);
#508=PLANE('',#576);
#509=PLANE('',#577);
#510=ADVANCED_FACE('',(#18),#483,.F.);
#511=ADVANCED_FACE('',(#19),#484,.F.);
#512=ADVANCED_FACE('',(#20),#485,.F.);
#513=ADVANCED_FACE('',(#21),#486,.F.);
#514=ADVANCED_FACE('',(#22),#487,.T.);
#515=ADVANCED_FACE('',(#23),#488,.T.);
#516=ADVANCED_FACE('',(#24),#489,.T.);
#517=ADVANCED_FACE('',(#25),#490,.T.);
#518=ADVANCED_FACE('',(#26),#491,.T.);
#519=ADVANCED_FACE('',(#27),#492,.T.);
#520=ADVANCED_FACE('',(#28),#493,.T.);
#521=ADVANCED_FACE('',(#29),#494,.T.);
#522=ADVANCED_FACE('',(#30,#15),#495,.T.);
#523=ADVANCED_FACE('',(#31),#496,.T.);
#524=ADVANCED_FACE('',(#32),#497,.T.);
#525=ADVANCED_FACE('',(#33),#498,.T.);
#526=ADVANCED_FACE('',(#34,#16),#499,.T.);
#527=ADVANCED_FACE('',(#35),#500,.T.);
#528=ADVANCED_FACE('',(#36),#501,.T.);
#529=ADVANCED_FACE('',(#37),#502,.T.);
#530=ADVANCED_FACE('',(#38,#17),#503,.T.);
#531=ADVANCED_FACE('',(#39),#504,.T.);
#532=ADVANCED_FACE('',(#40),#505,.T.);
#533=ADVANCED_FACE('',(#41),#506,.T.);
#534=ADVANCED_FACE('',(#42),#507,.T.);
#535=ADVANCED_FACE('',(#43),#508,.T.);
#536=ADVANCED_FACE('',(#44),#509,.F.);
#537=CLOSED_SHELL('',(#510,#511,#512,#513,#514,#515,#516,#517,#518,#519,
#520,#521,#522,#523,#524,#525,#526,#527,#528,#529,#530,#531,#532,#533,#534,
#535,#536));
#538=DERIVED_UNIT_ELEMENT(#540,1.);
#539=DERIVED_UNIT_ELEMENT(#859,-3.);
#540=(
MASS_UNIT()
NAMED_UNIT(*)
SI_UNIT(.KILO.,.GRAM.)
);
#541=DERIVED_UNIT((#538,#539));
#542=MEASURE_REPRESENTATION_ITEM('density measure',
POSITIVE_RATIO_MEASURE(7850.),#541);
#543=PROPERTY_DEFINITION_REPRESENTATION(#548,#545);
#544=PROPERTY_DEFINITION_REPRESENTATION(#549,#546);
#545=REPRESENTATION('material name',(#547),#856);
#546=REPRESENTATION('density',(#542),#856);
#547=DESCRIPTIVE_REPRESENTATION_ITEM('Steel','Steel');
#548=PROPERTY_DEFINITION('material property','material name',#866);
#549=PROPERTY_DEFINITION('material property','density of part',#866);
#550=AXIS2_PLACEMENT_3D('',#706,#578,#579);
#551=AXIS2_PLACEMENT_3D('',#707,#580,#581);
#552=AXIS2_PLACEMENT_3D('',#716,#586,#587);
#553=AXIS2_PLACEMENT_3D('',#722,#591,#592);
#554=AXIS2_PLACEMENT_3D('',#728,#596,#597);
#555=AXIS2_PLACEMENT_3D('',#731,#600,#601);
#556=AXIS2_PLACEMENT_3D('',#740,#606,#607);
#557=AXIS2_PLACEMENT_3D('',#746,#611,#612);
#558=AXIS2_PLACEMENT_3D('',#755,#617,#618);
#559=AXIS2_PLACEMENT_3D('',#761,#622,#623);
#560=AXIS2_PLACEMENT_3D('',#767,#627,#628);
#561=AXIS2_PLACEMENT_3D('',#773,#632,#633);
#562=AXIS2_PLACEMENT_3D('',#776,#636,#637);
#563=AXIS2_PLACEMENT_3D('',#778,#639,#640);
#564=AXIS2_PLACEMENT_3D('',#796,#650,#651);
#565=AXIS2_PLACEMENT_3D('',#813,#660,#661);
#566=AXIS2_PLACEMENT_3D('',#816,#664,#665);
#567=AXIS2_PLACEMENT_3D('',#819,#668,#669);
#568=AXIS2_PLACEMENT_3D('',#828,#674,#675);
#569=AXIS2_PLACEMENT_3D('',#834,#679,#680);
#570=AXIS2_PLACEMENT_3D('',#840,#684,#685);
#571=AXIS2_PLACEMENT_3D('',#843,#688,#689);
#572=AXIS2_PLACEMENT_3D('',#844,#690,#691);
#573=AXIS2_PLACEMENT_3D('',#847,#694,#695);
#574=AXIS2_PLACEMENT_3D('',#849,#697,#698);
#575=AXIS2_PLACEMENT_3D('',#850,#699,#700);
#576=AXIS2_PLACEMENT_3D('',#852,#702,#703);
#577=AXIS2_PLACEMENT_3D('',#853,#704,#705);
#578=DIRECTION('axis',(0.,0.,1.));
#579=DIRECTION('refdir',(1.,0.,0.));
#580=DIRECTION('center_axis',(1.,0.,0.));
#581=DIRECTION('ref_axis',(0.,1.,0.));
#582=DIRECTION('',(0.,-1.,0.));
#583=DIRECTION('',(0.,0.,1.));
#584=DIRECTION('',(0.,1.,0.));
#585=DIRECTION('',(0.,0.,1.));
#586=DIRECTION('center_axis',(0.,-1.,0.));
#587=DIRECTION('ref_axis',(1.,0.,0.));
#588=DIRECTION('',(-1.,0.,0.));
#589=DIRECTION('',(1.,0.,0.));
#590=DIRECTION('',(0.,0.,1.));
#591=DIRECTION('center_axis',(-1.,0.,0.));
#592=DIRECTION('ref_axis',(0.,-1.,0.));
#593=DIRECTION('',(0.,1.,0.));
#594=DIRECTION('',(0.,-1.,0.));
#595=DIRECTION('',(0.,0.,1.));
#596=DIRECTION('center_axis',(0.,1.,0.));
#597=DIRECTION('ref_axis',(-1.,0.,0.));
#598=DIRECTION('',(1.,0.,0.));
#599=DIRECTION('',(-1.,0.,0.));
#600=DIRECTION('center_axis',(0.,0.,1.));
#601=DIRECTION('ref_axis',(1.,0.,0.));
#602=DIRECTION('',(-1.,0.,0.));
#603=DIRECTION('',(0.,1.,0.));
#604=DIRECTION('',(1.,0.,0.));
#605=DIRECTION('',(0.,1.,0.));
#606=DIRECTION('center_axis',(-1.,0.,0.));
#607=DIRECTION('ref_axis',(0.,0.,1.));
#608=DIRECTION('',(0.,0.,-1.));
#609=DIRECTION('',(0.,0.,1.));
#610=DIRECTION('',(0.,1.,0.));
#611=DIRECTION('center_axis',(1.,0.,0.));
#612=DIRECTION('ref_axis',(0.,0.,-1.));
#613=DIRECTION('',(0.,0.,1.));
#614=DIRECTION('',(0.,-1.,0.));
#615=DIRECTION('',(0.,0.,-1.));
#616=DIRECTION('',(0.,1.,0.));
#617=DIRECTION('center_axis',(0.,0.,-1.));
#618=DIRECTION('ref_axis',(-1.,0.,0.));
#619=DIRECTION('',(1.,0.,0.));
#620=DIRECTION('',(-1.,0.,0.));
#621=DIRECTION('',(0.,1.,0.));
#622=DIRECTION('center_axis',(-1.,0.,0.));
#623=DIRECTION('ref_axis',(0.,0.,1.));
#624=DIRECTION('',(0.,0.,-1.));
#625=DIRECTION('',(0.,0.,1.));
#626=DIRECTION('',(0.,1.,0.));
#627=DIRECTION('center_axis',(1.,0.,0.));
#628=DIRECTION('ref_axis',(0.,0.,-1.));
#629=DIRECTION('',(0.,0.,1.));
#630=DIRECTION('',(0.,-1.,0.));
#631=DIRECTION('',(0.,0.,-1.));
#632=DIRECTION('center_axis',(0.,1.,0.));
#633=DIRECTION('ref_axis',(0.,0.,1.));
#634=DIRECTION('',(1.,0.,0.));
#635=DIRECTION('',(1.,0.,0.));
#636=DIRECTION('center_axis',(0.,1.,0.));
#637=DIRECTION('ref_axis',(0.,0.,1.));
#638=DIRECTION('',(-1.,0.,0.));
#639=DIRECTION('center_axis',(0.,0.,1.));
#640=DIRECTION('ref_axis',(1.,0.,0.));
#641=DIRECTION('',(-1.,0.,0.));
#642=DIRECTION('',(0.,1.,0.));
#643=DIRECTION('',(-1.,0.,0.));
#644=DIRECTION('',(0.,1.,0.));
#645=DIRECTION('',(1.,0.,0.));
#646=DIRECTION('',(0.,1.,0.));
#647=DIRECTION('',(-1.,0.,0.));
#648=DIRECTION('',(0.,1.,0.));
#649=DIRECTION('',(-1.,0.,0.));
#650=DIRECTION('center_axis',(0.,0.,-1.));
#651=DIRECTION('ref_axis',(-1.,0.,0.));
#652=DIRECTION('',(1.,0.,0.));
#653=DIRECTION('',(0.,1.,0.));
#654=DIRECTION('',(1.,0.,0.));
#655=DIRECTION('',(0.,1.,0.));
#656=DIRECTION('',(1.,0.,0.));
#657=DIRECTION('',(0.,1.,0.));
#658=DIRECTION('',(-1.,0.,0.));
#659=DIRECTION('',(0.,1.,0.));
#660=DIRECTION('center_axis',(1.,0.,-1.12974796969321E-19));
#661=DIRECTION('ref_axis',(-1.12974796969321E-19,0.,-1.));
#662=DIRECTION('',(1.12974796969321E-19,0.,1.));
#663=DIRECTION('',(-1.12974796969321E-19,0.,-1.));
#664=DIRECTION('center_axis',(-1.,0.,0.));
#665=DIRECTION('ref_axis',(0.,0.,1.));
#666=DIRECTION('',(0.,0.,-1.));
#667=DIRECTION('',(0.,0.,1.));
#668=DIRECTION('center_axis',(0.,0.,-1.));
#669=DIRECTION('ref_axis',(-1.,0.,0.));
#670=DIRECTION('',(-1.,0.,0.));
#671=DIRECTION('',(0.,1.,0.));
#672=DIRECTION('',(-1.,0.,0.));
#673=DIRECTION('',(0.,1.,0.));
#674=DIRECTION('center_axis',(1.,0.,0.));
#675=DIRECTION('ref_axis',(0.,0.,-1.));
#676=DIRECTION('',(0.,0.,-1.));
#677=DIRECTION('',(0.,0.,-1.));
#678=DIRECTION('',(0.,1.,0.));
#679=DIRECTION('center_axis',(0.,0.,1.));
#680=DIRECTION('ref_axis',(1.,0.,0.));
#681=DIRECTION('',(1.,0.,0.));
#682=DIRECTION('',(1.,0.,0.));
#683=DIRECTION('',(0.,1.,0.));
#684=DIRECTION('center_axis',(-1.,0.,1.43069977400149E-17));
#685=DIRECTION('ref_axis',(1.43069977400149E-17,0.,1.));
#686=DIRECTION('',(1.43069977400149E-17,0.,1.));
#687=DIRECTION('',(1.43069977400149E-17,0.,1.));
#688=DIRECTION('center_axis',(0.,1.,0.));
#689=DIRECTION('ref_axis',(0.,0.,1.));
#690=DIRECTION('center_axis',(0.,1.,0.));
#691=DIRECTION('ref_axis',(0.,0.,1.));
#692=DIRECTION('',(0.,0.,-1.));
#693=DIRECTION('',(0.,0.,1.));
#694=DIRECTION('center_axis',(1.,0.,0.));
#695=DIRECTION('ref_axis',(0.,0.,-1.));
#696=DIRECTION('',(0.,0.,-1.));
#697=DIRECTION('center_axis',(0.,1.,0.));
#698=DIRECTION('ref_axis',(0.,0.,1.));
#699=DIRECTION('center_axis',(-1.,0.,0.));
#700=DIRECTION('ref_axis',(0.,0.,1.));
#701=DIRECTION('',(0.,0.,1.));
#702=DIRECTION('center_axis',(0.,1.,0.));
#703=DIRECTION('ref_axis',(0.,0.,1.));
#704=DIRECTION('center_axis',(0.,1.,0.));
#705=DIRECTION('ref_axis',(1.,0.,0.));
#706=CARTESIAN_POINT('',(0.,0.,0.));
#707=CARTESIAN_POINT('Origin',(31.55,3.,-56.2));
#708=CARTESIAN_POINT('',(31.55,6.2,-54.2));
#709=CARTESIAN_POINT('',(31.55,3.,-54.2));
#710=CARTESIAN_POINT('',(31.55,1.5,-54.2));
#711=CARTESIAN_POINT('',(31.55,6.2,-56.2));
#712=CARTESIAN_POINT('',(31.55,6.2,-56.2));
#713=CARTESIAN_POINT('',(31.55,3.,-56.2));
#714=CARTESIAN_POINT('',(31.55,1.5,-56.2));
#715=CARTESIAN_POINT('',(31.55,3.,-56.2));
#716=CARTESIAN_POINT('Origin',(22.55,3.,-56.2));
#717=CARTESIAN_POINT('',(22.55,3.,-54.2));
#718=CARTESIAN_POINT('',(11.275,3.,-54.2));
#719=CARTESIAN_POINT('',(22.55,3.,-56.2));
#720=CARTESIAN_POINT('',(39.375,3.,-56.2));
#721=CARTESIAN_POINT('',(22.55,3.,-56.2));
#722=CARTESIAN_POINT('Origin',(22.55,6.2,-56.2));
#723=CARTESIAN_POINT('',(22.55,6.2,-54.2));
#724=CARTESIAN_POINT('',(22.55,3.1,-54.2));
#725=CARTESIAN_POINT('',(22.55,6.2,-56.2));
#726=CARTESIAN_POINT('',(22.55,3.1,-56.2));
#727=CARTESIAN_POINT('',(22.55,6.2,-56.2));
#728=CARTESIAN_POINT('Origin',(31.55,6.2,-56.2));
#729=CARTESIAN_POINT('',(15.775,6.2,-54.2));
#730=CARTESIAN_POINT('',(43.875,6.2,-56.2));
#731=CARTESIAN_POINT('Origin',(17.05,1.,-29.2));
#732=CARTESIAN_POINT('',(37.05,1.,-29.2));
#733=CARTESIAN_POINT('',(17.05,1.,-29.2));
#734=CARTESIAN_POINT('',(22.075,1.,-29.2));
#735=CARTESIAN_POINT('',(37.05,2.5,-29.2));
#736=CARTESIAN_POINT('',(37.05,1.,-29.2));
#737=CARTESIAN_POINT('',(17.05,2.5,-29.2));
#738=CARTESIAN_POINT('',(17.05,2.5,-29.2));
#739=CARTESIAN_POINT('',(17.05,1.,-29.2));
#740=CARTESIAN_POINT('Origin',(17.05,1.,-54.2));
#741=CARTESIAN_POINT('',(17.05,1.,-54.2));
#742=CARTESIAN_POINT('',(17.05,1.,-40.65));
#743=CARTESIAN_POINT('',(17.05,2.5,-54.2));
#744=CARTESIAN_POINT('',(17.05,2.5,-54.2));
#745=CARTESIAN_POINT('',(17.05,0.5,-54.2));
#746=CARTESIAN_POINT('Origin',(18.05,1.,-30.2));
#747=CARTESIAN_POINT('',(18.05,1.,-54.2));
#748=CARTESIAN_POINT('',(18.05,1.,-30.2));
#749=CARTESIAN_POINT('',(18.05,1.,-28.65));
#750=CARTESIAN_POINT('',(18.05,2.5,-54.2));
#751=CARTESIAN_POINT('',(18.05,0.5,-54.2));
#752=CARTESIAN_POINT('',(18.05,2.5,-30.2));
#753=CARTESIAN_POINT('',(18.05,2.5,-30.2));
#754=CARTESIAN_POINT('',(18.05,1.,-30.2));
#755=CARTESIAN_POINT('Origin',(36.05,1.,-30.2));
#756=CARTESIAN_POINT('',(36.05,1.,-30.2));
#757=CARTESIAN_POINT('',(31.575,1.,-30.2));
#758=CARTESIAN_POINT('',(36.05,2.5,-30.2));
#759=CARTESIAN_POINT('',(36.05,2.5,-30.2));
#760=CARTESIAN_POINT('',(36.05,1.,-30.2));
#761=CARTESIAN_POINT('Origin',(36.05,1.,-54.2));
#762=CARTESIAN_POINT('',(36.05,1.,-54.2));
#763=CARTESIAN_POINT('',(36.05,1.,-40.65));
#764=CARTESIAN_POINT('',(36.05,2.5,-54.2));
#765=CARTESIAN_POINT('',(36.05,2.5,-54.2));
#766=CARTESIAN_POINT('',(36.05,0.5,-54.2));
#767=CARTESIAN_POINT('Origin',(37.05,1.,-29.2));
#768=CARTESIAN_POINT('',(37.05,1.,-54.2));
#769=CARTESIAN_POINT('',(37.05,1.,-28.15));
#770=CARTESIAN_POINT('',(37.05,2.5,-54.2));
#771=CARTESIAN_POINT('',(37.05,0.5,-54.2));
#772=CARTESIAN_POINT('',(37.05,2.5,-29.2));
#773=CARTESIAN_POINT('Origin',(27.05,2.5,-41.7));
#774=CARTESIAN_POINT('',(13.525,2.5,-54.2));
#775=CARTESIAN_POINT('',(13.525,2.5,-54.2));
#776=CARTESIAN_POINT('Origin',(27.1,1.,-27.1));
#777=CARTESIAN_POINT('',(54.2,1.,-54.2));
#778=CARTESIAN_POINT('Origin',(0.,0.,-54.2));
#779=CARTESIAN_POINT('',(52.7,1.,-54.2));
#780=CARTESIAN_POINT('',(54.2,1.,-54.2));
#781=CARTESIAN_POINT('',(52.7,13.6,-54.2));
#782=CARTESIAN_POINT('',(52.7,0.,-54.2));
#783=CARTESIAN_POINT('',(54.2,13.6,-54.2));
#784=CARTESIAN_POINT('',(54.2,13.6,-54.2));
#785=CARTESIAN_POINT('',(54.2,20.,-54.2));
#786=CARTESIAN_POINT('',(54.2,0.,-54.2));
#787=CARTESIAN_POINT('',(-6.12323399573718E-18,20.,-54.2));
#788=CARTESIAN_POINT('',(54.2,20.,-54.2));
#789=CARTESIAN_POINT('',(-6.12323399573718E-18,13.6,-54.2));
#790=CARTESIAN_POINT('',(-6.12323399573718E-18,0.,-54.2));
#791=CARTESIAN_POINT('',(1.5,13.6,-54.2));
#792=CARTESIAN_POINT('',(54.2,13.6,-54.2));
#793=CARTESIAN_POINT('',(1.5,1.,-54.2));
#794=CARTESIAN_POINT('',(1.5,0.,-54.2));
#795=CARTESIAN_POINT('',(54.2,1.,-54.2));
#796=CARTESIAN_POINT('Origin',(54.2,0.,0.));
#797=CARTESIAN_POINT('',(52.7,13.6,0.));
#798=CARTESIAN_POINT('',(54.2,13.6,0.));
#799=CARTESIAN_POINT('',(0.,13.6,0.));
#800=CARTESIAN_POINT('',(52.7,1.,0.));
#801=CARTESIAN_POINT('',(52.7,0.,0.));
#802=CARTESIAN_POINT('',(1.5,1.,0.));
#803=CARTESIAN_POINT('',(0.,1.,0.));
#804=CARTESIAN_POINT('',(1.5,13.6,0.));
#805=CARTESIAN_POINT('',(1.5,0.,0.));
#806=CARTESIAN_POINT('',(0.,13.6,0.));
#807=CARTESIAN_POINT('',(0.,13.6,0.));
#808=CARTESIAN_POINT('',(0.,20.,0.));
#809=CARTESIAN_POINT('',(0.,0.,0.));
#810=CARTESIAN_POINT('',(54.2,20.,0.));
#811=CARTESIAN_POINT('',(0.,20.,0.));
#812=CARTESIAN_POINT('',(54.2,0.,0.));
#813=CARTESIAN_POINT('Origin',(0.,0.,0.));
#814=CARTESIAN_POINT('',(-6.12323399573718E-18,13.6,-54.2));
#815=CARTESIAN_POINT('',(-6.12323399573718E-18,20.,-54.2));
#816=CARTESIAN_POINT('Origin',(54.2,0.,-54.2));
#817=CARTESIAN_POINT('',(54.2,13.6,0.));
#818=CARTESIAN_POINT('',(54.2,20.,0.));
#819=CARTESIAN_POINT('Origin',(56.2,0.,-56.2));
#820=CARTESIAN_POINT('',(56.2,0.,-56.2));
#821=CARTESIAN_POINT('',(-2.,0.,-56.2));
#822=CARTESIAN_POINT('',(56.2,0.,-56.2));
#823=CARTESIAN_POINT('',(-2.,20.,-56.2));
#824=CARTESIAN_POINT('',(-2.,0.,-56.2));
#825=CARTESIAN_POINT('',(56.2,20.,-56.2));
#826=CARTESIAN_POINT('',(56.2,20.,-56.2));
#827=CARTESIAN_POINT('',(56.2,0.,-56.2));
#828=CARTESIAN_POINT('Origin',(56.2,0.,2.));
#829=CARTESIAN_POINT('',(56.2,0.,2.));
#830=CARTESIAN_POINT('',(56.2,0.,2.));
#831=CARTESIAN_POINT('',(56.2,20.,2.));
#832=CARTESIAN_POINT('',(56.2,20.,2.));
#833=CARTESIAN_POINT('',(56.2,0.,2.));
#834=CARTESIAN_POINT('Origin',(-2.,0.,2.));
#835=CARTESIAN_POINT('',(-2.,0.,2.));
#836=CARTESIAN_POINT('',(-2.,0.,2.));
#837=CARTESIAN_POINT('',(-2.,20.,2.));
#838=CARTESIAN_POINT('',(-2.,20.,2.));
#839=CARTESIAN_POINT('',(-2.,0.,2.));
#840=CARTESIAN_POINT('Origin',(-2.,0.,-56.2));
#841=CARTESIAN_POINT('',(-2.,0.,-56.2));
#842=CARTESIAN_POINT('',(-2.,20.,-56.2));
#843=CARTESIAN_POINT('Origin',(27.1,20.,-27.1));
#844=CARTESIAN_POINT('Origin',(27.1,1.,-27.1));
#845=CARTESIAN_POINT('',(1.5,1.,-13.55));
#846=CARTESIAN_POINT('',(52.7,1.,-40.65));
#847=CARTESIAN_POINT('Origin',(1.5,0.,0.));
#848=CARTESIAN_POINT('',(1.5,13.6,-54.2));
#849=CARTESIAN_POINT('Origin',(0.750000000000002,13.6,-27.1));
#850=CARTESIAN_POINT('Origin',(52.7,0.,-54.2));
#851=CARTESIAN_POINT('',(52.7,13.6,-54.2));
#852=CARTESIAN_POINT('Origin',(53.45,13.6,-27.1));
#853=CARTESIAN_POINT('Origin',(53.45,0.,-27.1));
#854=UNCERTAINTY_MEASURE_WITH_UNIT(LENGTH_MEASURE(0.01),#858,
'DISTANCE_ACCURACY_VALUE',
'Maximum model space distance between geometric entities at asserted c
onnectivities');
#855=UNCERTAINTY_MEASURE_WITH_UNIT(LENGTH_MEASURE(0.01),#858,
'DISTANCE_ACCURACY_VALUE',
'Maximum model space distance between geometric entities at asserted c
onnectivities');
#856=(
GEOMETRIC_REPRESENTATION_CONTEXT(3)
GLOBAL_UNCERTAINTY_ASSIGNED_CONTEXT((#854))
GLOBAL_UNIT_ASSIGNED_CONTEXT((#858,#860,#861))
REPRESENTATION_CONTEXT('','3D')
);
#857=(
GEOMETRIC_REPRESENTATION_CONTEXT(3)
GLOBAL_UNCERTAINTY_ASSIGNED_CONTEXT((#855))
GLOBAL_UNIT_ASSIGNED_CONTEXT((#858,#860,#861))
REPRESENTATION_CONTEXT('','3D')
);
#858=(
LENGTH_UNIT()
NAMED_UNIT(*)
SI_UNIT(.MILLI.,.METRE.)
);
#859=(
LENGTH_UNIT()
NAMED_UNIT(*)
SI_UNIT($,.METRE.)
);
#860=(
NAMED_UNIT(*)
PLANE_ANGLE_UNIT()
SI_UNIT($,.RADIAN.)
);
#861=(
NAMED_UNIT(*)
SI_UNIT($,.STERADIAN.)
SOLID_ANGLE_UNIT()
);
#862=SHAPE_DEFINITION_REPRESENTATION(#863,#864);
#863=PRODUCT_DEFINITION_SHAPE('',$,#866);
#864=SHAPE_REPRESENTATION('',(#550),#856);
#865=PRODUCT_DEFINITION_CONTEXT('part definition',#870,'design');
#866=PRODUCT_DEFINITION('2026-10-06-01-14-02-929','case',#867,#865);
#867=PRODUCT_DEFINITION_FORMATION('',$,#872);
#868=PRODUCT_RELATED_PRODUCT_CATEGORY('case','case',(#872));
#869=APPLICATION_PROTOCOL_DEFINITION('international standard',
'automotive_design',2009,#870);
#870=APPLICATION_CONTEXT(
'Core Data for Automotive Mechanical Design Process');
#871=PRODUCT_CONTEXT('part definition',#870,'mechanical');
#872=PRODUCT('2026-10-06-01-14-02-929','case',$,(#871));
#873=PRESENTATION_STYLE_ASSIGNMENT((#875));
#874=PRESENTATION_STYLE_ASSIGNMENT((#876));
#875=SURFACE_STYLE_USAGE(.BOTH.,#877);
#876=SURFACE_STYLE_USAGE(.BOTH.,#878);
#877=SURFACE_SIDE_STYLE('',(#879));
#878=SURFACE_SIDE_STYLE('',(#880));
#879=SURFACE_STYLE_FILL_AREA(#881);
#880=SURFACE_STYLE_FILL_AREA(#882);
#881=FILL_AREA_STYLE('Steel - Satin',(#883));
#882=FILL_AREA_STYLE('ABS (White)',(#884));
#883=FILL_AREA_STYLE_COLOUR('Steel - Satin',#885);
#884=FILL_AREA_STYLE_COLOUR('ABS (White)',#886);
#885=COLOUR_RGB('Steel - Satin',0.627450980392157,0.627450980392157,0.627450980392157);
#886=COLOUR_RGB('ABS (White)',0.964705882352941,0.964705882352941,0.952941176470588);
ENDSEC;
END-ISO-10303-21;
