ISO-10303-21;
HEADER;
/* Generated by software containing ST-Developer
 * from STEP Tools, Inc. (www.steptools.com) 
 */

FILE_DESCRIPTION(
/* description */ (''),
/* implementation_level */ '2;1');

FILE_NAME(
/* name */ 'keycaps.step',
/* time_stamp */ '2026-10-07T23:33:37+05:30',
/* author */ (''),
/* organization */ (''),
/* preprocessor_version */ 'ST-DEVELOPER v20.2',
/* originating_system */ 'Autodesk Translation Framework v15.15.0.0',
/* authorisation */ '');

FILE_SCHEMA (('AUTOMOTIVE_DESIGN { 1 0 10303 214 3 1 1 }'));
ENDSEC;

DATA;
#10=MECHANICAL_DESIGN_GEOMETRIC_PRESENTATION_REPRESENTATION('',(#13),#1533);
#11=SHAPE_REPRESENTATION_RELATIONSHIP('SRR','None',#1540,#12);
#12=ADVANCED_BREP_SHAPE_REPRESENTATION('',(#14),#1532);
#13=STYLED_ITEM('',(#1550),#14);
#14=MANIFOLD_SOLID_BREP('Body1',#914);
#15=CONICAL_SURFACE('',#976,3.65,0.785398163397448);
#16=SPHERICAL_SURFACE('',#945,1.);
#17=SPHERICAL_SURFACE('',#949,1.);
#18=SPHERICAL_SURFACE('',#954,1.);
#19=SPHERICAL_SURFACE('',#958,1.);
#20=FACE_BOUND('',#123,.T.);
#21=FACE_BOUND('',#141,.T.);
#22=FACE_BOUND('',#163,.T.);
#23=PLANE('',#931);
#24=PLANE('',#935);
#25=PLANE('',#939);
#26=PLANE('',#943);
#27=PLANE('',#973);
#28=PLANE('',#974);
#29=PLANE('',#975);
#30=PLANE('',#979);
#31=PLANE('',#981);
#32=PLANE('',#982);
#33=PLANE('',#983);
#34=PLANE('',#984);
#35=PLANE('',#985);
#36=PLANE('',#986);
#37=PLANE('',#987);
#38=PLANE('',#988);
#39=PLANE('',#989);
#40=PLANE('',#990);
#41=PLANE('',#991);
#42=PLANE('',#992);
#43=PLANE('',#993);
#44=PLANE('',#994);
#45=PLANE('',#995);
#46=PLANE('',#996);
#47=PLANE('',#997);
#48=PLANE('',#998);
#49=PLANE('',#999);
#50=PLANE('',#1000);
#51=PLANE('',#1001);
#52=PLANE('',#1002);
#53=PLANE('',#1003);
#54=PLANE('',#1004);
#55=PLANE('',#1005);
#56=PLANE('',#1006);
#57=PLANE('',#1007);
#58=PLANE('',#1008);
#59=PLANE('',#1009);
#60=FACE_OUTER_BOUND('',#115,.T.);
#61=FACE_OUTER_BOUND('',#116,.T.);
#62=FACE_OUTER_BOUND('',#117,.T.);
#63=FACE_OUTER_BOUND('',#118,.T.);
#64=FACE_OUTER_BOUND('',#119,.T.);
#65=FACE_OUTER_BOUND('',#120,.T.);
#66=FACE_OUTER_BOUND('',#121,.T.);
#67=FACE_OUTER_BOUND('',#122,.T.);
#68=FACE_OUTER_BOUND('',#124,.T.);
#69=FACE_OUTER_BOUND('',#125,.T.);
#70=FACE_OUTER_BOUND('',#126,.T.);
#71=FACE_OUTER_BOUND('',#127,.T.);
#72=FACE_OUTER_BOUND('',#128,.T.);
#73=FACE_OUTER_BOUND('',#129,.T.);
#74=FACE_OUTER_BOUND('',#130,.T.);
#75=FACE_OUTER_BOUND('',#131,.T.);
#76=FACE_OUTER_BOUND('',#132,.T.);
#77=FACE_OUTER_BOUND('',#133,.T.);
#78=FACE_OUTER_BOUND('',#134,.T.);
#79=FACE_OUTER_BOUND('',#135,.T.);
#80=FACE_OUTER_BOUND('',#136,.T.);
#81=FACE_OUTER_BOUND('',#137,.T.);
#82=FACE_OUTER_BOUND('',#138,.T.);
#83=FACE_OUTER_BOUND('',#139,.T.);
#84=FACE_OUTER_BOUND('',#140,.T.);
#85=FACE_OUTER_BOUND('',#142,.T.);
#86=FACE_OUTER_BOUND('',#143,.T.);
#87=FACE_OUTER_BOUND('',#144,.T.);
#88=FACE_OUTER_BOUND('',#145,.T.);
#89=FACE_OUTER_BOUND('',#146,.T.);
#90=FACE_OUTER_BOUND('',#147,.T.);
#91=FACE_OUTER_BOUND('',#148,.T.);
#92=FACE_OUTER_BOUND('',#149,.T.);
#93=FACE_OUTER_BOUND('',#150,.T.);
#94=FACE_OUTER_BOUND('',#151,.T.);
#95=FACE_OUTER_BOUND('',#152,.T.);
#96=FACE_OUTER_BOUND('',#153,.T.);
#97=FACE_OUTER_BOUND('',#154,.T.);
#98=FACE_OUTER_BOUND('',#155,.T.);
#99=FACE_OUTER_BOUND('',#156,.T.);
#100=FACE_OUTER_BOUND('',#157,.T.);
#101=FACE_OUTER_BOUND('',#158,.T.);
#102=FACE_OUTER_BOUND('',#159,.T.);
#103=FACE_OUTER_BOUND('',#160,.T.);
#104=FACE_OUTER_BOUND('',#161,.T.);
#105=FACE_OUTER_BOUND('',#162,.T.);
#106=FACE_OUTER_BOUND('',#164,.T.);
#107=FACE_OUTER_BOUND('',#165,.T.);
#108=FACE_OUTER_BOUND('',#166,.T.);
#109=FACE_OUTER_BOUND('',#167,.T.);
#110=FACE_OUTER_BOUND('',#168,.T.);
#111=FACE_OUTER_BOUND('',#169,.T.);
#112=FACE_OUTER_BOUND('',#170,.T.);
#113=FACE_OUTER_BOUND('',#171,.T.);
#114=FACE_OUTER_BOUND('',#172,.T.);
#115=EDGE_LOOP('',(#596,#597,#598,#599));
#116=EDGE_LOOP('',(#600,#601,#602,#603));
#117=EDGE_LOOP('',(#604,#605,#606,#607));
#118=EDGE_LOOP('',(#608,#609,#610,#611));
#119=EDGE_LOOP('',(#612,#613,#614,#615));
#120=EDGE_LOOP('',(#616,#617,#618,#619));
#121=EDGE_LOOP('',(#620,#621,#622,#623));
#122=EDGE_LOOP('',(#624,#625,#626,#627,#628,#629,#630,#631));
#123=EDGE_LOOP('',(#632));
#124=EDGE_LOOP('',(#633,#634,#635));
#125=EDGE_LOOP('',(#636,#637,#638));
#126=EDGE_LOOP('',(#639,#640,#641,#642));
#127=EDGE_LOOP('',(#643,#644,#645));
#128=EDGE_LOOP('',(#646,#647,#648));
#129=EDGE_LOOP('',(#649,#650,#651,#652));
#130=EDGE_LOOP('',(#653,#654,#655,#656));
#131=EDGE_LOOP('',(#657,#658,#659,#660));
#132=EDGE_LOOP('',(#661,#662,#663,#664));
#133=EDGE_LOOP('',(#665,#666,#667,#668));
#134=EDGE_LOOP('',(#669,#670,#671,#672));
#135=EDGE_LOOP('',(#673,#674,#675,#676));
#136=EDGE_LOOP('',(#677,#678,#679,#680));
#137=EDGE_LOOP('',(#681,#682,#683,#684));
#138=EDGE_LOOP('',(#685,#686,#687,#688));
#139=EDGE_LOOP('',(#689,#690,#691,#692));
#140=EDGE_LOOP('',(#693));
#141=EDGE_LOOP('',(#694,#695,#696,#697,#698,#699,#700,#701,#702,#703,#704,
#705));
#142=EDGE_LOOP('',(#706,#707,#708,#709));
#143=EDGE_LOOP('',(#710,#711,#712,#713));
#144=EDGE_LOOP('',(#714,#715,#716,#717));
#145=EDGE_LOOP('',(#718,#719,#720,#721));
#146=EDGE_LOOP('',(#722,#723,#724,#725));
#147=EDGE_LOOP('',(#726,#727,#728,#729));
#148=EDGE_LOOP('',(#730,#731,#732,#733));
#149=EDGE_LOOP('',(#734,#735,#736,#737));
#150=EDGE_LOOP('',(#738,#739,#740,#741));
#151=EDGE_LOOP('',(#742,#743,#744,#745));
#152=EDGE_LOOP('',(#746,#747,#748,#749));
#153=EDGE_LOOP('',(#750,#751,#752,#753));
#154=EDGE_LOOP('',(#754,#755,#756,#757));
#155=EDGE_LOOP('',(#758,#759,#760,#761));
#156=EDGE_LOOP('',(#762,#763,#764,#765));
#157=EDGE_LOOP('',(#766,#767,#768,#769));
#158=EDGE_LOOP('',(#770,#771,#772,#773));
#159=EDGE_LOOP('',(#774,#775,#776,#777));
#160=EDGE_LOOP('',(#778,#779,#780,#781));
#161=EDGE_LOOP('',(#782,#783,#784,#785));
#162=EDGE_LOOP('',(#786,#787,#788,#789,#790,#791,#792,#793));
#163=EDGE_LOOP('',(#794,#795,#796,#797,#798,#799,#800,#801));
#164=EDGE_LOOP('',(#802,#803,#804,#805));
#165=EDGE_LOOP('',(#806,#807,#808,#809));
#166=EDGE_LOOP('',(#810,#811,#812,#813));
#167=EDGE_LOOP('',(#814,#815,#816,#817));
#168=EDGE_LOOP('',(#818,#819,#820,#821));
#169=EDGE_LOOP('',(#822,#823,#824,#825));
#170=EDGE_LOOP('',(#826,#827,#828,#829));
#171=EDGE_LOOP('',(#830,#831,#832,#833));
#172=EDGE_LOOP('',(#834,#835,#836,#837,#838,#839,#840,#841,#842,#843,#844,
#845));
#173=LINE('',#1280,#271);
#174=LINE('',#1283,#272);
#175=LINE('',#1286,#273);
#176=LINE('',#1288,#274);
#177=LINE('',#1289,#275);
#178=LINE('',#1294,#276);
#179=LINE('',#1298,#277);
#180=LINE('',#1300,#278);
#181=LINE('',#1301,#279);
#182=LINE('',#1306,#280);
#183=LINE('',#1310,#281);
#184=LINE('',#1312,#282);
#185=LINE('',#1313,#283);
#186=LINE('',#1318,#284);
#187=LINE('',#1321,#285);
#188=LINE('',#1339,#286);
#189=LINE('',#1340,#287);
#190=LINE('',#1356,#288);
#191=LINE('',#1357,#289);
#192=LINE('',#1362,#290);
#193=LINE('',#1363,#291);
#194=LINE('',#1365,#292);
#195=LINE('',#1366,#293);
#196=LINE('',#1368,#294);
#197=LINE('',#1369,#295);
#198=LINE('',#1374,#296);
#199=LINE('',#1375,#297);
#200=LINE('',#1380,#298);
#201=LINE('',#1381,#299);
#202=LINE('',#1386,#300);
#203=LINE('',#1387,#301);
#204=LINE('',#1389,#302);
#205=LINE('',#1391,#303);
#206=LINE('',#1397,#304);
#207=LINE('',#1402,#305);
#208=LINE('',#1404,#306);
#209=LINE('',#1406,#307);
#210=LINE('',#1408,#308);
#211=LINE('',#1410,#309);
#212=LINE('',#1412,#310);
#213=LINE('',#1414,#311);
#214=LINE('',#1416,#312);
#215=LINE('',#1418,#313);
#216=LINE('',#1420,#314);
#217=LINE('',#1422,#315);
#218=LINE('',#1423,#316);
#219=LINE('',#1425,#317);
#220=LINE('',#1428,#318);
#221=LINE('',#1430,#319);
#222=LINE('',#1431,#320);
#223=LINE('',#1434,#321);
#224=LINE('',#1435,#322);
#225=LINE('',#1438,#323);
#226=LINE('',#1439,#324);
#227=LINE('',#1442,#325);
#228=LINE('',#1443,#326);
#229=LINE('',#1446,#327);
#230=LINE('',#1447,#328);
#231=LINE('',#1450,#329);
#232=LINE('',#1451,#330);
#233=LINE('',#1454,#331);
#234=LINE('',#1455,#332);
#235=LINE('',#1458,#333);
#236=LINE('',#1459,#334);
#237=LINE('',#1462,#335);
#238=LINE('',#1463,#336);
#239=LINE('',#1466,#337);
#240=LINE('',#1467,#338);
#241=LINE('',#1470,#339);
#242=LINE('',#1471,#340);
#243=LINE('',#1473,#341);
#244=LINE('',#1476,#342);
#245=LINE('',#1478,#343);
#246=LINE('',#1479,#344);
#247=LINE('',#1482,#345);
#248=LINE('',#1483,#346);
#249=LINE('',#1486,#347);
#250=LINE('',#1487,#348);
#251=LINE('',#1490,#349);
#252=LINE('',#1491,#350);
#253=LINE('',#1494,#351);
#254=LINE('',#1495,#352);
#255=LINE('',#1498,#353);
#256=LINE('',#1499,#354);
#257=LINE('',#1501,#355);
#258=LINE('',#1503,#356);
#259=LINE('',#1504,#357);
#260=LINE('',#1507,#358);
#261=LINE('',#1508,#359);
#262=LINE('',#1511,#360);
#263=LINE('',#1512,#361);
#264=LINE('',#1515,#362);
#265=LINE('',#1516,#363);
#266=LINE('',#1519,#364);
#267=LINE('',#1520,#365);
#268=LINE('',#1523,#366);
#269=LINE('',#1524,#367);
#270=LINE('',#1526,#368);
#271=VECTOR('',#1016,10.);
#272=VECTOR('',#1019,10.);
#273=VECTOR('',#1022,10.);
#274=VECTOR('',#1023,10.);
#275=VECTOR('',#1024,10.);
#276=VECTOR('',#1029,10.);
#277=VECTOR('',#1034,10.);
#278=VECTOR('',#1035,10.);
#279=VECTOR('',#1036,10.);
#280=VECTOR('',#1041,10.);
#281=VECTOR('',#1046,10.);
#282=VECTOR('',#1047,10.);
#283=VECTOR('',#1048,10.);
#284=VECTOR('',#1053,10.);
#285=VECTOR('',#1058,10.);
#286=VECTOR('',#1079,10.);
#287=VECTOR('',#1080,10.);
#288=VECTOR('',#1099,10.);
#289=VECTOR('',#1100,10.);
#290=VECTOR('',#1105,10.);
#291=VECTOR('',#1106,10.);
#292=VECTOR('',#1109,10.);
#293=VECTOR('',#1110,10.);
#294=VECTOR('',#1113,10.);
#295=VECTOR('',#1114,10.);
#296=VECTOR('',#1119,10.);
#297=VECTOR('',#1120,10.);
#298=VECTOR('',#1125,10.);
#299=VECTOR('',#1126,10.);
#300=VECTOR('',#1131,10.);
#301=VECTOR('',#1132,10.);
#302=VECTOR('',#1135,10.);
#303=VECTOR('',#1138,10.);
#304=VECTOR('',#1145,3.65);
#305=VECTOR('',#1150,10.);
#306=VECTOR('',#1151,10.);
#307=VECTOR('',#1152,10.);
#308=VECTOR('',#1153,10.);
#309=VECTOR('',#1154,10.);
#310=VECTOR('',#1155,10.);
#311=VECTOR('',#1156,10.);
#312=VECTOR('',#1157,10.);
#313=VECTOR('',#1158,10.);
#314=VECTOR('',#1159,10.);
#315=VECTOR('',#1160,10.);
#316=VECTOR('',#1161,10.);
#317=VECTOR('',#1164,3.75);
#318=VECTOR('',#1167,10.);
#319=VECTOR('',#1168,10.);
#320=VECTOR('',#1169,10.);
#321=VECTOR('',#1172,10.);
#322=VECTOR('',#1173,10.);
#323=VECTOR('',#1176,10.);
#324=VECTOR('',#1177,10.);
#325=VECTOR('',#1180,10.);
#326=VECTOR('',#1181,10.);
#327=VECTOR('',#1184,10.);
#328=VECTOR('',#1185,10.);
#329=VECTOR('',#1188,10.);
#330=VECTOR('',#1189,10.);
#331=VECTOR('',#1192,10.);
#332=VECTOR('',#1193,10.);
#333=VECTOR('',#1196,10.);
#334=VECTOR('',#1197,10.);
#335=VECTOR('',#1200,10.);
#336=VECTOR('',#1201,10.);
#337=VECTOR('',#1204,10.);
#338=VECTOR('',#1205,10.);
#339=VECTOR('',#1208,10.);
#340=VECTOR('',#1209,10.);
#341=VECTOR('',#1212,10.);
#342=VECTOR('',#1215,10.);
#343=VECTOR('',#1216,10.);
#344=VECTOR('',#1217,10.);
#345=VECTOR('',#1220,10.);
#346=VECTOR('',#1221,10.);
#347=VECTOR('',#1224,10.);
#348=VECTOR('',#1225,10.);
#349=VECTOR('',#1228,10.);
#350=VECTOR('',#1229,10.);
#351=VECTOR('',#1232,10.);
#352=VECTOR('',#1233,10.);
#353=VECTOR('',#1236,10.);
#354=VECTOR('',#1237,10.);
#355=VECTOR('',#1240,10.);
#356=VECTOR('',#1243,10.);
#357=VECTOR('',#1244,10.);
#358=VECTOR('',#1247,10.);
#359=VECTOR('',#1248,10.);
#360=VECTOR('',#1251,10.);
#361=VECTOR('',#1252,10.);
#362=VECTOR('',#1255,10.);
#363=VECTOR('',#1256,10.);
#364=VECTOR('',#1259,10.);
#365=VECTOR('',#1260,10.);
#366=VECTOR('',#1263,10.);
#367=VECTOR('',#1264,10.);
#368=VECTOR('',#1267,10.);
#369=CIRCLE('',#929,0.5);
#370=CIRCLE('',#930,0.5);
#371=CIRCLE('',#933,0.5);
#372=CIRCLE('',#934,0.5);
#373=CIRCLE('',#937,0.5);
#374=CIRCLE('',#938,0.5);
#375=CIRCLE('',#941,0.5);
#376=CIRCLE('',#942,0.5);
#377=CIRCLE('',#944,3.75);
#378=CIRCLE('',#946,1.);
#379=CIRCLE('',#947,1.);
#380=CIRCLE('',#948,1.);
#381=CIRCLE('',#950,1.);
#382=CIRCLE('',#951,1.);
#383=CIRCLE('',#952,1.);
#384=CIRCLE('',#955,1.);
#385=CIRCLE('',#956,1.);
#386=CIRCLE('',#957,1.);
#387=CIRCLE('',#959,1.);
#388=CIRCLE('',#960,1.);
#389=CIRCLE('',#961,1.);
#390=CIRCLE('',#964,1.);
#391=CIRCLE('',#968,1.);
#392=CIRCLE('',#970,1.);
#393=CIRCLE('',#972,1.);
#394=CIRCLE('',#977,3.55);
#395=CIRCLE('',#978,3.75);
#396=VERTEX_POINT('',#1276);
#397=VERTEX_POINT('',#1277);
#398=VERTEX_POINT('',#1279);
#399=VERTEX_POINT('',#1281);
#400=VERTEX_POINT('',#1285);
#401=VERTEX_POINT('',#1287);
#402=VERTEX_POINT('',#1291);
#403=VERTEX_POINT('',#1293);
#404=VERTEX_POINT('',#1297);
#405=VERTEX_POINT('',#1299);
#406=VERTEX_POINT('',#1303);
#407=VERTEX_POINT('',#1305);
#408=VERTEX_POINT('',#1309);
#409=VERTEX_POINT('',#1311);
#410=VERTEX_POINT('',#1315);
#411=VERTEX_POINT('',#1317);
#412=VERTEX_POINT('',#1322);
#413=VERTEX_POINT('',#1325);
#414=VERTEX_POINT('',#1326);
#415=VERTEX_POINT('',#1328);
#416=VERTEX_POINT('',#1332);
#417=VERTEX_POINT('',#1333);
#418=VERTEX_POINT('',#1335);
#419=VERTEX_POINT('',#1342);
#420=VERTEX_POINT('',#1343);
#421=VERTEX_POINT('',#1345);
#422=VERTEX_POINT('',#1349);
#423=VERTEX_POINT('',#1350);
#424=VERTEX_POINT('',#1352);
#425=VERTEX_POINT('',#1359);
#426=VERTEX_POINT('',#1360);
#427=VERTEX_POINT('',#1371);
#428=VERTEX_POINT('',#1372);
#429=VERTEX_POINT('',#1377);
#430=VERTEX_POINT('',#1378);
#431=VERTEX_POINT('',#1383);
#432=VERTEX_POINT('',#1384);
#433=VERTEX_POINT('',#1394);
#434=VERTEX_POINT('',#1396);
#435=VERTEX_POINT('',#1400);
#436=VERTEX_POINT('',#1401);
#437=VERTEX_POINT('',#1403);
#438=VERTEX_POINT('',#1405);
#439=VERTEX_POINT('',#1407);
#440=VERTEX_POINT('',#1409);
#441=VERTEX_POINT('',#1411);
#442=VERTEX_POINT('',#1413);
#443=VERTEX_POINT('',#1415);
#444=VERTEX_POINT('',#1417);
#445=VERTEX_POINT('',#1419);
#446=VERTEX_POINT('',#1421);
#447=VERTEX_POINT('',#1427);
#448=VERTEX_POINT('',#1429);
#449=VERTEX_POINT('',#1433);
#450=VERTEX_POINT('',#1437);
#451=VERTEX_POINT('',#1441);
#452=VERTEX_POINT('',#1445);
#453=VERTEX_POINT('',#1449);
#454=VERTEX_POINT('',#1453);
#455=VERTEX_POINT('',#1457);
#456=VERTEX_POINT('',#1461);
#457=VERTEX_POINT('',#1465);
#458=VERTEX_POINT('',#1469);
#459=VERTEX_POINT('',#1475);
#460=VERTEX_POINT('',#1477);
#461=VERTEX_POINT('',#1481);
#462=VERTEX_POINT('',#1485);
#463=VERTEX_POINT('',#1489);
#464=VERTEX_POINT('',#1493);
#465=VERTEX_POINT('',#1497);
#466=VERTEX_POINT('',#1506);
#467=VERTEX_POINT('',#1510);
#468=VERTEX_POINT('',#1514);
#469=VERTEX_POINT('',#1518);
#470=VERTEX_POINT('',#1522);
#471=EDGE_CURVE('',#396,#397,#369,.T.);
#472=EDGE_CURVE('',#396,#398,#173,.T.);
#473=EDGE_CURVE('',#398,#399,#370,.T.);
#474=EDGE_CURVE('',#399,#397,#174,.T.);
#475=EDGE_CURVE('',#400,#396,#175,.T.);
#476=EDGE_CURVE('',#401,#400,#176,.T.);
#477=EDGE_CURVE('',#398,#401,#177,.T.);
#478=EDGE_CURVE('',#402,#400,#371,.T.);
#479=EDGE_CURVE('',#402,#403,#178,.T.);
#480=EDGE_CURVE('',#403,#401,#372,.T.);
#481=EDGE_CURVE('',#404,#402,#179,.T.);
#482=EDGE_CURVE('',#405,#404,#180,.T.);
#483=EDGE_CURVE('',#403,#405,#181,.T.);
#484=EDGE_CURVE('',#406,#404,#373,.T.);
#485=EDGE_CURVE('',#406,#407,#182,.T.);
#486=EDGE_CURVE('',#407,#405,#374,.T.);
#487=EDGE_CURVE('',#408,#406,#183,.T.);
#488=EDGE_CURVE('',#409,#408,#184,.T.);
#489=EDGE_CURVE('',#407,#409,#185,.T.);
#490=EDGE_CURVE('',#410,#408,#375,.T.);
#491=EDGE_CURVE('',#410,#411,#186,.T.);
#492=EDGE_CURVE('',#411,#409,#376,.T.);
#493=EDGE_CURVE('',#397,#410,#187,.T.);
#494=EDGE_CURVE('',#412,#412,#377,.T.);
#495=EDGE_CURVE('',#413,#414,#378,.F.);
#496=EDGE_CURVE('',#415,#413,#379,.F.);
#497=EDGE_CURVE('',#414,#415,#380,.F.);
#498=EDGE_CURVE('',#416,#417,#381,.F.);
#499=EDGE_CURVE('',#418,#416,#382,.F.);
#500=EDGE_CURVE('',#417,#418,#383,.F.);
#501=EDGE_CURVE('',#416,#414,#188,.T.);
#502=EDGE_CURVE('',#415,#418,#189,.T.);
#503=EDGE_CURVE('',#419,#420,#384,.F.);
#504=EDGE_CURVE('',#421,#419,#385,.F.);
#505=EDGE_CURVE('',#420,#421,#386,.F.);
#506=EDGE_CURVE('',#422,#423,#387,.F.);
#507=EDGE_CURVE('',#424,#422,#388,.F.);
#508=EDGE_CURVE('',#423,#424,#389,.F.);
#509=EDGE_CURVE('',#419,#424,#190,.T.);
#510=EDGE_CURVE('',#422,#421,#191,.T.);
#511=EDGE_CURVE('',#425,#426,#390,.T.);
#512=EDGE_CURVE('',#426,#423,#192,.T.);
#513=EDGE_CURVE('',#424,#425,#193,.T.);
#514=EDGE_CURVE('',#423,#417,#194,.T.);
#515=EDGE_CURVE('',#418,#422,#195,.T.);
#516=EDGE_CURVE('',#413,#420,#196,.T.);
#517=EDGE_CURVE('',#421,#415,#197,.T.);
#518=EDGE_CURVE('',#427,#428,#391,.T.);
#519=EDGE_CURVE('',#428,#419,#198,.T.);
#520=EDGE_CURVE('',#420,#427,#199,.T.);
#521=EDGE_CURVE('',#429,#430,#392,.T.);
#522=EDGE_CURVE('',#430,#416,#200,.T.);
#523=EDGE_CURVE('',#417,#429,#201,.T.);
#524=EDGE_CURVE('',#431,#432,#393,.T.);
#525=EDGE_CURVE('',#432,#413,#202,.T.);
#526=EDGE_CURVE('',#414,#431,#203,.T.);
#527=EDGE_CURVE('',#425,#428,#204,.T.);
#528=EDGE_CURVE('',#427,#432,#205,.T.);
#529=EDGE_CURVE('',#433,#433,#394,.T.);
#530=EDGE_CURVE('',#433,#434,#206,.T.);
#531=EDGE_CURVE('',#434,#434,#395,.T.);
#532=EDGE_CURVE('',#435,#436,#207,.T.);
#533=EDGE_CURVE('',#437,#435,#208,.T.);
#534=EDGE_CURVE('',#438,#437,#209,.T.);
#535=EDGE_CURVE('',#439,#438,#210,.T.);
#536=EDGE_CURVE('',#440,#439,#211,.T.);
#537=EDGE_CURVE('',#441,#440,#212,.T.);
#538=EDGE_CURVE('',#442,#441,#213,.T.);
#539=EDGE_CURVE('',#443,#442,#214,.T.);
#540=EDGE_CURVE('',#444,#443,#215,.T.);
#541=EDGE_CURVE('',#445,#444,#216,.T.);
#542=EDGE_CURVE('',#446,#445,#217,.T.);
#543=EDGE_CURVE('',#436,#446,#218,.T.);
#544=EDGE_CURVE('',#434,#412,#219,.T.);
#545=EDGE_CURVE('',#436,#447,#220,.T.);
#546=EDGE_CURVE('',#447,#448,#221,.T.);
#547=EDGE_CURVE('',#435,#448,#222,.T.);
#548=EDGE_CURVE('',#446,#449,#223,.T.);
#549=EDGE_CURVE('',#449,#447,#224,.T.);
#550=EDGE_CURVE('',#445,#450,#225,.T.);
#551=EDGE_CURVE('',#450,#449,#226,.T.);
#552=EDGE_CURVE('',#444,#451,#227,.T.);
#553=EDGE_CURVE('',#451,#450,#228,.T.);
#554=EDGE_CURVE('',#443,#452,#229,.T.);
#555=EDGE_CURVE('',#452,#451,#230,.T.);
#556=EDGE_CURVE('',#442,#453,#231,.T.);
#557=EDGE_CURVE('',#453,#452,#232,.T.);
#558=EDGE_CURVE('',#441,#454,#233,.T.);
#559=EDGE_CURVE('',#454,#453,#234,.T.);
#560=EDGE_CURVE('',#455,#454,#235,.T.);
#561=EDGE_CURVE('',#440,#455,#236,.T.);
#562=EDGE_CURVE('',#456,#455,#237,.T.);
#563=EDGE_CURVE('',#439,#456,#238,.T.);
#564=EDGE_CURVE('',#457,#456,#239,.T.);
#565=EDGE_CURVE('',#438,#457,#240,.T.);
#566=EDGE_CURVE('',#458,#457,#241,.T.);
#567=EDGE_CURVE('',#437,#458,#242,.T.);
#568=EDGE_CURVE('',#448,#458,#243,.T.);
#569=EDGE_CURVE('',#459,#455,#244,.T.);
#570=EDGE_CURVE('',#460,#459,#245,.T.);
#571=EDGE_CURVE('',#460,#454,#246,.T.);
#572=EDGE_CURVE('',#461,#456,#247,.T.);
#573=EDGE_CURVE('',#459,#461,#248,.T.);
#574=EDGE_CURVE('',#462,#457,#249,.T.);
#575=EDGE_CURVE('',#461,#462,#250,.T.);
#576=EDGE_CURVE('',#463,#458,#251,.T.);
#577=EDGE_CURVE('',#462,#463,#252,.T.);
#578=EDGE_CURVE('',#464,#448,#253,.T.);
#579=EDGE_CURVE('',#463,#464,#254,.T.);
#580=EDGE_CURVE('',#465,#447,#255,.T.);
#581=EDGE_CURVE('',#464,#465,#256,.T.);
#582=EDGE_CURVE('',#411,#399,#257,.T.);
#583=EDGE_CURVE('',#431,#430,#258,.T.);
#584=EDGE_CURVE('',#429,#426,#259,.T.);
#585=EDGE_CURVE('',#466,#449,#260,.T.);
#586=EDGE_CURVE('',#465,#466,#261,.T.);
#587=EDGE_CURVE('',#467,#450,#262,.T.);
#588=EDGE_CURVE('',#466,#467,#263,.T.);
#589=EDGE_CURVE('',#468,#451,#264,.T.);
#590=EDGE_CURVE('',#467,#468,#265,.T.);
#591=EDGE_CURVE('',#469,#452,#266,.T.);
#592=EDGE_CURVE('',#468,#469,#267,.T.);
#593=EDGE_CURVE('',#470,#453,#268,.T.);
#594=EDGE_CURVE('',#469,#470,#269,.T.);
#595=EDGE_CURVE('',#470,#460,#270,.T.);
#596=ORIENTED_EDGE('',*,*,#471,.F.);
#597=ORIENTED_EDGE('',*,*,#472,.T.);
#598=ORIENTED_EDGE('',*,*,#473,.T.);
#599=ORIENTED_EDGE('',*,*,#474,.T.);
#600=ORIENTED_EDGE('',*,*,#472,.F.);
#601=ORIENTED_EDGE('',*,*,#475,.F.);
#602=ORIENTED_EDGE('',*,*,#476,.F.);
#603=ORIENTED_EDGE('',*,*,#477,.F.);
#604=ORIENTED_EDGE('',*,*,#478,.F.);
#605=ORIENTED_EDGE('',*,*,#479,.T.);
#606=ORIENTED_EDGE('',*,*,#480,.T.);
#607=ORIENTED_EDGE('',*,*,#476,.T.);
#608=ORIENTED_EDGE('',*,*,#479,.F.);
#609=ORIENTED_EDGE('',*,*,#481,.F.);
#610=ORIENTED_EDGE('',*,*,#482,.F.);
#611=ORIENTED_EDGE('',*,*,#483,.F.);
#612=ORIENTED_EDGE('',*,*,#484,.F.);
#613=ORIENTED_EDGE('',*,*,#485,.T.);
#614=ORIENTED_EDGE('',*,*,#486,.T.);
#615=ORIENTED_EDGE('',*,*,#482,.T.);
#616=ORIENTED_EDGE('',*,*,#485,.F.);
#617=ORIENTED_EDGE('',*,*,#487,.F.);
#618=ORIENTED_EDGE('',*,*,#488,.F.);
#619=ORIENTED_EDGE('',*,*,#489,.F.);
#620=ORIENTED_EDGE('',*,*,#490,.F.);
#621=ORIENTED_EDGE('',*,*,#491,.T.);
#622=ORIENTED_EDGE('',*,*,#492,.T.);
#623=ORIENTED_EDGE('',*,*,#488,.T.);
#624=ORIENTED_EDGE('',*,*,#471,.T.);
#625=ORIENTED_EDGE('',*,*,#493,.T.);
#626=ORIENTED_EDGE('',*,*,#490,.T.);
#627=ORIENTED_EDGE('',*,*,#487,.T.);
#628=ORIENTED_EDGE('',*,*,#484,.T.);
#629=ORIENTED_EDGE('',*,*,#481,.T.);
#630=ORIENTED_EDGE('',*,*,#478,.T.);
#631=ORIENTED_EDGE('',*,*,#475,.T.);
#632=ORIENTED_EDGE('',*,*,#494,.T.);
#633=ORIENTED_EDGE('',*,*,#495,.F.);
#634=ORIENTED_EDGE('',*,*,#496,.F.);
#635=ORIENTED_EDGE('',*,*,#497,.F.);
#636=ORIENTED_EDGE('',*,*,#498,.F.);
#637=ORIENTED_EDGE('',*,*,#499,.F.);
#638=ORIENTED_EDGE('',*,*,#500,.F.);
#639=ORIENTED_EDGE('',*,*,#499,.T.);
#640=ORIENTED_EDGE('',*,*,#501,.T.);
#641=ORIENTED_EDGE('',*,*,#497,.T.);
#642=ORIENTED_EDGE('',*,*,#502,.T.);
#643=ORIENTED_EDGE('',*,*,#503,.F.);
#644=ORIENTED_EDGE('',*,*,#504,.F.);
#645=ORIENTED_EDGE('',*,*,#505,.F.);
#646=ORIENTED_EDGE('',*,*,#506,.F.);
#647=ORIENTED_EDGE('',*,*,#507,.F.);
#648=ORIENTED_EDGE('',*,*,#508,.F.);
#649=ORIENTED_EDGE('',*,*,#504,.T.);
#650=ORIENTED_EDGE('',*,*,#509,.T.);
#651=ORIENTED_EDGE('',*,*,#507,.T.);
#652=ORIENTED_EDGE('',*,*,#510,.T.);
#653=ORIENTED_EDGE('',*,*,#511,.T.);
#654=ORIENTED_EDGE('',*,*,#512,.T.);
#655=ORIENTED_EDGE('',*,*,#508,.T.);
#656=ORIENTED_EDGE('',*,*,#513,.T.);
#657=ORIENTED_EDGE('',*,*,#506,.T.);
#658=ORIENTED_EDGE('',*,*,#514,.T.);
#659=ORIENTED_EDGE('',*,*,#500,.T.);
#660=ORIENTED_EDGE('',*,*,#515,.T.);
#661=ORIENTED_EDGE('',*,*,#496,.T.);
#662=ORIENTED_EDGE('',*,*,#516,.T.);
#663=ORIENTED_EDGE('',*,*,#505,.T.);
#664=ORIENTED_EDGE('',*,*,#517,.T.);
#665=ORIENTED_EDGE('',*,*,#518,.T.);
#666=ORIENTED_EDGE('',*,*,#519,.T.);
#667=ORIENTED_EDGE('',*,*,#503,.T.);
#668=ORIENTED_EDGE('',*,*,#520,.T.);
#669=ORIENTED_EDGE('',*,*,#521,.T.);
#670=ORIENTED_EDGE('',*,*,#522,.T.);
#671=ORIENTED_EDGE('',*,*,#498,.T.);
#672=ORIENTED_EDGE('',*,*,#523,.T.);
#673=ORIENTED_EDGE('',*,*,#524,.T.);
#674=ORIENTED_EDGE('',*,*,#525,.T.);
#675=ORIENTED_EDGE('',*,*,#495,.T.);
#676=ORIENTED_EDGE('',*,*,#526,.T.);
#677=ORIENTED_EDGE('',*,*,#513,.F.);
#678=ORIENTED_EDGE('',*,*,#509,.F.);
#679=ORIENTED_EDGE('',*,*,#519,.F.);
#680=ORIENTED_EDGE('',*,*,#527,.F.);
#681=ORIENTED_EDGE('',*,*,#520,.F.);
#682=ORIENTED_EDGE('',*,*,#516,.F.);
#683=ORIENTED_EDGE('',*,*,#525,.F.);
#684=ORIENTED_EDGE('',*,*,#528,.F.);
#685=ORIENTED_EDGE('',*,*,#510,.F.);
#686=ORIENTED_EDGE('',*,*,#515,.F.);
#687=ORIENTED_EDGE('',*,*,#502,.F.);
#688=ORIENTED_EDGE('',*,*,#517,.F.);
#689=ORIENTED_EDGE('',*,*,#529,.T.);
#690=ORIENTED_EDGE('',*,*,#530,.T.);
#691=ORIENTED_EDGE('',*,*,#531,.T.);
#692=ORIENTED_EDGE('',*,*,#530,.F.);
#693=ORIENTED_EDGE('',*,*,#529,.F.);
#694=ORIENTED_EDGE('',*,*,#532,.F.);
#695=ORIENTED_EDGE('',*,*,#533,.F.);
#696=ORIENTED_EDGE('',*,*,#534,.F.);
#697=ORIENTED_EDGE('',*,*,#535,.F.);
#698=ORIENTED_EDGE('',*,*,#536,.F.);
#699=ORIENTED_EDGE('',*,*,#537,.F.);
#700=ORIENTED_EDGE('',*,*,#538,.F.);
#701=ORIENTED_EDGE('',*,*,#539,.F.);
#702=ORIENTED_EDGE('',*,*,#540,.F.);
#703=ORIENTED_EDGE('',*,*,#541,.F.);
#704=ORIENTED_EDGE('',*,*,#542,.F.);
#705=ORIENTED_EDGE('',*,*,#543,.F.);
#706=ORIENTED_EDGE('',*,*,#531,.F.);
#707=ORIENTED_EDGE('',*,*,#544,.T.);
#708=ORIENTED_EDGE('',*,*,#494,.F.);
#709=ORIENTED_EDGE('',*,*,#544,.F.);
#710=ORIENTED_EDGE('',*,*,#532,.T.);
#711=ORIENTED_EDGE('',*,*,#545,.T.);
#712=ORIENTED_EDGE('',*,*,#546,.T.);
#713=ORIENTED_EDGE('',*,*,#547,.F.);
#714=ORIENTED_EDGE('',*,*,#543,.T.);
#715=ORIENTED_EDGE('',*,*,#548,.T.);
#716=ORIENTED_EDGE('',*,*,#549,.T.);
#717=ORIENTED_EDGE('',*,*,#545,.F.);
#718=ORIENTED_EDGE('',*,*,#542,.T.);
#719=ORIENTED_EDGE('',*,*,#550,.T.);
#720=ORIENTED_EDGE('',*,*,#551,.T.);
#721=ORIENTED_EDGE('',*,*,#548,.F.);
#722=ORIENTED_EDGE('',*,*,#541,.T.);
#723=ORIENTED_EDGE('',*,*,#552,.T.);
#724=ORIENTED_EDGE('',*,*,#553,.T.);
#725=ORIENTED_EDGE('',*,*,#550,.F.);
#726=ORIENTED_EDGE('',*,*,#540,.T.);
#727=ORIENTED_EDGE('',*,*,#554,.T.);
#728=ORIENTED_EDGE('',*,*,#555,.T.);
#729=ORIENTED_EDGE('',*,*,#552,.F.);
#730=ORIENTED_EDGE('',*,*,#539,.T.);
#731=ORIENTED_EDGE('',*,*,#556,.T.);
#732=ORIENTED_EDGE('',*,*,#557,.T.);
#733=ORIENTED_EDGE('',*,*,#554,.F.);
#734=ORIENTED_EDGE('',*,*,#538,.T.);
#735=ORIENTED_EDGE('',*,*,#558,.T.);
#736=ORIENTED_EDGE('',*,*,#559,.T.);
#737=ORIENTED_EDGE('',*,*,#556,.F.);
#738=ORIENTED_EDGE('',*,*,#560,.T.);
#739=ORIENTED_EDGE('',*,*,#558,.F.);
#740=ORIENTED_EDGE('',*,*,#537,.T.);
#741=ORIENTED_EDGE('',*,*,#561,.T.);
#742=ORIENTED_EDGE('',*,*,#562,.T.);
#743=ORIENTED_EDGE('',*,*,#561,.F.);
#744=ORIENTED_EDGE('',*,*,#536,.T.);
#745=ORIENTED_EDGE('',*,*,#563,.T.);
#746=ORIENTED_EDGE('',*,*,#564,.T.);
#747=ORIENTED_EDGE('',*,*,#563,.F.);
#748=ORIENTED_EDGE('',*,*,#535,.T.);
#749=ORIENTED_EDGE('',*,*,#565,.T.);
#750=ORIENTED_EDGE('',*,*,#566,.T.);
#751=ORIENTED_EDGE('',*,*,#565,.F.);
#752=ORIENTED_EDGE('',*,*,#534,.T.);
#753=ORIENTED_EDGE('',*,*,#567,.T.);
#754=ORIENTED_EDGE('',*,*,#568,.T.);
#755=ORIENTED_EDGE('',*,*,#567,.F.);
#756=ORIENTED_EDGE('',*,*,#533,.T.);
#757=ORIENTED_EDGE('',*,*,#547,.T.);
#758=ORIENTED_EDGE('',*,*,#560,.F.);
#759=ORIENTED_EDGE('',*,*,#569,.F.);
#760=ORIENTED_EDGE('',*,*,#570,.F.);
#761=ORIENTED_EDGE('',*,*,#571,.T.);
#762=ORIENTED_EDGE('',*,*,#562,.F.);
#763=ORIENTED_EDGE('',*,*,#572,.F.);
#764=ORIENTED_EDGE('',*,*,#573,.F.);
#765=ORIENTED_EDGE('',*,*,#569,.T.);
#766=ORIENTED_EDGE('',*,*,#564,.F.);
#767=ORIENTED_EDGE('',*,*,#574,.F.);
#768=ORIENTED_EDGE('',*,*,#575,.F.);
#769=ORIENTED_EDGE('',*,*,#572,.T.);
#770=ORIENTED_EDGE('',*,*,#566,.F.);
#771=ORIENTED_EDGE('',*,*,#576,.F.);
#772=ORIENTED_EDGE('',*,*,#577,.F.);
#773=ORIENTED_EDGE('',*,*,#574,.T.);
#774=ORIENTED_EDGE('',*,*,#568,.F.);
#775=ORIENTED_EDGE('',*,*,#578,.F.);
#776=ORIENTED_EDGE('',*,*,#579,.F.);
#777=ORIENTED_EDGE('',*,*,#576,.T.);
#778=ORIENTED_EDGE('',*,*,#546,.F.);
#779=ORIENTED_EDGE('',*,*,#580,.F.);
#780=ORIENTED_EDGE('',*,*,#581,.F.);
#781=ORIENTED_EDGE('',*,*,#578,.T.);
#782=ORIENTED_EDGE('',*,*,#474,.F.);
#783=ORIENTED_EDGE('',*,*,#582,.F.);
#784=ORIENTED_EDGE('',*,*,#491,.F.);
#785=ORIENTED_EDGE('',*,*,#493,.F.);
#786=ORIENTED_EDGE('',*,*,#511,.F.);
#787=ORIENTED_EDGE('',*,*,#527,.T.);
#788=ORIENTED_EDGE('',*,*,#518,.F.);
#789=ORIENTED_EDGE('',*,*,#528,.T.);
#790=ORIENTED_EDGE('',*,*,#524,.F.);
#791=ORIENTED_EDGE('',*,*,#583,.T.);
#792=ORIENTED_EDGE('',*,*,#521,.F.);
#793=ORIENTED_EDGE('',*,*,#584,.T.);
#794=ORIENTED_EDGE('',*,*,#582,.T.);
#795=ORIENTED_EDGE('',*,*,#473,.F.);
#796=ORIENTED_EDGE('',*,*,#477,.T.);
#797=ORIENTED_EDGE('',*,*,#480,.F.);
#798=ORIENTED_EDGE('',*,*,#483,.T.);
#799=ORIENTED_EDGE('',*,*,#486,.F.);
#800=ORIENTED_EDGE('',*,*,#489,.T.);
#801=ORIENTED_EDGE('',*,*,#492,.F.);
#802=ORIENTED_EDGE('',*,*,#549,.F.);
#803=ORIENTED_EDGE('',*,*,#585,.F.);
#804=ORIENTED_EDGE('',*,*,#586,.F.);
#805=ORIENTED_EDGE('',*,*,#580,.T.);
#806=ORIENTED_EDGE('',*,*,#551,.F.);
#807=ORIENTED_EDGE('',*,*,#587,.F.);
#808=ORIENTED_EDGE('',*,*,#588,.F.);
#809=ORIENTED_EDGE('',*,*,#585,.T.);
#810=ORIENTED_EDGE('',*,*,#553,.F.);
#811=ORIENTED_EDGE('',*,*,#589,.F.);
#812=ORIENTED_EDGE('',*,*,#590,.F.);
#813=ORIENTED_EDGE('',*,*,#587,.T.);
#814=ORIENTED_EDGE('',*,*,#555,.F.);
#815=ORIENTED_EDGE('',*,*,#591,.F.);
#816=ORIENTED_EDGE('',*,*,#592,.F.);
#817=ORIENTED_EDGE('',*,*,#589,.T.);
#818=ORIENTED_EDGE('',*,*,#557,.F.);
#819=ORIENTED_EDGE('',*,*,#593,.F.);
#820=ORIENTED_EDGE('',*,*,#594,.F.);
#821=ORIENTED_EDGE('',*,*,#591,.T.);
#822=ORIENTED_EDGE('',*,*,#559,.F.);
#823=ORIENTED_EDGE('',*,*,#571,.F.);
#824=ORIENTED_EDGE('',*,*,#595,.F.);
#825=ORIENTED_EDGE('',*,*,#593,.T.);
#826=ORIENTED_EDGE('',*,*,#512,.F.);
#827=ORIENTED_EDGE('',*,*,#584,.F.);
#828=ORIENTED_EDGE('',*,*,#523,.F.);
#829=ORIENTED_EDGE('',*,*,#514,.F.);
#830=ORIENTED_EDGE('',*,*,#522,.F.);
#831=ORIENTED_EDGE('',*,*,#583,.F.);
#832=ORIENTED_EDGE('',*,*,#526,.F.);
#833=ORIENTED_EDGE('',*,*,#501,.F.);
#834=ORIENTED_EDGE('',*,*,#573,.T.);
#835=ORIENTED_EDGE('',*,*,#575,.T.);
#836=ORIENTED_EDGE('',*,*,#577,.T.);
#837=ORIENTED_EDGE('',*,*,#579,.T.);
#838=ORIENTED_EDGE('',*,*,#581,.T.);
#839=ORIENTED_EDGE('',*,*,#586,.T.);
#840=ORIENTED_EDGE('',*,*,#588,.T.);
#841=ORIENTED_EDGE('',*,*,#590,.T.);
#842=ORIENTED_EDGE('',*,*,#592,.T.);
#843=ORIENTED_EDGE('',*,*,#594,.T.);
#844=ORIENTED_EDGE('',*,*,#595,.T.);
#845=ORIENTED_EDGE('',*,*,#570,.T.);
#846=CYLINDRICAL_SURFACE('',#928,0.5);
#847=CYLINDRICAL_SURFACE('',#932,0.5);
#848=CYLINDRICAL_SURFACE('',#936,0.5);
#849=CYLINDRICAL_SURFACE('',#940,0.5);
#850=CYLINDRICAL_SURFACE('',#953,1.);
#851=CYLINDRICAL_SURFACE('',#962,1.);
#852=CYLINDRICAL_SURFACE('',#963,1.);
#853=CYLINDRICAL_SURFACE('',#965,1.);
#854=CYLINDRICAL_SURFACE('',#966,1.);
#855=CYLINDRICAL_SURFACE('',#967,1.);
#856=CYLINDRICAL_SURFACE('',#969,1.);
#857=CYLINDRICAL_SURFACE('',#971,1.);
#858=CYLINDRICAL_SURFACE('',#980,3.75);
#859=ADVANCED_FACE('',(#60),#846,.F.);
#860=ADVANCED_FACE('',(#61),#23,.T.);
#861=ADVANCED_FACE('',(#62),#847,.F.);
#862=ADVANCED_FACE('',(#63),#24,.T.);
#863=ADVANCED_FACE('',(#64),#848,.F.);
#864=ADVANCED_FACE('',(#65),#25,.T.);
#865=ADVANCED_FACE('',(#66),#849,.F.);
#866=ADVANCED_FACE('',(#67,#20),#26,.T.);
#867=ADVANCED_FACE('',(#68),#16,.T.);
#868=ADVANCED_FACE('',(#69),#17,.T.);
#869=ADVANCED_FACE('',(#70),#850,.T.);
#870=ADVANCED_FACE('',(#71),#18,.T.);
#871=ADVANCED_FACE('',(#72),#19,.T.);
#872=ADVANCED_FACE('',(#73),#851,.T.);
#873=ADVANCED_FACE('',(#74),#852,.T.);
#874=ADVANCED_FACE('',(#75),#853,.T.);
#875=ADVANCED_FACE('',(#76),#854,.T.);
#876=ADVANCED_FACE('',(#77),#855,.T.);
#877=ADVANCED_FACE('',(#78),#856,.T.);
#878=ADVANCED_FACE('',(#79),#857,.T.);
#879=ADVANCED_FACE('',(#80),#27,.T.);
#880=ADVANCED_FACE('',(#81),#28,.T.);
#881=ADVANCED_FACE('',(#82),#29,.F.);
#882=ADVANCED_FACE('',(#83),#15,.T.);
#883=ADVANCED_FACE('',(#84,#21),#30,.T.);
#884=ADVANCED_FACE('',(#85),#858,.T.);
#885=ADVANCED_FACE('',(#86),#31,.T.);
#886=ADVANCED_FACE('',(#87),#32,.T.);
#887=ADVANCED_FACE('',(#88),#33,.T.);
#888=ADVANCED_FACE('',(#89),#34,.T.);
#889=ADVANCED_FACE('',(#90),#35,.T.);
#890=ADVANCED_FACE('',(#91),#36,.T.);
#891=ADVANCED_FACE('',(#92),#37,.T.);
#892=ADVANCED_FACE('',(#93),#38,.T.);
#893=ADVANCED_FACE('',(#94),#39,.T.);
#894=ADVANCED_FACE('',(#95),#40,.T.);
#895=ADVANCED_FACE('',(#96),#41,.T.);
#896=ADVANCED_FACE('',(#97),#42,.T.);
#897=ADVANCED_FACE('',(#98),#43,.T.);
#898=ADVANCED_FACE('',(#99),#44,.T.);
#899=ADVANCED_FACE('',(#100),#45,.T.);
#900=ADVANCED_FACE('',(#101),#46,.T.);
#901=ADVANCED_FACE('',(#102),#47,.T.);
#902=ADVANCED_FACE('',(#103),#48,.T.);
#903=ADVANCED_FACE('',(#104),#49,.T.);
#904=ADVANCED_FACE('',(#105,#22),#50,.T.);
#905=ADVANCED_FACE('',(#106),#51,.T.);
#906=ADVANCED_FACE('',(#107),#52,.T.);
#907=ADVANCED_FACE('',(#108),#53,.T.);
#908=ADVANCED_FACE('',(#109),#54,.T.);
#909=ADVANCED_FACE('',(#110),#55,.T.);
#910=ADVANCED_FACE('',(#111),#56,.T.);
#911=ADVANCED_FACE('',(#112),#57,.T.);
#912=ADVANCED_FACE('',(#113),#58,.T.);
#913=ADVANCED_FACE('',(#114),#59,.T.);
#914=CLOSED_SHELL('',(#859,#860,#861,#862,#863,#864,#865,#866,#867,#868,
#869,#870,#871,#872,#873,#874,#875,#876,#877,#878,#879,#880,#881,#882,#883,
#884,#885,#886,#887,#888,#889,#890,#891,#892,#893,#894,#895,#896,#897,#898,
#899,#900,#901,#902,#903,#904,#905,#906,#907,#908,#909,#910,#911,#912,#913));
#915=DERIVED_UNIT_ELEMENT(#917,1.);
#916=DERIVED_UNIT_ELEMENT(#1535,-3.);
#917=(
MASS_UNIT()
NAMED_UNIT(*)
SI_UNIT(.KILO.,.GRAM.)
);
#918=DERIVED_UNIT((#915,#916));
#919=MEASURE_REPRESENTATION_ITEM('density measure',
POSITIVE_RATIO_MEASURE(7850.),#918);
#920=PROPERTY_DEFINITION_REPRESENTATION(#925,#922);
#921=PROPERTY_DEFINITION_REPRESENTATION(#926,#923);
#922=REPRESENTATION('material name',(#924),#1532);
#923=REPRESENTATION('density',(#919),#1532);
#924=DESCRIPTIVE_REPRESENTATION_ITEM('Steel','Steel');
#925=PROPERTY_DEFINITION('material property','material name',#1542);
#926=PROPERTY_DEFINITION('material property','density of part',#1542);
#927=AXIS2_PLACEMENT_3D('',#1274,#1010,#1011);
#928=AXIS2_PLACEMENT_3D('',#1275,#1012,#1013);
#929=AXIS2_PLACEMENT_3D('',#1278,#1014,#1015);
#930=AXIS2_PLACEMENT_3D('',#1282,#1017,#1018);
#931=AXIS2_PLACEMENT_3D('',#1284,#1020,#1021);
#932=AXIS2_PLACEMENT_3D('',#1290,#1025,#1026);
#933=AXIS2_PLACEMENT_3D('',#1292,#1027,#1028);
#934=AXIS2_PLACEMENT_3D('',#1295,#1030,#1031);
#935=AXIS2_PLACEMENT_3D('',#1296,#1032,#1033);
#936=AXIS2_PLACEMENT_3D('',#1302,#1037,#1038);
#937=AXIS2_PLACEMENT_3D('',#1304,#1039,#1040);
#938=AXIS2_PLACEMENT_3D('',#1307,#1042,#1043);
#939=AXIS2_PLACEMENT_3D('',#1308,#1044,#1045);
#940=AXIS2_PLACEMENT_3D('',#1314,#1049,#1050);
#941=AXIS2_PLACEMENT_3D('',#1316,#1051,#1052);
#942=AXIS2_PLACEMENT_3D('',#1319,#1054,#1055);
#943=AXIS2_PLACEMENT_3D('',#1320,#1056,#1057);
#944=AXIS2_PLACEMENT_3D('',#1323,#1059,#1060);
#945=AXIS2_PLACEMENT_3D('',#1324,#1061,#1062);
#946=AXIS2_PLACEMENT_3D('',#1327,#1063,#1064);
#947=AXIS2_PLACEMENT_3D('',#1329,#1065,#1066);
#948=AXIS2_PLACEMENT_3D('',#1330,#1067,#1068);
#949=AXIS2_PLACEMENT_3D('',#1331,#1069,#1070);
#950=AXIS2_PLACEMENT_3D('',#1334,#1071,#1072);
#951=AXIS2_PLACEMENT_3D('',#1336,#1073,#1074);
#952=AXIS2_PLACEMENT_3D('',#1337,#1075,#1076);
#953=AXIS2_PLACEMENT_3D('',#1338,#1077,#1078);
#954=AXIS2_PLACEMENT_3D('',#1341,#1081,#1082);
#955=AXIS2_PLACEMENT_3D('',#1344,#1083,#1084);
#956=AXIS2_PLACEMENT_3D('',#1346,#1085,#1086);
#957=AXIS2_PLACEMENT_3D('',#1347,#1087,#1088);
#958=AXIS2_PLACEMENT_3D('',#1348,#1089,#1090);
#959=AXIS2_PLACEMENT_3D('',#1351,#1091,#1092);
#960=AXIS2_PLACEMENT_3D('',#1353,#1093,#1094);
#961=AXIS2_PLACEMENT_3D('',#1354,#1095,#1096);
#962=AXIS2_PLACEMENT_3D('',#1355,#1097,#1098);
#963=AXIS2_PLACEMENT_3D('',#1358,#1101,#1102);
#964=AXIS2_PLACEMENT_3D('',#1361,#1103,#1104);
#965=AXIS2_PLACEMENT_3D('',#1364,#1107,#1108);
#966=AXIS2_PLACEMENT_3D('',#1367,#1111,#1112);
#967=AXIS2_PLACEMENT_3D('',#1370,#1115,#1116);
#968=AXIS2_PLACEMENT_3D('',#1373,#1117,#1118);
#969=AXIS2_PLACEMENT_3D('',#1376,#1121,#1122);
#970=AXIS2_PLACEMENT_3D('',#1379,#1123,#1124);
#971=AXIS2_PLACEMENT_3D('',#1382,#1127,#1128);
#972=AXIS2_PLACEMENT_3D('',#1385,#1129,#1130);
#973=AXIS2_PLACEMENT_3D('',#1388,#1133,#1134);
#974=AXIS2_PLACEMENT_3D('',#1390,#1136,#1137);
#975=AXIS2_PLACEMENT_3D('',#1392,#1139,#1140);
#976=AXIS2_PLACEMENT_3D('',#1393,#1141,#1142);
#977=AXIS2_PLACEMENT_3D('',#1395,#1143,#1144);
#978=AXIS2_PLACEMENT_3D('',#1398,#1146,#1147);
#979=AXIS2_PLACEMENT_3D('',#1399,#1148,#1149);
#980=AXIS2_PLACEMENT_3D('',#1424,#1162,#1163);
#981=AXIS2_PLACEMENT_3D('',#1426,#1165,#1166);
#982=AXIS2_PLACEMENT_3D('',#1432,#1170,#1171);
#983=AXIS2_PLACEMENT_3D('',#1436,#1174,#1175);
#984=AXIS2_PLACEMENT_3D('',#1440,#1178,#1179);
#985=AXIS2_PLACEMENT_3D('',#1444,#1182,#1183);
#986=AXIS2_PLACEMENT_3D('',#1448,#1186,#1187);
#987=AXIS2_PLACEMENT_3D('',#1452,#1190,#1191);
#988=AXIS2_PLACEMENT_3D('',#1456,#1194,#1195);
#989=AXIS2_PLACEMENT_3D('',#1460,#1198,#1199);
#990=AXIS2_PLACEMENT_3D('',#1464,#1202,#1203);
#991=AXIS2_PLACEMENT_3D('',#1468,#1206,#1207);
#992=AXIS2_PLACEMENT_3D('',#1472,#1210,#1211);
#993=AXIS2_PLACEMENT_3D('',#1474,#1213,#1214);
#994=AXIS2_PLACEMENT_3D('',#1480,#1218,#1219);
#995=AXIS2_PLACEMENT_3D('',#1484,#1222,#1223);
#996=AXIS2_PLACEMENT_3D('',#1488,#1226,#1227);
#997=AXIS2_PLACEMENT_3D('',#1492,#1230,#1231);
#998=AXIS2_PLACEMENT_3D('',#1496,#1234,#1235);
#999=AXIS2_PLACEMENT_3D('',#1500,#1238,#1239);
#1000=AXIS2_PLACEMENT_3D('',#1502,#1241,#1242);
#1001=AXIS2_PLACEMENT_3D('',#1505,#1245,#1246);
#1002=AXIS2_PLACEMENT_3D('',#1509,#1249,#1250);
#1003=AXIS2_PLACEMENT_3D('',#1513,#1253,#1254);
#1004=AXIS2_PLACEMENT_3D('',#1517,#1257,#1258);
#1005=AXIS2_PLACEMENT_3D('',#1521,#1261,#1262);
#1006=AXIS2_PLACEMENT_3D('',#1525,#1265,#1266);
#1007=AXIS2_PLACEMENT_3D('',#1527,#1268,#1269);
#1008=AXIS2_PLACEMENT_3D('',#1528,#1270,#1271);
#1009=AXIS2_PLACEMENT_3D('',#1529,#1272,#1273);
#1010=DIRECTION('axis',(0.,0.,1.));
#1011=DIRECTION('refdir',(1.,0.,0.));
#1012=DIRECTION('center_axis',(0.,1.,0.));
#1013=DIRECTION('ref_axis',(0.707106781186551,0.,-0.707106781186544));
#1014=DIRECTION('center_axis',(0.,1.,0.));
#1015=DIRECTION('ref_axis',(0.707106781186551,0.,-0.707106781186544));
#1016=DIRECTION('',(0.,1.,0.));
#1017=DIRECTION('center_axis',(0.,1.,0.));
#1018=DIRECTION('ref_axis',(0.707106781186551,0.,-0.707106781186544));
#1019=DIRECTION('',(0.,-1.,0.));
#1020=DIRECTION('center_axis',(-1.,0.,0.));
#1021=DIRECTION('ref_axis',(0.,0.,1.));
#1022=DIRECTION('',(0.,0.,-1.));
#1023=DIRECTION('',(0.,-1.,0.));
#1024=DIRECTION('',(0.,0.,1.));
#1025=DIRECTION('center_axis',(0.,1.,0.));
#1026=DIRECTION('ref_axis',(0.707106781186546,0.,0.707106781186549));
#1027=DIRECTION('center_axis',(0.,1.,0.));
#1028=DIRECTION('ref_axis',(0.707106781186546,0.,0.707106781186549));
#1029=DIRECTION('',(0.,1.,0.));
#1030=DIRECTION('center_axis',(0.,1.,0.));
#1031=DIRECTION('ref_axis',(0.707106781186546,0.,0.707106781186549));
#1032=DIRECTION('center_axis',(0.,0.,-1.));
#1033=DIRECTION('ref_axis',(-1.,0.,0.));
#1034=DIRECTION('',(1.,0.,0.));
#1035=DIRECTION('',(0.,-1.,0.));
#1036=DIRECTION('',(-1.,0.,0.));
#1037=DIRECTION('center_axis',(0.,1.,0.));
#1038=DIRECTION('ref_axis',(-0.707106781186547,0.,0.707106781186548));
#1039=DIRECTION('center_axis',(0.,1.,0.));
#1040=DIRECTION('ref_axis',(-0.707106781186547,0.,0.707106781186548));
#1041=DIRECTION('',(0.,1.,0.));
#1042=DIRECTION('center_axis',(0.,1.,0.));
#1043=DIRECTION('ref_axis',(-0.707106781186547,0.,0.707106781186548));
#1044=DIRECTION('center_axis',(1.,0.,-8.92143501930929E-17));
#1045=DIRECTION('ref_axis',(-8.92143501930929E-17,0.,-1.));
#1046=DIRECTION('',(8.92143501930929E-17,0.,1.));
#1047=DIRECTION('',(0.,-1.,0.));
#1048=DIRECTION('',(-8.92143501930929E-17,0.,-1.));
#1049=DIRECTION('center_axis',(0.,1.,0.));
#1050=DIRECTION('ref_axis',(-0.707106781186546,0.,-0.707106781186549));
#1051=DIRECTION('center_axis',(0.,1.,0.));
#1052=DIRECTION('ref_axis',(-0.707106781186546,0.,-0.707106781186549));
#1053=DIRECTION('',(0.,1.,0.));
#1054=DIRECTION('center_axis',(0.,1.,0.));
#1055=DIRECTION('ref_axis',(-0.707106781186546,0.,-0.707106781186549));
#1056=DIRECTION('center_axis',(0.,1.,0.));
#1057=DIRECTION('ref_axis',(0.,0.,1.));
#1058=DIRECTION('',(-1.,0.,0.));
#1059=DIRECTION('center_axis',(0.,-1.,0.));
#1060=DIRECTION('ref_axis',(-1.,0.,0.));
#1061=DIRECTION('center_axis',(0.408248290463863,-0.408248290463863,-0.816496580927726));
#1062=DIRECTION('ref_axis',(0.577350269189626,-0.577350269189626,0.577350269189625));
#1063=DIRECTION('center_axis',(0.,-1.,0.));
#1064=DIRECTION('ref_axis',(0.,0.,1.));
#1065=DIRECTION('center_axis',(1.,0.,0.));
#1066=DIRECTION('ref_axis',(0.,-1.,0.));
#1067=DIRECTION('center_axis',(0.,0.,1.));
#1068=DIRECTION('ref_axis',(1.,0.,0.));
#1069=DIRECTION('center_axis',(-0.408248290463863,-0.816496580927726,0.408248290463863));
#1070=DIRECTION('ref_axis',(0.577350269189626,-0.577350269189625,-0.577350269189626));
#1071=DIRECTION('center_axis',(0.,-1.,0.));
#1072=DIRECTION('ref_axis',(1.,0.,0.));
#1073=DIRECTION('center_axis',(0.,0.,-1.));
#1074=DIRECTION('ref_axis',(0.,-1.,0.));
#1075=DIRECTION('center_axis',(1.,0.,0.));
#1076=DIRECTION('ref_axis',(0.,0.,-1.));
#1077=DIRECTION('center_axis',(0.,0.,-1.));
#1078=DIRECTION('ref_axis',(0.707106781186548,-0.707106781186547,0.));
#1079=DIRECTION('',(0.,0.,1.));
#1080=DIRECTION('',(0.,0.,-1.));
#1081=DIRECTION('center_axis',(0.408248290463862,-0.816496580927726,-0.408248290463863));
#1082=DIRECTION('ref_axis',(-0.577350269189625,-0.577350269189626,0.577350269189627));
#1083=DIRECTION('center_axis',(0.,-1.,0.));
#1084=DIRECTION('ref_axis',(-1.,0.,0.));
#1085=DIRECTION('center_axis',(0.,0.,1.));
#1086=DIRECTION('ref_axis',(0.,-1.,0.));
#1087=DIRECTION('center_axis',(-1.,0.,0.));
#1088=DIRECTION('ref_axis',(0.,0.,1.));
#1089=DIRECTION('center_axis',(0.408248290463863,-0.816496580927726,0.408248290463863));
#1090=DIRECTION('ref_axis',(-0.577350269189625,-0.577350269189626,-0.577350269189626));
#1091=DIRECTION('center_axis',(-1.,0.,0.));
#1092=DIRECTION('ref_axis',(0.,-1.,0.));
#1093=DIRECTION('center_axis',(0.,0.,-1.));
#1094=DIRECTION('ref_axis',(-1.,0.,0.));
#1095=DIRECTION('center_axis',(0.,-1.,0.));
#1096=DIRECTION('ref_axis',(0.,0.,-1.));
#1097=DIRECTION('center_axis',(-3.37037740267766E-33,0.,1.));
#1098=DIRECTION('ref_axis',(-0.707106781186547,-0.707106781186548,0.));
#1099=DIRECTION('',(3.37037740267766E-33,0.,-1.));
#1100=DIRECTION('',(-3.37037740267766E-33,0.,1.));
#1101=DIRECTION('center_axis',(0.,1.,0.));
#1102=DIRECTION('ref_axis',(-0.707106781186547,0.,-0.707106781186548));
#1103=DIRECTION('center_axis',(0.,-1.,0.));
#1104=DIRECTION('ref_axis',(-0.707106781186547,0.,-0.707106781186548));
#1105=DIRECTION('',(0.,-1.,0.));
#1106=DIRECTION('',(0.,1.,0.));
#1107=DIRECTION('center_axis',(-1.,0.,0.));
#1108=DIRECTION('ref_axis',(0.,-0.707106781186547,-0.707106781186548));
#1109=DIRECTION('',(1.,0.,0.));
#1110=DIRECTION('',(-1.,0.,0.));
#1111=DIRECTION('center_axis',(1.,0.,-3.37037740267766E-33));
#1112=DIRECTION('ref_axis',(0.,-0.707106781186548,0.707106781186547));
#1113=DIRECTION('',(-1.,0.,3.37037740267766E-33));
#1114=DIRECTION('',(1.,0.,-3.37037740267766E-33));
#1115=DIRECTION('center_axis',(0.,1.,0.));
#1116=DIRECTION('ref_axis',(-0.707106781186548,0.,0.707106781186547));
#1117=DIRECTION('center_axis',(0.,-1.,0.));
#1118=DIRECTION('ref_axis',(-0.707106781186548,0.,0.707106781186547));
#1119=DIRECTION('',(0.,-1.,0.));
#1120=DIRECTION('',(0.,1.,0.));
#1121=DIRECTION('center_axis',(0.,1.,0.));
#1122=DIRECTION('ref_axis',(0.707106781186548,0.,-0.707106781186548));
#1123=DIRECTION('center_axis',(0.,-1.,0.));
#1124=DIRECTION('ref_axis',(0.707106781186548,0.,-0.707106781186548));
#1125=DIRECTION('',(0.,-1.,0.));
#1126=DIRECTION('',(0.,1.,0.));
#1127=DIRECTION('center_axis',(0.,1.,0.));
#1128=DIRECTION('ref_axis',(0.707106781186548,0.,0.707106781186547));
#1129=DIRECTION('center_axis',(0.,-1.,0.));
#1130=DIRECTION('ref_axis',(0.707106781186548,0.,0.707106781186547));
#1131=DIRECTION('',(0.,-1.,0.));
#1132=DIRECTION('',(0.,1.,0.));
#1133=DIRECTION('center_axis',(-1.,0.,-3.37037740267766E-33));
#1134=DIRECTION('ref_axis',(-3.37037740267766E-33,0.,1.));
#1135=DIRECTION('',(-3.37037740267766E-33,0.,1.));
#1136=DIRECTION('center_axis',(3.37037740267766E-33,0.,1.));
#1137=DIRECTION('ref_axis',(1.,0.,-3.37037740267766E-33));
#1138=DIRECTION('',(1.,0.,0.));
#1139=DIRECTION('center_axis',(0.,1.,0.));
#1140=DIRECTION('ref_axis',(1.,0.,0.));
#1141=DIRECTION('center_axis',(0.,-1.,0.));
#1142=DIRECTION('ref_axis',(-1.,0.,0.));
#1143=DIRECTION('center_axis',(0.,-1.,0.));
#1144=DIRECTION('ref_axis',(-1.,0.,0.));
#1145=DIRECTION('',(0.707106781186548,-0.707106781186548,-8.65956056235493E-17));
#1146=DIRECTION('center_axis',(0.,1.,0.));
#1147=DIRECTION('ref_axis',(-1.,0.,0.));
#1148=DIRECTION('center_axis',(0.,1.,0.));
#1149=DIRECTION('ref_axis',(-1.,0.,0.));
#1150=DIRECTION('',(4.11193712824132E-15,0.,-1.));
#1151=DIRECTION('',(1.,0.,9.25185853854301E-16));
#1152=DIRECTION('',(0.,0.,1.));
#1153=DIRECTION('',(1.,0.,7.65671051465626E-16));
#1154=DIRECTION('',(-3.96508223080413E-15,0.,1.));
#1155=DIRECTION('',(-1.,0.,1.53134210293125E-15));
#1156=DIRECTION('',(8.22387425648264E-15,0.,1.));
#1157=DIRECTION('',(-1.,0.,3.70074341541719E-15));
#1158=DIRECTION('',(0.,0.,-1.));
#1159=DIRECTION('',(-1.,0.,8.22387425648261E-16));
#1160=DIRECTION('',(0.,0.,-1.));
#1161=DIRECTION('',(1.,0.,-8.22387425648264E-16));
#1162=DIRECTION('center_axis',(0.,1.,0.));
#1163=DIRECTION('ref_axis',(-1.,0.,0.));
#1164=DIRECTION('',(0.,-1.,0.));
#1165=DIRECTION('center_axis',(-0.707106781186548,0.707106781186548,-2.90757862719218E-15));
#1166=DIRECTION('ref_axis',(-4.11193712824132E-15,0.,1.));
#1167=DIRECTION('',(-0.577350269189625,-0.577350269189628,-0.577350269189625));
#1168=DIRECTION('',(-4.11193712824132E-15,0.,1.));
#1169=DIRECTION('',(-0.577350269189624,-0.577350269189627,-0.577350269189627));
#1170=DIRECTION('center_axis',(-5.81515725438436E-16,0.707106781186546,
-0.70710678118655));
#1171=DIRECTION('ref_axis',(-1.,0.,8.22387425648264E-16));
#1172=DIRECTION('',(-0.577350269189627,-0.577350269189627,-0.577350269189624));
#1173=DIRECTION('',(-1.,0.,8.22387425648264E-16));
#1174=DIRECTION('center_axis',(-0.707106781186548,0.707106781186548,0.));
#1175=DIRECTION('ref_axis',(0.,0.,1.));
#1176=DIRECTION('',(-0.577350269189626,-0.577350269189626,0.577350269189626));
#1177=DIRECTION('',(0.,0.,1.));
#1178=DIRECTION('center_axis',(5.81515725438433E-16,0.707106781186548,0.707106781186548));
#1179=DIRECTION('ref_axis',(1.,0.,-8.22387425648261E-16));
#1180=DIRECTION('',(-0.577350269189626,-0.577350269189626,0.577350269189626));
#1181=DIRECTION('',(1.,0.,-8.22387425648261E-16));
#1182=DIRECTION('center_axis',(-0.707106781186548,0.707106781186548,0.));
#1183=DIRECTION('ref_axis',(0.,0.,1.));
#1184=DIRECTION('',(-0.577350269189626,-0.577350269189626,0.577350269189626));
#1185=DIRECTION('',(0.,0.,1.));
#1186=DIRECTION('center_axis',(2.61682076447296E-15,0.707106781186548,0.707106781186548));
#1187=DIRECTION('ref_axis',(1.,0.,-3.70074341541719E-15));
#1188=DIRECTION('',(0.57735026918963,-0.577350269189627,0.57735026918962));
#1189=DIRECTION('',(1.,0.,-3.70074341541719E-15));
#1190=DIRECTION('center_axis',(0.707106781186548,0.707106781186548,-5.81515725438435E-15));
#1191=DIRECTION('ref_axis',(-8.22387425648264E-15,0.,-1.));
#1192=DIRECTION('',(0.577350269189629,-0.577350269189626,0.577350269189623));
#1193=DIRECTION('',(-8.22387425648264E-15,0.,-1.));
#1194=DIRECTION('center_axis',(1.08282238529915E-15,0.707106781186548,0.707106781186548));
#1195=DIRECTION('ref_axis',(1.,0.,-1.53134210293125E-15));
#1196=DIRECTION('',(1.,0.,-1.53134210293125E-15));
#1197=DIRECTION('',(0.577350269189625,-0.577350269189628,0.577350269189625));
#1198=DIRECTION('center_axis',(0.70710678118655,0.707106781186546,2.80373653336389E-15));
#1199=DIRECTION('ref_axis',(3.96508223080413E-15,0.,-1.));
#1200=DIRECTION('',(3.96508223080413E-15,0.,-1.));
#1201=DIRECTION('',(0.577350269189626,-0.577350269189626,-0.577350269189626));
#1202=DIRECTION('center_axis',(5.41411192649578E-16,0.707106781186548,-0.707106781186548));
#1203=DIRECTION('ref_axis',(-1.,0.,-7.65671051465626E-16));
#1204=DIRECTION('',(-1.,0.,-7.65671051465626E-16));
#1205=DIRECTION('',(0.577350269189626,-0.577350269189626,-0.577350269189626));
#1206=DIRECTION('center_axis',(0.707106781186548,0.707106781186548,0.));
#1207=DIRECTION('ref_axis',(0.,0.,-1.));
#1208=DIRECTION('',(0.,0.,-1.));
#1209=DIRECTION('',(0.577350269189626,-0.577350269189626,-0.577350269189626));
#1210=DIRECTION('center_axis',(6.54205191118242E-16,0.707106781186548,-0.707106781186548));
#1211=DIRECTION('ref_axis',(-1.,0.,-9.25185853854301E-16));
#1212=DIRECTION('',(-1.,0.,-9.25185853854301E-16));
#1213=DIRECTION('center_axis',(1.53134210293125E-15,0.,1.));
#1214=DIRECTION('ref_axis',(1.,0.,-1.53134210293125E-15));
#1215=DIRECTION('',(0.,1.,0.));
#1216=DIRECTION('',(-1.,0.,1.53134210293125E-15));
#1217=DIRECTION('',(0.,1.,0.));
#1218=DIRECTION('center_axis',(1.,0.,3.96508223080413E-15));
#1219=DIRECTION('ref_axis',(3.96508223080413E-15,0.,-1.));
#1220=DIRECTION('',(0.,1.,0.));
#1221=DIRECTION('',(-3.96508223080413E-15,0.,1.));
#1222=DIRECTION('center_axis',(7.65671051465626E-16,0.,-1.));
#1223=DIRECTION('ref_axis',(-1.,0.,-7.65671051465626E-16));
#1224=DIRECTION('',(0.,1.,0.));
#1225=DIRECTION('',(1.,0.,7.65671051465626E-16));
#1226=DIRECTION('center_axis',(1.,0.,0.));
#1227=DIRECTION('ref_axis',(0.,0.,-1.));
#1228=DIRECTION('',(0.,1.,0.));
#1229=DIRECTION('',(0.,0.,1.));
#1230=DIRECTION('center_axis',(9.25185853854301E-16,0.,-1.));
#1231=DIRECTION('ref_axis',(-1.,0.,-9.25185853854301E-16));
#1232=DIRECTION('',(0.,1.,0.));
#1233=DIRECTION('',(1.,0.,9.25185853854301E-16));
#1234=DIRECTION('center_axis',(-1.,0.,-4.11193712824132E-15));
#1235=DIRECTION('ref_axis',(-4.11193712824132E-15,0.,1.));
#1236=DIRECTION('',(0.,1.,0.));
#1237=DIRECTION('',(4.11193712824132E-15,0.,-1.));
#1238=DIRECTION('center_axis',(0.,0.,1.));
#1239=DIRECTION('ref_axis',(1.,0.,0.));
#1240=DIRECTION('',(1.,0.,0.));
#1241=DIRECTION('center_axis',(0.,1.,0.));
#1242=DIRECTION('ref_axis',(0.,0.,1.));
#1243=DIRECTION('',(0.,0.,-1.));
#1244=DIRECTION('',(-1.,0.,0.));
#1245=DIRECTION('center_axis',(-8.22387425648263E-16,0.,-1.));
#1246=DIRECTION('ref_axis',(-1.,0.,8.22387425648264E-16));
#1247=DIRECTION('',(0.,1.,0.));
#1248=DIRECTION('',(1.,0.,-8.22387425648264E-16));
#1249=DIRECTION('center_axis',(-1.,0.,0.));
#1250=DIRECTION('ref_axis',(0.,0.,1.));
#1251=DIRECTION('',(0.,1.,0.));
#1252=DIRECTION('',(0.,0.,-1.));
#1253=DIRECTION('center_axis',(8.22387425648261E-16,0.,1.));
#1254=DIRECTION('ref_axis',(1.,0.,-8.22387425648261E-16));
#1255=DIRECTION('',(0.,1.,0.));
#1256=DIRECTION('',(-1.,0.,8.22387425648261E-16));
#1257=DIRECTION('center_axis',(-1.,0.,0.));
#1258=DIRECTION('ref_axis',(0.,0.,1.));
#1259=DIRECTION('',(0.,1.,0.));
#1260=DIRECTION('',(0.,0.,-1.));
#1261=DIRECTION('center_axis',(3.70074341541719E-15,0.,1.));
#1262=DIRECTION('ref_axis',(1.,0.,-3.70074341541719E-15));
#1263=DIRECTION('',(0.,1.,0.));
#1264=DIRECTION('',(-1.,0.,3.70074341541719E-15));
#1265=DIRECTION('center_axis',(1.,0.,-8.22387425648264E-15));
#1266=DIRECTION('ref_axis',(-8.22387425648264E-15,0.,-1.));
#1267=DIRECTION('',(8.22387425648264E-15,0.,1.));
#1268=DIRECTION('center_axis',(0.,0.,-1.));
#1269=DIRECTION('ref_axis',(-1.,0.,0.));
#1270=DIRECTION('center_axis',(1.,0.,0.));
#1271=DIRECTION('ref_axis',(0.,0.,-1.));
#1272=DIRECTION('center_axis',(0.,1.,0.));
#1273=DIRECTION('ref_axis',(0.,0.,1.));
#1274=CARTESIAN_POINT('',(0.,0.,0.));
#1275=CARTESIAN_POINT('Origin',(14.5,1.,-14.5));
#1276=CARTESIAN_POINT('',(15.,1.,-14.5));
#1277=CARTESIAN_POINT('',(14.5,1.,-15.));
#1278=CARTESIAN_POINT('Origin',(14.5,1.,-14.5));
#1279=CARTESIAN_POINT('',(15.,6.,-14.5));
#1280=CARTESIAN_POINT('',(15.,1.,-14.5));
#1281=CARTESIAN_POINT('',(14.5,6.,-15.));
#1282=CARTESIAN_POINT('Origin',(14.5,6.,-14.5));
#1283=CARTESIAN_POINT('',(14.5,1.,-15.));
#1284=CARTESIAN_POINT('Origin',(15.,1.,-15.));
#1285=CARTESIAN_POINT('',(15.,1.,-1.5));
#1286=CARTESIAN_POINT('',(15.,1.,-11.5));
#1287=CARTESIAN_POINT('',(15.,6.,-1.5));
#1288=CARTESIAN_POINT('',(15.,1.,-1.5));
#1289=CARTESIAN_POINT('',(15.,6.,-15.));
#1290=CARTESIAN_POINT('Origin',(14.5,1.,-1.5));
#1291=CARTESIAN_POINT('',(14.5,1.,-1.));
#1292=CARTESIAN_POINT('Origin',(14.5,1.,-1.5));
#1293=CARTESIAN_POINT('',(14.5,6.,-1.));
#1294=CARTESIAN_POINT('',(14.5,1.,-1.));
#1295=CARTESIAN_POINT('Origin',(14.5,6.,-1.5));
#1296=CARTESIAN_POINT('Origin',(15.,1.,-1.));
#1297=CARTESIAN_POINT('',(1.5,1.,-1.));
#1298=CARTESIAN_POINT('',(11.5,1.,-1.));
#1299=CARTESIAN_POINT('',(1.5,6.,-1.));
#1300=CARTESIAN_POINT('',(1.5,1.,-1.));
#1301=CARTESIAN_POINT('',(15.,6.,-1.));
#1302=CARTESIAN_POINT('Origin',(1.5,1.,-1.5));
#1303=CARTESIAN_POINT('',(1.,1.,-1.5));
#1304=CARTESIAN_POINT('Origin',(1.5,1.,-1.5));
#1305=CARTESIAN_POINT('',(1.,6.,-1.5));
#1306=CARTESIAN_POINT('',(1.,1.,-1.5));
#1307=CARTESIAN_POINT('Origin',(1.5,6.,-1.5));
#1308=CARTESIAN_POINT('Origin',(1.,1.,-1.));
#1309=CARTESIAN_POINT('',(1.,1.,-14.5));
#1310=CARTESIAN_POINT('',(1.,1.,-4.5));
#1311=CARTESIAN_POINT('',(1.,6.,-14.5));
#1312=CARTESIAN_POINT('',(1.,1.,-14.5));
#1313=CARTESIAN_POINT('',(1.,6.,-1.));
#1314=CARTESIAN_POINT('Origin',(1.5,1.,-14.5));
#1315=CARTESIAN_POINT('',(1.5,1.,-15.));
#1316=CARTESIAN_POINT('Origin',(1.5,1.,-14.5));
#1317=CARTESIAN_POINT('',(1.5,6.,-15.));
#1318=CARTESIAN_POINT('',(1.5,1.,-15.));
#1319=CARTESIAN_POINT('Origin',(1.5,6.,-14.5));
#1320=CARTESIAN_POINT('Origin',(8.,1.,-8.));
#1321=CARTESIAN_POINT('',(4.5,1.,-15.));
#1322=CARTESIAN_POINT('',(11.8,1.,-7.95));
#1323=CARTESIAN_POINT('Origin',(8.05,1.,-7.95));
#1324=CARTESIAN_POINT('Origin',(15.,1.,-1.));
#1325=CARTESIAN_POINT('',(15.,1.,-3.70741514294543E-32));
#1326=CARTESIAN_POINT('',(16.,1.,-1.));
#1327=CARTESIAN_POINT('Origin',(15.,1.,-1.));
#1328=CARTESIAN_POINT('',(15.,0.,-1.));
#1329=CARTESIAN_POINT('Origin',(15.,1.,-1.));
#1330=CARTESIAN_POINT('Origin',(15.,1.,-1.));
#1331=CARTESIAN_POINT('Origin',(15.,1.,-15.));
#1332=CARTESIAN_POINT('',(16.,1.,-15.));
#1333=CARTESIAN_POINT('',(15.,1.,-16.));
#1334=CARTESIAN_POINT('Origin',(15.,1.,-15.));
#1335=CARTESIAN_POINT('',(15.,0.,-15.));
#1336=CARTESIAN_POINT('Origin',(15.,1.,-15.));
#1337=CARTESIAN_POINT('Origin',(15.,1.,-15.));
#1338=CARTESIAN_POINT('Origin',(15.,1.,-4.));
#1339=CARTESIAN_POINT('',(16.,1.,-4.));
#1340=CARTESIAN_POINT('',(15.,0.,-4.));
#1341=CARTESIAN_POINT('Origin',(1.,1.,-1.));
#1342=CARTESIAN_POINT('',(-3.70741514294543E-32,1.,-1.));
#1343=CARTESIAN_POINT('',(1.,1.,0.));
#1344=CARTESIAN_POINT('Origin',(1.,1.,-1.));
#1345=CARTESIAN_POINT('',(1.,0.,-1.));
#1346=CARTESIAN_POINT('Origin',(1.,1.,-1.));
#1347=CARTESIAN_POINT('Origin',(1.,1.,-1.));
#1348=CARTESIAN_POINT('Origin',(1.,1.,-15.));
#1349=CARTESIAN_POINT('',(1.,0.,-15.));
#1350=CARTESIAN_POINT('',(1.,1.,-16.));
#1351=CARTESIAN_POINT('Origin',(1.,1.,-15.));
#1352=CARTESIAN_POINT('',(0.,1.,-15.));
#1353=CARTESIAN_POINT('Origin',(1.,1.,-15.));
#1354=CARTESIAN_POINT('Origin',(1.,1.,-15.));
#1355=CARTESIAN_POINT('Origin',(1.,1.,-12.));
#1356=CARTESIAN_POINT('',(0.,1.,-12.));
#1357=CARTESIAN_POINT('',(1.,0.,-12.));
#1358=CARTESIAN_POINT('Origin',(1.,0.,-15.));
#1359=CARTESIAN_POINT('',(5.05556610401649E-32,6.,-15.));
#1360=CARTESIAN_POINT('',(1.,6.,-16.));
#1361=CARTESIAN_POINT('Origin',(1.,6.,-15.));
#1362=CARTESIAN_POINT('',(1.,0.,-16.));
#1363=CARTESIAN_POINT('',(0.,0.,-15.));
#1364=CARTESIAN_POINT('Origin',(12.,1.,-15.));
#1365=CARTESIAN_POINT('',(12.,1.,-16.));
#1366=CARTESIAN_POINT('',(12.,0.,-15.));
#1367=CARTESIAN_POINT('Origin',(4.,1.,-1.));
#1368=CARTESIAN_POINT('',(4.,1.,0.));
#1369=CARTESIAN_POINT('',(4.,0.,-1.));
#1370=CARTESIAN_POINT('Origin',(1.,0.,-1.));
#1371=CARTESIAN_POINT('',(1.,6.,0.));
#1372=CARTESIAN_POINT('',(3.37037740267766E-33,6.,-1.));
#1373=CARTESIAN_POINT('Origin',(1.,6.,-1.));
#1374=CARTESIAN_POINT('',(0.,0.,-1.));
#1375=CARTESIAN_POINT('',(1.,0.,0.));
#1376=CARTESIAN_POINT('Origin',(15.,0.,-15.));
#1377=CARTESIAN_POINT('',(15.,6.,-16.));
#1378=CARTESIAN_POINT('',(16.,6.,-15.));
#1379=CARTESIAN_POINT('Origin',(15.,6.,-15.));
#1380=CARTESIAN_POINT('',(16.,0.,-15.));
#1381=CARTESIAN_POINT('',(15.,0.,-16.));
#1382=CARTESIAN_POINT('Origin',(15.,0.,-1.));
#1383=CARTESIAN_POINT('',(16.,6.,-1.));
#1384=CARTESIAN_POINT('',(15.,6.,0.));
#1385=CARTESIAN_POINT('Origin',(15.,6.,-1.));
#1386=CARTESIAN_POINT('',(15.,0.,0.));
#1387=CARTESIAN_POINT('',(16.,0.,-1.));
#1388=CARTESIAN_POINT('Origin',(5.39260384428426E-32,0.,-16.));
#1389=CARTESIAN_POINT('',(0.,6.,0.));
#1390=CARTESIAN_POINT('Origin',(0.,0.,0.));
#1391=CARTESIAN_POINT('',(16.,6.,0.));
#1392=CARTESIAN_POINT('Origin',(8.,0.,-8.));
#1393=CARTESIAN_POINT('Origin',(8.05,5.9,-7.95));
#1394=CARTESIAN_POINT('',(11.6,6.,-7.95));
#1395=CARTESIAN_POINT('Origin',(8.05,6.,-7.95));
#1396=CARTESIAN_POINT('',(11.8,5.8,-7.95));
#1397=CARTESIAN_POINT('',(11.7,5.9,-7.95));
#1398=CARTESIAN_POINT('Origin',(8.05,5.8,-7.95));
#1399=CARTESIAN_POINT('Origin',(8.05,6.,-7.95));
#1400=CARTESIAN_POINT('',(8.84999999999999,6.,-5.69999999999999));
#1401=CARTESIAN_POINT('',(8.85,6.,-7.05));
#1402=CARTESIAN_POINT('',(8.85,6.,-7.59999999999999));
#1403=CARTESIAN_POINT('',(7.25,6.,-5.7));
#1404=CARTESIAN_POINT('',(8.34999999999999,6.,-5.69999999999999));
#1405=CARTESIAN_POINT('',(7.25,6.,-7.05));
#1406=CARTESIAN_POINT('',(7.25,6.,-6.925));
#1407=CARTESIAN_POINT('',(5.8,6.,-7.05));
#1408=CARTESIAN_POINT('',(7.75,6.,-7.05));
#1409=CARTESIAN_POINT('',(5.80000000000001,6.,-8.85));
#1410=CARTESIAN_POINT('',(5.8,6.,-7.6));
#1411=CARTESIAN_POINT('',(7.25000000000001,6.,-8.85));
#1412=CARTESIAN_POINT('',(7.025,6.,-8.85));
#1413=CARTESIAN_POINT('',(7.24999999999999,6.,-10.2));
#1414=CARTESIAN_POINT('',(7.25000000000001,6.,-8.3));
#1415=CARTESIAN_POINT('',(8.85,6.,-10.2));
#1416=CARTESIAN_POINT('',(7.74999999999999,6.,-10.2));
#1417=CARTESIAN_POINT('',(8.85,6.,-8.85));
#1418=CARTESIAN_POINT('',(8.85,6.,-8.975));
#1419=CARTESIAN_POINT('',(10.2,6.,-8.85));
#1420=CARTESIAN_POINT('',(8.35,6.,-8.85));
#1421=CARTESIAN_POINT('',(10.2,6.,-7.05));
#1422=CARTESIAN_POINT('',(10.2,6.,-8.3));
#1423=CARTESIAN_POINT('',(9.025,6.,-7.05));
#1424=CARTESIAN_POINT('Origin',(8.05,1.,-7.95));
#1425=CARTESIAN_POINT('',(11.8,1.,-7.95));
#1426=CARTESIAN_POINT('Origin',(8.75,5.9,-7.6));
#1427=CARTESIAN_POINT('',(8.65,5.8,-7.25));
#1428=CARTESIAN_POINT('',(8.85,6.,-7.05));
#1429=CARTESIAN_POINT('',(8.64999999999999,5.8,-5.9));
#1430=CARTESIAN_POINT('',(8.65,5.8,-7.6));
#1431=CARTESIAN_POINT('',(8.84999999999999,6.,-5.69999999999999));
#1432=CARTESIAN_POINT('Origin',(9.025,5.9,-7.15));
#1433=CARTESIAN_POINT('',(10.,5.8,-7.25));
#1434=CARTESIAN_POINT('',(10.2,6.,-7.05));
#1435=CARTESIAN_POINT('',(9.025,5.8,-7.25));
#1436=CARTESIAN_POINT('Origin',(10.1,5.9,-8.3));
#1437=CARTESIAN_POINT('',(10.,5.8,-8.65));
#1438=CARTESIAN_POINT('',(10.2,6.,-8.85));
#1439=CARTESIAN_POINT('',(10.,5.8,-8.3));
#1440=CARTESIAN_POINT('Origin',(8.35,5.9,-8.75));
#1441=CARTESIAN_POINT('',(8.65,5.8,-8.65));
#1442=CARTESIAN_POINT('',(8.85,6.,-8.85));
#1443=CARTESIAN_POINT('',(8.35,5.8,-8.65));
#1444=CARTESIAN_POINT('Origin',(8.75,5.9,-8.975));
#1445=CARTESIAN_POINT('',(8.65,5.8,-10.));
#1446=CARTESIAN_POINT('',(8.85,6.,-10.2));
#1447=CARTESIAN_POINT('',(8.65,5.8,-8.975));
#1448=CARTESIAN_POINT('Origin',(7.74999999999999,5.9,-10.1));
#1449=CARTESIAN_POINT('',(7.45,5.8,-10.));
#1450=CARTESIAN_POINT('',(7.24999999999999,6.,-10.2));
#1451=CARTESIAN_POINT('',(7.74999999999999,5.8,-10.));
#1452=CARTESIAN_POINT('Origin',(7.35000000000001,5.9,-8.3));
#1453=CARTESIAN_POINT('',(7.45000000000001,5.8,-8.65));
#1454=CARTESIAN_POINT('',(7.25000000000001,6.,-8.85));
#1455=CARTESIAN_POINT('',(7.45000000000001,5.8,-8.3));
#1456=CARTESIAN_POINT('Origin',(7.025,5.9,-8.75));
#1457=CARTESIAN_POINT('',(6.00000000000001,5.8,-8.65));
#1458=CARTESIAN_POINT('',(7.025,5.8,-8.65));
#1459=CARTESIAN_POINT('',(5.80000000000001,6.,-8.85));
#1460=CARTESIAN_POINT('Origin',(5.9,5.9,-7.6));
#1461=CARTESIAN_POINT('',(6.,5.8,-7.25));
#1462=CARTESIAN_POINT('',(6.,5.8,-7.6));
#1463=CARTESIAN_POINT('',(5.8,6.,-7.05));
#1464=CARTESIAN_POINT('Origin',(7.75,5.9,-7.15));
#1465=CARTESIAN_POINT('',(7.45,5.8,-7.25));
#1466=CARTESIAN_POINT('',(7.75,5.8,-7.25));
#1467=CARTESIAN_POINT('',(7.25,6.,-7.05));
#1468=CARTESIAN_POINT('Origin',(7.35,5.9,-6.925));
#1469=CARTESIAN_POINT('',(7.45,5.8,-5.9));
#1470=CARTESIAN_POINT('',(7.45,5.8,-6.925));
#1471=CARTESIAN_POINT('',(7.25,6.,-5.7));
#1472=CARTESIAN_POINT('Origin',(8.34999999999999,5.9,-5.8));
#1473=CARTESIAN_POINT('',(8.34999999999999,5.8,-5.9));
#1474=CARTESIAN_POINT('Origin',(6.00000000000001,1.,-8.65));
#1475=CARTESIAN_POINT('',(6.00000000000001,1.,-8.65));
#1476=CARTESIAN_POINT('',(6.00000000000001,1.,-8.65));
#1477=CARTESIAN_POINT('',(7.45000000000001,1.,-8.65));
#1478=CARTESIAN_POINT('',(7.,1.,-8.65));
#1479=CARTESIAN_POINT('',(7.45000000000001,1.,-8.65));
#1480=CARTESIAN_POINT('Origin',(6.,1.,-7.25));
#1481=CARTESIAN_POINT('',(6.,1.,-7.25));
#1482=CARTESIAN_POINT('',(6.,1.,-7.25));
#1483=CARTESIAN_POINT('',(6.,1.,-7.625));
#1484=CARTESIAN_POINT('Origin',(7.45,1.,-7.25));
#1485=CARTESIAN_POINT('',(7.45,1.,-7.25));
#1486=CARTESIAN_POINT('',(7.45,1.,-7.25));
#1487=CARTESIAN_POINT('',(7.725,1.,-7.25));
#1488=CARTESIAN_POINT('Origin',(7.45,1.,-5.9));
#1489=CARTESIAN_POINT('',(7.45,1.,-5.9));
#1490=CARTESIAN_POINT('',(7.45,1.,-5.9));
#1491=CARTESIAN_POINT('',(7.45,1.,-6.95));
#1492=CARTESIAN_POINT('Origin',(8.64999999999999,1.,-5.9));
#1493=CARTESIAN_POINT('',(8.64999999999999,1.,-5.9));
#1494=CARTESIAN_POINT('',(8.64999999999999,1.,-5.9));
#1495=CARTESIAN_POINT('',(8.325,1.,-5.9));
#1496=CARTESIAN_POINT('Origin',(8.65,1.,-7.25));
#1497=CARTESIAN_POINT('',(8.65,1.,-7.25));
#1498=CARTESIAN_POINT('',(8.65,1.,-7.25));
#1499=CARTESIAN_POINT('',(8.65,1.,-7.625));
#1500=CARTESIAN_POINT('Origin',(1.,1.,-15.));
#1501=CARTESIAN_POINT('',(1.,6.,-15.));
#1502=CARTESIAN_POINT('Origin',(8.,6.,-8.));
#1503=CARTESIAN_POINT('',(16.,6.,-16.));
#1504=CARTESIAN_POINT('',(5.39260384428426E-32,6.,-16.));
#1505=CARTESIAN_POINT('Origin',(10.,1.,-7.25));
#1506=CARTESIAN_POINT('',(10.,1.,-7.25));
#1507=CARTESIAN_POINT('',(10.,1.,-7.25));
#1508=CARTESIAN_POINT('',(9.,1.,-7.25));
#1509=CARTESIAN_POINT('Origin',(10.,1.,-8.65));
#1510=CARTESIAN_POINT('',(10.,1.,-8.65));
#1511=CARTESIAN_POINT('',(10.,1.,-8.65));
#1512=CARTESIAN_POINT('',(10.,1.,-8.325));
#1513=CARTESIAN_POINT('Origin',(8.65,1.,-8.65));
#1514=CARTESIAN_POINT('',(8.65,1.,-8.65));
#1515=CARTESIAN_POINT('',(8.65,1.,-8.65));
#1516=CARTESIAN_POINT('',(8.325,1.,-8.65));
#1517=CARTESIAN_POINT('Origin',(8.65,1.,-10.));
#1518=CARTESIAN_POINT('',(8.65,1.,-10.));
#1519=CARTESIAN_POINT('',(8.65,1.,-10.));
#1520=CARTESIAN_POINT('',(8.65,1.,-9.));
#1521=CARTESIAN_POINT('Origin',(7.45,1.,-10.));
#1522=CARTESIAN_POINT('',(7.45,1.,-10.));
#1523=CARTESIAN_POINT('',(7.45,1.,-10.));
#1524=CARTESIAN_POINT('',(7.72499999999999,1.,-10.));
#1525=CARTESIAN_POINT('Origin',(7.45000000000001,1.,-8.65));
#1526=CARTESIAN_POINT('',(7.45000000000001,1.,-8.325));
#1527=CARTESIAN_POINT('Origin',(16.,0.,-16.));
#1528=CARTESIAN_POINT('Origin',(16.,0.,-5.39260384428426E-32));
#1529=CARTESIAN_POINT('Origin',(8.,1.,-8.));
#1530=UNCERTAINTY_MEASURE_WITH_UNIT(LENGTH_MEASURE(0.01),#1534,
'DISTANCE_ACCURACY_VALUE',
'Maximum model space distance between geometric entities at asserted c
onnectivities');
#1531=UNCERTAINTY_MEASURE_WITH_UNIT(LENGTH_MEASURE(0.01),#1534,
'DISTANCE_ACCURACY_VALUE',
'Maximum model space distance between geometric entities at asserted c
onnectivities');
#1532=(
GEOMETRIC_REPRESENTATION_CONTEXT(3)
GLOBAL_UNCERTAINTY_ASSIGNED_CONTEXT((#1530))
GLOBAL_UNIT_ASSIGNED_CONTEXT((#1534,#1536,#1537))
REPRESENTATION_CONTEXT('','3D')
);
#1533=(
GEOMETRIC_REPRESENTATION_CONTEXT(3)
GLOBAL_UNCERTAINTY_ASSIGNED_CONTEXT((#1531))
GLOBAL_UNIT_ASSIGNED_CONTEXT((#1534,#1536,#1537))
REPRESENTATION_CONTEXT('','3D')
);
#1534=(
LENGTH_UNIT()
NAMED_UNIT(*)
SI_UNIT(.MILLI.,.METRE.)
);
#1535=(
LENGTH_UNIT()
NAMED_UNIT(*)
SI_UNIT($,.METRE.)
);
#1536=(
NAMED_UNIT(*)
PLANE_ANGLE_UNIT()
SI_UNIT($,.RADIAN.)
);
#1537=(
NAMED_UNIT(*)
SI_UNIT($,.STERADIAN.)
SOLID_ANGLE_UNIT()
);
#1538=SHAPE_DEFINITION_REPRESENTATION(#1539,#1540);
#1539=PRODUCT_DEFINITION_SHAPE('',$,#1542);
#1540=SHAPE_REPRESENTATION('',(#927),#1532);
#1541=PRODUCT_DEFINITION_CONTEXT('part definition',#1546,'design');
#1542=PRODUCT_DEFINITION('2026-10-06-00-52-50-519','keycaps',#1543,#1541);
#1543=PRODUCT_DEFINITION_FORMATION('',$,#1548);
#1544=PRODUCT_RELATED_PRODUCT_CATEGORY('keycaps','keycaps',(#1548));
#1545=APPLICATION_PROTOCOL_DEFINITION('international standard',
'automotive_design',2009,#1546);
#1546=APPLICATION_CONTEXT(
'Core Data for Automotive Mechanical Design Process');
#1547=PRODUCT_CONTEXT('part definition',#1546,'mechanical');
#1548=PRODUCT('2026-10-06-00-52-50-519','keycaps',$,(#1547));
#1549=PRESENTATION_STYLE_ASSIGNMENT((#1551));
#1550=PRESENTATION_STYLE_ASSIGNMENT((#1552));
#1551=SURFACE_STYLE_USAGE(.BOTH.,#1553);
#1552=SURFACE_STYLE_USAGE(.BOTH.,#1554);
#1553=SURFACE_SIDE_STYLE('',(#1555));
#1554=SURFACE_SIDE_STYLE('',(#1556));
#1555=SURFACE_STYLE_FILL_AREA(#1557);
#1556=SURFACE_STYLE_FILL_AREA(#1558);
#1557=FILL_AREA_STYLE('Steel - Satin',(#1559));
#1558=FILL_AREA_STYLE('ABS (White)',(#1560));
#1559=FILL_AREA_STYLE_COLOUR('Steel - Satin',#1561);
#1560=FILL_AREA_STYLE_COLOUR('ABS (White)',#1562);
#1561=COLOUR_RGB('Steel - Satin',0.627450980392157,0.627450980392157,0.627450980392157);
#1562=COLOUR_RGB('ABS (White)',0.964705882352941,0.964705882352941,0.952941176470588);
ENDSEC;
END-ISO-10303-21;
