ISO-10303-21;
HEADER;
/* Generated by software containing ST-Developer
 * from STEP Tools, Inc. (www.steptools.com) 
 */

FILE_DESCRIPTION(
/* description */ (''),
/* implementation_level */ '2;1');

FILE_NAME(
/* name */ 'socket.step',
/* time_stamp */ '2026-10-07T23:33:25+05:30',
/* author */ (''),
/* organization */ (''),
/* preprocessor_version */ 'ST-DEVELOPER v20.2',
/* originating_system */ 'Autodesk Translation Framework v15.15.0.0',
/* authorisation */ '');

FILE_SCHEMA (('AUTOMOTIVE_DESIGN { 1 0 10303 214 3 1 1 }'));
ENDSEC;

DATA;
#10=MECHANICAL_DESIGN_GEOMETRIC_PRESENTATION_REPRESENTATION('',(#13),#1407);
#11=SHAPE_REPRESENTATION_RELATIONSHIP('SRR','None',#1414,#12);
#12=ADVANCED_BREP_SHAPE_REPRESENTATION('',(#14),#1406);
#13=STYLED_ITEM('',(#1424),#14);
#14=MANIFOLD_SOLID_BREP('Body1',#899);
#15=FACE_BOUND('',#116,.T.);
#16=FACE_BOUND('',#117,.T.);
#17=FACE_BOUND('',#118,.T.);
#18=FACE_BOUND('',#119,.T.);
#19=FACE_BOUND('',#120,.T.);
#20=FACE_BOUND('',#121,.T.);
#21=FACE_BOUND('',#122,.T.);
#22=FACE_BOUND('',#123,.T.);
#23=FACE_BOUND('',#124,.T.);
#24=FACE_BOUND('',#126,.T.);
#25=FACE_BOUND('',#127,.T.);
#26=FACE_BOUND('',#128,.T.);
#27=FACE_BOUND('',#129,.T.);
#28=FACE_BOUND('',#130,.T.);
#29=FACE_BOUND('',#131,.T.);
#30=FACE_BOUND('',#132,.T.);
#31=FACE_BOUND('',#133,.T.);
#32=FACE_BOUND('',#134,.T.);
#33=FACE_OUTER_BOUND('',#75,.T.);
#34=FACE_OUTER_BOUND('',#76,.T.);
#35=FACE_OUTER_BOUND('',#77,.T.);
#36=FACE_OUTER_BOUND('',#78,.T.);
#37=FACE_OUTER_BOUND('',#79,.T.);
#38=FACE_OUTER_BOUND('',#80,.T.);
#39=FACE_OUTER_BOUND('',#81,.T.);
#40=FACE_OUTER_BOUND('',#82,.T.);
#41=FACE_OUTER_BOUND('',#83,.T.);
#42=FACE_OUTER_BOUND('',#84,.T.);
#43=FACE_OUTER_BOUND('',#85,.T.);
#44=FACE_OUTER_BOUND('',#86,.T.);
#45=FACE_OUTER_BOUND('',#87,.T.);
#46=FACE_OUTER_BOUND('',#88,.T.);
#47=FACE_OUTER_BOUND('',#89,.T.);
#48=FACE_OUTER_BOUND('',#90,.T.);
#49=FACE_OUTER_BOUND('',#91,.T.);
#50=FACE_OUTER_BOUND('',#92,.T.);
#51=FACE_OUTER_BOUND('',#93,.T.);
#52=FACE_OUTER_BOUND('',#94,.T.);
#53=FACE_OUTER_BOUND('',#95,.T.);
#54=FACE_OUTER_BOUND('',#96,.T.);
#55=FACE_OUTER_BOUND('',#97,.T.);
#56=FACE_OUTER_BOUND('',#98,.T.);
#57=FACE_OUTER_BOUND('',#99,.T.);
#58=FACE_OUTER_BOUND('',#100,.T.);
#59=FACE_OUTER_BOUND('',#101,.T.);
#60=FACE_OUTER_BOUND('',#102,.T.);
#61=FACE_OUTER_BOUND('',#103,.T.);
#62=FACE_OUTER_BOUND('',#104,.T.);
#63=FACE_OUTER_BOUND('',#105,.T.);
#64=FACE_OUTER_BOUND('',#106,.T.);
#65=FACE_OUTER_BOUND('',#107,.T.);
#66=FACE_OUTER_BOUND('',#108,.T.);
#67=FACE_OUTER_BOUND('',#109,.T.);
#68=FACE_OUTER_BOUND('',#110,.T.);
#69=FACE_OUTER_BOUND('',#111,.T.);
#70=FACE_OUTER_BOUND('',#112,.T.);
#71=FACE_OUTER_BOUND('',#113,.T.);
#72=FACE_OUTER_BOUND('',#114,.T.);
#73=FACE_OUTER_BOUND('',#115,.T.);
#74=FACE_OUTER_BOUND('',#125,.T.);
#75=EDGE_LOOP('',(#575,#576,#577,#578));
#76=EDGE_LOOP('',(#579,#580,#581,#582));
#77=EDGE_LOOP('',(#583,#584,#585,#586));
#78=EDGE_LOOP('',(#587,#588,#589,#590));
#79=EDGE_LOOP('',(#591,#592,#593,#594));
#80=EDGE_LOOP('',(#595,#596,#597,#598));
#81=EDGE_LOOP('',(#599,#600,#601,#602));
#82=EDGE_LOOP('',(#603,#604,#605,#606));
#83=EDGE_LOOP('',(#607,#608,#609,#610));
#84=EDGE_LOOP('',(#611,#612,#613,#614));
#85=EDGE_LOOP('',(#615,#616,#617,#618));
#86=EDGE_LOOP('',(#619,#620,#621,#622));
#87=EDGE_LOOP('',(#623,#624,#625,#626));
#88=EDGE_LOOP('',(#627,#628,#629,#630));
#89=EDGE_LOOP('',(#631,#632,#633,#634));
#90=EDGE_LOOP('',(#635,#636,#637,#638));
#91=EDGE_LOOP('',(#639,#640,#641,#642));
#92=EDGE_LOOP('',(#643,#644,#645,#646));
#93=EDGE_LOOP('',(#647,#648,#649,#650));
#94=EDGE_LOOP('',(#651,#652,#653,#654));
#95=EDGE_LOOP('',(#655,#656,#657,#658));
#96=EDGE_LOOP('',(#659,#660,#661,#662));
#97=EDGE_LOOP('',(#663,#664,#665,#666));
#98=EDGE_LOOP('',(#667,#668,#669,#670));
#99=EDGE_LOOP('',(#671,#672,#673,#674));
#100=EDGE_LOOP('',(#675,#676,#677,#678));
#101=EDGE_LOOP('',(#679,#680,#681,#682));
#102=EDGE_LOOP('',(#683,#684,#685,#686));
#103=EDGE_LOOP('',(#687,#688,#689,#690));
#104=EDGE_LOOP('',(#691,#692,#693,#694));
#105=EDGE_LOOP('',(#695,#696,#697,#698));
#106=EDGE_LOOP('',(#699,#700,#701,#702));
#107=EDGE_LOOP('',(#703,#704,#705,#706));
#108=EDGE_LOOP('',(#707,#708,#709,#710));
#109=EDGE_LOOP('',(#711,#712,#713,#714));
#110=EDGE_LOOP('',(#715,#716,#717,#718));
#111=EDGE_LOOP('',(#719,#720,#721,#722));
#112=EDGE_LOOP('',(#723,#724,#725,#726));
#113=EDGE_LOOP('',(#727,#728,#729,#730));
#114=EDGE_LOOP('',(#731,#732,#733,#734));
#115=EDGE_LOOP('',(#735,#736,#737,#738));
#116=EDGE_LOOP('',(#739,#740,#741,#742));
#117=EDGE_LOOP('',(#743,#744,#745,#746));
#118=EDGE_LOOP('',(#747,#748,#749,#750));
#119=EDGE_LOOP('',(#751,#752,#753,#754));
#120=EDGE_LOOP('',(#755,#756,#757,#758));
#121=EDGE_LOOP('',(#759,#760,#761,#762));
#122=EDGE_LOOP('',(#763,#764,#765,#766));
#123=EDGE_LOOP('',(#767,#768,#769,#770));
#124=EDGE_LOOP('',(#771,#772,#773,#774));
#125=EDGE_LOOP('',(#775,#776,#777,#778));
#126=EDGE_LOOP('',(#779,#780,#781,#782));
#127=EDGE_LOOP('',(#783,#784,#785,#786));
#128=EDGE_LOOP('',(#787,#788,#789,#790));
#129=EDGE_LOOP('',(#791,#792,#793,#794));
#130=EDGE_LOOP('',(#795,#796,#797,#798));
#131=EDGE_LOOP('',(#799,#800,#801,#802));
#132=EDGE_LOOP('',(#803,#804,#805,#806));
#133=EDGE_LOOP('',(#807,#808,#809,#810));
#134=EDGE_LOOP('',(#811,#812,#813,#814));
#135=LINE('',#1165,#255);
#136=LINE('',#1167,#256);
#137=LINE('',#1169,#257);
#138=LINE('',#1170,#258);
#139=LINE('',#1173,#259);
#140=LINE('',#1175,#260);
#141=LINE('',#1176,#261);
#142=LINE('',#1179,#262);
#143=LINE('',#1181,#263);
#144=LINE('',#1182,#264);
#145=LINE('',#1184,#265);
#146=LINE('',#1185,#266);
#147=LINE('',#1189,#267);
#148=LINE('',#1191,#268);
#149=LINE('',#1193,#269);
#150=LINE('',#1194,#270);
#151=LINE('',#1197,#271);
#152=LINE('',#1199,#272);
#153=LINE('',#1200,#273);
#154=LINE('',#1203,#274);
#155=LINE('',#1205,#275);
#156=LINE('',#1206,#276);
#157=LINE('',#1208,#277);
#158=LINE('',#1209,#278);
#159=LINE('',#1213,#279);
#160=LINE('',#1215,#280);
#161=LINE('',#1217,#281);
#162=LINE('',#1218,#282);
#163=LINE('',#1221,#283);
#164=LINE('',#1223,#284);
#165=LINE('',#1224,#285);
#166=LINE('',#1227,#286);
#167=LINE('',#1229,#287);
#168=LINE('',#1230,#288);
#169=LINE('',#1232,#289);
#170=LINE('',#1233,#290);
#171=LINE('',#1237,#291);
#172=LINE('',#1239,#292);
#173=LINE('',#1241,#293);
#174=LINE('',#1242,#294);
#175=LINE('',#1245,#295);
#176=LINE('',#1247,#296);
#177=LINE('',#1248,#297);
#178=LINE('',#1251,#298);
#179=LINE('',#1253,#299);
#180=LINE('',#1254,#300);
#181=LINE('',#1256,#301);
#182=LINE('',#1257,#302);
#183=LINE('',#1261,#303);
#184=LINE('',#1263,#304);
#185=LINE('',#1265,#305);
#186=LINE('',#1266,#306);
#187=LINE('',#1269,#307);
#188=LINE('',#1271,#308);
#189=LINE('',#1272,#309);
#190=LINE('',#1275,#310);
#191=LINE('',#1277,#311);
#192=LINE('',#1278,#312);
#193=LINE('',#1280,#313);
#194=LINE('',#1281,#314);
#195=LINE('',#1285,#315);
#196=LINE('',#1287,#316);
#197=LINE('',#1289,#317);
#198=LINE('',#1290,#318);
#199=LINE('',#1293,#319);
#200=LINE('',#1295,#320);
#201=LINE('',#1296,#321);
#202=LINE('',#1299,#322);
#203=LINE('',#1301,#323);
#204=LINE('',#1302,#324);
#205=LINE('',#1304,#325);
#206=LINE('',#1305,#326);
#207=LINE('',#1309,#327);
#208=LINE('',#1311,#328);
#209=LINE('',#1313,#329);
#210=LINE('',#1314,#330);
#211=LINE('',#1317,#331);
#212=LINE('',#1319,#332);
#213=LINE('',#1320,#333);
#214=LINE('',#1323,#334);
#215=LINE('',#1325,#335);
#216=LINE('',#1326,#336);
#217=LINE('',#1328,#337);
#218=LINE('',#1329,#338);
#219=LINE('',#1333,#339);
#220=LINE('',#1335,#340);
#221=LINE('',#1337,#341);
#222=LINE('',#1338,#342);
#223=LINE('',#1341,#343);
#224=LINE('',#1343,#344);
#225=LINE('',#1344,#345);
#226=LINE('',#1347,#346);
#227=LINE('',#1349,#347);
#228=LINE('',#1350,#348);
#229=LINE('',#1352,#349);
#230=LINE('',#1353,#350);
#231=LINE('',#1357,#351);
#232=LINE('',#1359,#352);
#233=LINE('',#1361,#353);
#234=LINE('',#1362,#354);
#235=LINE('',#1365,#355);
#236=LINE('',#1367,#356);
#237=LINE('',#1368,#357);
#238=LINE('',#1371,#358);
#239=LINE('',#1373,#359);
#240=LINE('',#1374,#360);
#241=LINE('',#1376,#361);
#242=LINE('',#1377,#362);
#243=LINE('',#1381,#363);
#244=LINE('',#1383,#364);
#245=LINE('',#1385,#365);
#246=LINE('',#1386,#366);
#247=LINE('',#1389,#367);
#248=LINE('',#1391,#368);
#249=LINE('',#1392,#369);
#250=LINE('',#1395,#370);
#251=LINE('',#1397,#371);
#252=LINE('',#1398,#372);
#253=LINE('',#1400,#373);
#254=LINE('',#1401,#374);
#255=VECTOR('',#959,10.);
#256=VECTOR('',#960,10.);
#257=VECTOR('',#961,10.);
#258=VECTOR('',#962,10.);
#259=VECTOR('',#965,10.);
#260=VECTOR('',#966,10.);
#261=VECTOR('',#967,10.);
#262=VECTOR('',#970,10.);
#263=VECTOR('',#971,10.);
#264=VECTOR('',#972,10.);
#265=VECTOR('',#975,10.);
#266=VECTOR('',#976,10.);
#267=VECTOR('',#979,10.);
#268=VECTOR('',#980,10.);
#269=VECTOR('',#981,10.);
#270=VECTOR('',#982,10.);
#271=VECTOR('',#985,10.);
#272=VECTOR('',#986,10.);
#273=VECTOR('',#987,10.);
#274=VECTOR('',#990,10.);
#275=VECTOR('',#991,10.);
#276=VECTOR('',#992,10.);
#277=VECTOR('',#995,10.);
#278=VECTOR('',#996,10.);
#279=VECTOR('',#999,10.);
#280=VECTOR('',#1000,10.);
#281=VECTOR('',#1001,10.);
#282=VECTOR('',#1002,10.);
#283=VECTOR('',#1005,10.);
#284=VECTOR('',#1006,10.);
#285=VECTOR('',#1007,10.);
#286=VECTOR('',#1010,10.);
#287=VECTOR('',#1011,10.);
#288=VECTOR('',#1012,10.);
#289=VECTOR('',#1015,10.);
#290=VECTOR('',#1016,10.);
#291=VECTOR('',#1019,10.);
#292=VECTOR('',#1020,10.);
#293=VECTOR('',#1021,10.);
#294=VECTOR('',#1022,10.);
#295=VECTOR('',#1025,10.);
#296=VECTOR('',#1026,10.);
#297=VECTOR('',#1027,10.);
#298=VECTOR('',#1030,10.);
#299=VECTOR('',#1031,10.);
#300=VECTOR('',#1032,10.);
#301=VECTOR('',#1035,10.);
#302=VECTOR('',#1036,10.);
#303=VECTOR('',#1039,10.);
#304=VECTOR('',#1040,10.);
#305=VECTOR('',#1041,10.);
#306=VECTOR('',#1042,10.);
#307=VECTOR('',#1045,10.);
#308=VECTOR('',#1046,10.);
#309=VECTOR('',#1047,10.);
#310=VECTOR('',#1050,10.);
#311=VECTOR('',#1051,10.);
#312=VECTOR('',#1052,10.);
#313=VECTOR('',#1055,10.);
#314=VECTOR('',#1056,10.);
#315=VECTOR('',#1059,10.);
#316=VECTOR('',#1060,10.);
#317=VECTOR('',#1061,10.);
#318=VECTOR('',#1062,10.);
#319=VECTOR('',#1065,10.);
#320=VECTOR('',#1066,10.);
#321=VECTOR('',#1067,10.);
#322=VECTOR('',#1070,10.);
#323=VECTOR('',#1071,10.);
#324=VECTOR('',#1072,10.);
#325=VECTOR('',#1075,10.);
#326=VECTOR('',#1076,10.);
#327=VECTOR('',#1079,10.);
#328=VECTOR('',#1080,10.);
#329=VECTOR('',#1081,10.);
#330=VECTOR('',#1082,10.);
#331=VECTOR('',#1085,10.);
#332=VECTOR('',#1086,10.);
#333=VECTOR('',#1087,10.);
#334=VECTOR('',#1090,10.);
#335=VECTOR('',#1091,10.);
#336=VECTOR('',#1092,10.);
#337=VECTOR('',#1095,10.);
#338=VECTOR('',#1096,10.);
#339=VECTOR('',#1099,10.);
#340=VECTOR('',#1100,10.);
#341=VECTOR('',#1101,10.);
#342=VECTOR('',#1102,10.);
#343=VECTOR('',#1105,10.);
#344=VECTOR('',#1106,10.);
#345=VECTOR('',#1107,10.);
#346=VECTOR('',#1110,10.);
#347=VECTOR('',#1111,10.);
#348=VECTOR('',#1112,10.);
#349=VECTOR('',#1115,10.);
#350=VECTOR('',#1116,10.);
#351=VECTOR('',#1119,10.);
#352=VECTOR('',#1120,10.);
#353=VECTOR('',#1121,10.);
#354=VECTOR('',#1122,10.);
#355=VECTOR('',#1125,10.);
#356=VECTOR('',#1126,10.);
#357=VECTOR('',#1127,10.);
#358=VECTOR('',#1130,10.);
#359=VECTOR('',#1131,10.);
#360=VECTOR('',#1132,10.);
#361=VECTOR('',#1135,10.);
#362=VECTOR('',#1136,10.);
#363=VECTOR('',#1139,10.);
#364=VECTOR('',#1140,10.);
#365=VECTOR('',#1141,10.);
#366=VECTOR('',#1142,10.);
#367=VECTOR('',#1145,10.);
#368=VECTOR('',#1146,10.);
#369=VECTOR('',#1147,10.);
#370=VECTOR('',#1150,10.);
#371=VECTOR('',#1151,10.);
#372=VECTOR('',#1152,10.);
#373=VECTOR('',#1155,10.);
#374=VECTOR('',#1156,10.);
#375=VERTEX_POINT('',#1163);
#376=VERTEX_POINT('',#1164);
#377=VERTEX_POINT('',#1166);
#378=VERTEX_POINT('',#1168);
#379=VERTEX_POINT('',#1172);
#380=VERTEX_POINT('',#1174);
#381=VERTEX_POINT('',#1178);
#382=VERTEX_POINT('',#1180);
#383=VERTEX_POINT('',#1187);
#384=VERTEX_POINT('',#1188);
#385=VERTEX_POINT('',#1190);
#386=VERTEX_POINT('',#1192);
#387=VERTEX_POINT('',#1196);
#388=VERTEX_POINT('',#1198);
#389=VERTEX_POINT('',#1202);
#390=VERTEX_POINT('',#1204);
#391=VERTEX_POINT('',#1211);
#392=VERTEX_POINT('',#1212);
#393=VERTEX_POINT('',#1214);
#394=VERTEX_POINT('',#1216);
#395=VERTEX_POINT('',#1220);
#396=VERTEX_POINT('',#1222);
#397=VERTEX_POINT('',#1226);
#398=VERTEX_POINT('',#1228);
#399=VERTEX_POINT('',#1235);
#400=VERTEX_POINT('',#1236);
#401=VERTEX_POINT('',#1238);
#402=VERTEX_POINT('',#1240);
#403=VERTEX_POINT('',#1244);
#404=VERTEX_POINT('',#1246);
#405=VERTEX_POINT('',#1250);
#406=VERTEX_POINT('',#1252);
#407=VERTEX_POINT('',#1259);
#408=VERTEX_POINT('',#1260);
#409=VERTEX_POINT('',#1262);
#410=VERTEX_POINT('',#1264);
#411=VERTEX_POINT('',#1268);
#412=VERTEX_POINT('',#1270);
#413=VERTEX_POINT('',#1274);
#414=VERTEX_POINT('',#1276);
#415=VERTEX_POINT('',#1283);
#416=VERTEX_POINT('',#1284);
#417=VERTEX_POINT('',#1286);
#418=VERTEX_POINT('',#1288);
#419=VERTEX_POINT('',#1292);
#420=VERTEX_POINT('',#1294);
#421=VERTEX_POINT('',#1298);
#422=VERTEX_POINT('',#1300);
#423=VERTEX_POINT('',#1307);
#424=VERTEX_POINT('',#1308);
#425=VERTEX_POINT('',#1310);
#426=VERTEX_POINT('',#1312);
#427=VERTEX_POINT('',#1316);
#428=VERTEX_POINT('',#1318);
#429=VERTEX_POINT('',#1322);
#430=VERTEX_POINT('',#1324);
#431=VERTEX_POINT('',#1331);
#432=VERTEX_POINT('',#1332);
#433=VERTEX_POINT('',#1334);
#434=VERTEX_POINT('',#1336);
#435=VERTEX_POINT('',#1340);
#436=VERTEX_POINT('',#1342);
#437=VERTEX_POINT('',#1346);
#438=VERTEX_POINT('',#1348);
#439=VERTEX_POINT('',#1355);
#440=VERTEX_POINT('',#1356);
#441=VERTEX_POINT('',#1358);
#442=VERTEX_POINT('',#1360);
#443=VERTEX_POINT('',#1364);
#444=VERTEX_POINT('',#1366);
#445=VERTEX_POINT('',#1370);
#446=VERTEX_POINT('',#1372);
#447=VERTEX_POINT('',#1379);
#448=VERTEX_POINT('',#1380);
#449=VERTEX_POINT('',#1382);
#450=VERTEX_POINT('',#1384);
#451=VERTEX_POINT('',#1388);
#452=VERTEX_POINT('',#1390);
#453=VERTEX_POINT('',#1394);
#454=VERTEX_POINT('',#1396);
#455=EDGE_CURVE('',#375,#376,#135,.T.);
#456=EDGE_CURVE('',#376,#377,#136,.T.);
#457=EDGE_CURVE('',#378,#377,#137,.T.);
#458=EDGE_CURVE('',#375,#378,#138,.T.);
#459=EDGE_CURVE('',#379,#375,#139,.T.);
#460=EDGE_CURVE('',#380,#378,#140,.T.);
#461=EDGE_CURVE('',#379,#380,#141,.T.);
#462=EDGE_CURVE('',#381,#379,#142,.T.);
#463=EDGE_CURVE('',#382,#380,#143,.T.);
#464=EDGE_CURVE('',#381,#382,#144,.T.);
#465=EDGE_CURVE('',#376,#381,#145,.T.);
#466=EDGE_CURVE('',#377,#382,#146,.T.);
#467=EDGE_CURVE('',#383,#384,#147,.T.);
#468=EDGE_CURVE('',#384,#385,#148,.T.);
#469=EDGE_CURVE('',#386,#385,#149,.T.);
#470=EDGE_CURVE('',#383,#386,#150,.T.);
#471=EDGE_CURVE('',#387,#383,#151,.T.);
#472=EDGE_CURVE('',#388,#386,#152,.T.);
#473=EDGE_CURVE('',#387,#388,#153,.T.);
#474=EDGE_CURVE('',#389,#387,#154,.T.);
#475=EDGE_CURVE('',#390,#388,#155,.T.);
#476=EDGE_CURVE('',#389,#390,#156,.T.);
#477=EDGE_CURVE('',#384,#389,#157,.T.);
#478=EDGE_CURVE('',#385,#390,#158,.T.);
#479=EDGE_CURVE('',#391,#392,#159,.T.);
#480=EDGE_CURVE('',#392,#393,#160,.T.);
#481=EDGE_CURVE('',#394,#393,#161,.T.);
#482=EDGE_CURVE('',#391,#394,#162,.T.);
#483=EDGE_CURVE('',#395,#391,#163,.T.);
#484=EDGE_CURVE('',#396,#394,#164,.T.);
#485=EDGE_CURVE('',#395,#396,#165,.T.);
#486=EDGE_CURVE('',#397,#395,#166,.T.);
#487=EDGE_CURVE('',#398,#396,#167,.T.);
#488=EDGE_CURVE('',#397,#398,#168,.T.);
#489=EDGE_CURVE('',#392,#397,#169,.T.);
#490=EDGE_CURVE('',#393,#398,#170,.T.);
#491=EDGE_CURVE('',#399,#400,#171,.T.);
#492=EDGE_CURVE('',#400,#401,#172,.T.);
#493=EDGE_CURVE('',#402,#401,#173,.T.);
#494=EDGE_CURVE('',#399,#402,#174,.T.);
#495=EDGE_CURVE('',#403,#399,#175,.T.);
#496=EDGE_CURVE('',#404,#402,#176,.T.);
#497=EDGE_CURVE('',#403,#404,#177,.T.);
#498=EDGE_CURVE('',#405,#403,#178,.T.);
#499=EDGE_CURVE('',#406,#404,#179,.T.);
#500=EDGE_CURVE('',#405,#406,#180,.T.);
#501=EDGE_CURVE('',#400,#405,#181,.T.);
#502=EDGE_CURVE('',#401,#406,#182,.T.);
#503=EDGE_CURVE('',#407,#408,#183,.T.);
#504=EDGE_CURVE('',#408,#409,#184,.T.);
#505=EDGE_CURVE('',#410,#409,#185,.T.);
#506=EDGE_CURVE('',#407,#410,#186,.T.);
#507=EDGE_CURVE('',#411,#407,#187,.T.);
#508=EDGE_CURVE('',#412,#410,#188,.T.);
#509=EDGE_CURVE('',#411,#412,#189,.T.);
#510=EDGE_CURVE('',#413,#411,#190,.T.);
#511=EDGE_CURVE('',#414,#412,#191,.T.);
#512=EDGE_CURVE('',#413,#414,#192,.T.);
#513=EDGE_CURVE('',#408,#413,#193,.T.);
#514=EDGE_CURVE('',#409,#414,#194,.T.);
#515=EDGE_CURVE('',#415,#416,#195,.T.);
#516=EDGE_CURVE('',#416,#417,#196,.T.);
#517=EDGE_CURVE('',#418,#417,#197,.T.);
#518=EDGE_CURVE('',#415,#418,#198,.T.);
#519=EDGE_CURVE('',#419,#415,#199,.T.);
#520=EDGE_CURVE('',#420,#418,#200,.T.);
#521=EDGE_CURVE('',#419,#420,#201,.T.);
#522=EDGE_CURVE('',#421,#419,#202,.T.);
#523=EDGE_CURVE('',#422,#420,#203,.T.);
#524=EDGE_CURVE('',#421,#422,#204,.T.);
#525=EDGE_CURVE('',#416,#421,#205,.T.);
#526=EDGE_CURVE('',#417,#422,#206,.T.);
#527=EDGE_CURVE('',#423,#424,#207,.T.);
#528=EDGE_CURVE('',#424,#425,#208,.T.);
#529=EDGE_CURVE('',#426,#425,#209,.T.);
#530=EDGE_CURVE('',#423,#426,#210,.T.);
#531=EDGE_CURVE('',#427,#423,#211,.T.);
#532=EDGE_CURVE('',#428,#426,#212,.T.);
#533=EDGE_CURVE('',#427,#428,#213,.T.);
#534=EDGE_CURVE('',#429,#427,#214,.T.);
#535=EDGE_CURVE('',#430,#428,#215,.T.);
#536=EDGE_CURVE('',#429,#430,#216,.T.);
#537=EDGE_CURVE('',#424,#429,#217,.T.);
#538=EDGE_CURVE('',#425,#430,#218,.T.);
#539=EDGE_CURVE('',#431,#432,#219,.T.);
#540=EDGE_CURVE('',#432,#433,#220,.T.);
#541=EDGE_CURVE('',#434,#433,#221,.T.);
#542=EDGE_CURVE('',#431,#434,#222,.T.);
#543=EDGE_CURVE('',#435,#431,#223,.T.);
#544=EDGE_CURVE('',#436,#434,#224,.T.);
#545=EDGE_CURVE('',#435,#436,#225,.T.);
#546=EDGE_CURVE('',#437,#435,#226,.T.);
#547=EDGE_CURVE('',#438,#436,#227,.T.);
#548=EDGE_CURVE('',#437,#438,#228,.T.);
#549=EDGE_CURVE('',#432,#437,#229,.T.);
#550=EDGE_CURVE('',#433,#438,#230,.T.);
#551=EDGE_CURVE('',#439,#440,#231,.T.);
#552=EDGE_CURVE('',#440,#441,#232,.T.);
#553=EDGE_CURVE('',#442,#441,#233,.T.);
#554=EDGE_CURVE('',#439,#442,#234,.T.);
#555=EDGE_CURVE('',#443,#439,#235,.T.);
#556=EDGE_CURVE('',#444,#442,#236,.T.);
#557=EDGE_CURVE('',#443,#444,#237,.T.);
#558=EDGE_CURVE('',#445,#443,#238,.T.);
#559=EDGE_CURVE('',#446,#444,#239,.T.);
#560=EDGE_CURVE('',#445,#446,#240,.T.);
#561=EDGE_CURVE('',#440,#445,#241,.T.);
#562=EDGE_CURVE('',#441,#446,#242,.T.);
#563=EDGE_CURVE('',#447,#448,#243,.T.);
#564=EDGE_CURVE('',#448,#449,#244,.T.);
#565=EDGE_CURVE('',#450,#449,#245,.T.);
#566=EDGE_CURVE('',#447,#450,#246,.T.);
#567=EDGE_CURVE('',#451,#447,#247,.T.);
#568=EDGE_CURVE('',#452,#450,#248,.T.);
#569=EDGE_CURVE('',#451,#452,#249,.T.);
#570=EDGE_CURVE('',#453,#451,#250,.T.);
#571=EDGE_CURVE('',#454,#452,#251,.T.);
#572=EDGE_CURVE('',#453,#454,#252,.T.);
#573=EDGE_CURVE('',#448,#453,#253,.T.);
#574=EDGE_CURVE('',#449,#454,#254,.T.);
#575=ORIENTED_EDGE('',*,*,#455,.T.);
#576=ORIENTED_EDGE('',*,*,#456,.T.);
#577=ORIENTED_EDGE('',*,*,#457,.F.);
#578=ORIENTED_EDGE('',*,*,#458,.F.);
#579=ORIENTED_EDGE('',*,*,#459,.T.);
#580=ORIENTED_EDGE('',*,*,#458,.T.);
#581=ORIENTED_EDGE('',*,*,#460,.F.);
#582=ORIENTED_EDGE('',*,*,#461,.F.);
#583=ORIENTED_EDGE('',*,*,#462,.T.);
#584=ORIENTED_EDGE('',*,*,#461,.T.);
#585=ORIENTED_EDGE('',*,*,#463,.F.);
#586=ORIENTED_EDGE('',*,*,#464,.F.);
#587=ORIENTED_EDGE('',*,*,#465,.T.);
#588=ORIENTED_EDGE('',*,*,#464,.T.);
#589=ORIENTED_EDGE('',*,*,#466,.F.);
#590=ORIENTED_EDGE('',*,*,#456,.F.);
#591=ORIENTED_EDGE('',*,*,#467,.T.);
#592=ORIENTED_EDGE('',*,*,#468,.T.);
#593=ORIENTED_EDGE('',*,*,#469,.F.);
#594=ORIENTED_EDGE('',*,*,#470,.F.);
#595=ORIENTED_EDGE('',*,*,#471,.T.);
#596=ORIENTED_EDGE('',*,*,#470,.T.);
#597=ORIENTED_EDGE('',*,*,#472,.F.);
#598=ORIENTED_EDGE('',*,*,#473,.F.);
#599=ORIENTED_EDGE('',*,*,#474,.T.);
#600=ORIENTED_EDGE('',*,*,#473,.T.);
#601=ORIENTED_EDGE('',*,*,#475,.F.);
#602=ORIENTED_EDGE('',*,*,#476,.F.);
#603=ORIENTED_EDGE('',*,*,#477,.T.);
#604=ORIENTED_EDGE('',*,*,#476,.T.);
#605=ORIENTED_EDGE('',*,*,#478,.F.);
#606=ORIENTED_EDGE('',*,*,#468,.F.);
#607=ORIENTED_EDGE('',*,*,#479,.T.);
#608=ORIENTED_EDGE('',*,*,#480,.T.);
#609=ORIENTED_EDGE('',*,*,#481,.F.);
#610=ORIENTED_EDGE('',*,*,#482,.F.);
#611=ORIENTED_EDGE('',*,*,#483,.T.);
#612=ORIENTED_EDGE('',*,*,#482,.T.);
#613=ORIENTED_EDGE('',*,*,#484,.F.);
#614=ORIENTED_EDGE('',*,*,#485,.F.);
#615=ORIENTED_EDGE('',*,*,#486,.T.);
#616=ORIENTED_EDGE('',*,*,#485,.T.);
#617=ORIENTED_EDGE('',*,*,#487,.F.);
#618=ORIENTED_EDGE('',*,*,#488,.F.);
#619=ORIENTED_EDGE('',*,*,#489,.T.);
#620=ORIENTED_EDGE('',*,*,#488,.T.);
#621=ORIENTED_EDGE('',*,*,#490,.F.);
#622=ORIENTED_EDGE('',*,*,#480,.F.);
#623=ORIENTED_EDGE('',*,*,#491,.T.);
#624=ORIENTED_EDGE('',*,*,#492,.T.);
#625=ORIENTED_EDGE('',*,*,#493,.F.);
#626=ORIENTED_EDGE('',*,*,#494,.F.);
#627=ORIENTED_EDGE('',*,*,#495,.T.);
#628=ORIENTED_EDGE('',*,*,#494,.T.);
#629=ORIENTED_EDGE('',*,*,#496,.F.);
#630=ORIENTED_EDGE('',*,*,#497,.F.);
#631=ORIENTED_EDGE('',*,*,#498,.T.);
#632=ORIENTED_EDGE('',*,*,#497,.T.);
#633=ORIENTED_EDGE('',*,*,#499,.F.);
#634=ORIENTED_EDGE('',*,*,#500,.F.);
#635=ORIENTED_EDGE('',*,*,#501,.T.);
#636=ORIENTED_EDGE('',*,*,#500,.T.);
#637=ORIENTED_EDGE('',*,*,#502,.F.);
#638=ORIENTED_EDGE('',*,*,#492,.F.);
#639=ORIENTED_EDGE('',*,*,#503,.T.);
#640=ORIENTED_EDGE('',*,*,#504,.T.);
#641=ORIENTED_EDGE('',*,*,#505,.F.);
#642=ORIENTED_EDGE('',*,*,#506,.F.);
#643=ORIENTED_EDGE('',*,*,#507,.T.);
#644=ORIENTED_EDGE('',*,*,#506,.T.);
#645=ORIENTED_EDGE('',*,*,#508,.F.);
#646=ORIENTED_EDGE('',*,*,#509,.F.);
#647=ORIENTED_EDGE('',*,*,#510,.T.);
#648=ORIENTED_EDGE('',*,*,#509,.T.);
#649=ORIENTED_EDGE('',*,*,#511,.F.);
#650=ORIENTED_EDGE('',*,*,#512,.F.);
#651=ORIENTED_EDGE('',*,*,#513,.T.);
#652=ORIENTED_EDGE('',*,*,#512,.T.);
#653=ORIENTED_EDGE('',*,*,#514,.F.);
#654=ORIENTED_EDGE('',*,*,#504,.F.);
#655=ORIENTED_EDGE('',*,*,#515,.T.);
#656=ORIENTED_EDGE('',*,*,#516,.T.);
#657=ORIENTED_EDGE('',*,*,#517,.F.);
#658=ORIENTED_EDGE('',*,*,#518,.F.);
#659=ORIENTED_EDGE('',*,*,#519,.T.);
#660=ORIENTED_EDGE('',*,*,#518,.T.);
#661=ORIENTED_EDGE('',*,*,#520,.F.);
#662=ORIENTED_EDGE('',*,*,#521,.F.);
#663=ORIENTED_EDGE('',*,*,#522,.T.);
#664=ORIENTED_EDGE('',*,*,#521,.T.);
#665=ORIENTED_EDGE('',*,*,#523,.F.);
#666=ORIENTED_EDGE('',*,*,#524,.F.);
#667=ORIENTED_EDGE('',*,*,#525,.T.);
#668=ORIENTED_EDGE('',*,*,#524,.T.);
#669=ORIENTED_EDGE('',*,*,#526,.F.);
#670=ORIENTED_EDGE('',*,*,#516,.F.);
#671=ORIENTED_EDGE('',*,*,#527,.T.);
#672=ORIENTED_EDGE('',*,*,#528,.T.);
#673=ORIENTED_EDGE('',*,*,#529,.F.);
#674=ORIENTED_EDGE('',*,*,#530,.F.);
#675=ORIENTED_EDGE('',*,*,#531,.T.);
#676=ORIENTED_EDGE('',*,*,#530,.T.);
#677=ORIENTED_EDGE('',*,*,#532,.F.);
#678=ORIENTED_EDGE('',*,*,#533,.F.);
#679=ORIENTED_EDGE('',*,*,#534,.T.);
#680=ORIENTED_EDGE('',*,*,#533,.T.);
#681=ORIENTED_EDGE('',*,*,#535,.F.);
#682=ORIENTED_EDGE('',*,*,#536,.F.);
#683=ORIENTED_EDGE('',*,*,#537,.T.);
#684=ORIENTED_EDGE('',*,*,#536,.T.);
#685=ORIENTED_EDGE('',*,*,#538,.F.);
#686=ORIENTED_EDGE('',*,*,#528,.F.);
#687=ORIENTED_EDGE('',*,*,#539,.T.);
#688=ORIENTED_EDGE('',*,*,#540,.T.);
#689=ORIENTED_EDGE('',*,*,#541,.F.);
#690=ORIENTED_EDGE('',*,*,#542,.F.);
#691=ORIENTED_EDGE('',*,*,#543,.T.);
#692=ORIENTED_EDGE('',*,*,#542,.T.);
#693=ORIENTED_EDGE('',*,*,#544,.F.);
#694=ORIENTED_EDGE('',*,*,#545,.F.);
#695=ORIENTED_EDGE('',*,*,#546,.T.);
#696=ORIENTED_EDGE('',*,*,#545,.T.);
#697=ORIENTED_EDGE('',*,*,#547,.F.);
#698=ORIENTED_EDGE('',*,*,#548,.F.);
#699=ORIENTED_EDGE('',*,*,#549,.T.);
#700=ORIENTED_EDGE('',*,*,#548,.T.);
#701=ORIENTED_EDGE('',*,*,#550,.F.);
#702=ORIENTED_EDGE('',*,*,#540,.F.);
#703=ORIENTED_EDGE('',*,*,#551,.T.);
#704=ORIENTED_EDGE('',*,*,#552,.T.);
#705=ORIENTED_EDGE('',*,*,#553,.F.);
#706=ORIENTED_EDGE('',*,*,#554,.F.);
#707=ORIENTED_EDGE('',*,*,#555,.T.);
#708=ORIENTED_EDGE('',*,*,#554,.T.);
#709=ORIENTED_EDGE('',*,*,#556,.F.);
#710=ORIENTED_EDGE('',*,*,#557,.F.);
#711=ORIENTED_EDGE('',*,*,#558,.T.);
#712=ORIENTED_EDGE('',*,*,#557,.T.);
#713=ORIENTED_EDGE('',*,*,#559,.F.);
#714=ORIENTED_EDGE('',*,*,#560,.F.);
#715=ORIENTED_EDGE('',*,*,#561,.T.);
#716=ORIENTED_EDGE('',*,*,#560,.T.);
#717=ORIENTED_EDGE('',*,*,#562,.F.);
#718=ORIENTED_EDGE('',*,*,#552,.F.);
#719=ORIENTED_EDGE('',*,*,#563,.T.);
#720=ORIENTED_EDGE('',*,*,#564,.T.);
#721=ORIENTED_EDGE('',*,*,#565,.F.);
#722=ORIENTED_EDGE('',*,*,#566,.F.);
#723=ORIENTED_EDGE('',*,*,#567,.T.);
#724=ORIENTED_EDGE('',*,*,#566,.T.);
#725=ORIENTED_EDGE('',*,*,#568,.F.);
#726=ORIENTED_EDGE('',*,*,#569,.F.);
#727=ORIENTED_EDGE('',*,*,#570,.T.);
#728=ORIENTED_EDGE('',*,*,#569,.T.);
#729=ORIENTED_EDGE('',*,*,#571,.F.);
#730=ORIENTED_EDGE('',*,*,#572,.F.);
#731=ORIENTED_EDGE('',*,*,#573,.T.);
#732=ORIENTED_EDGE('',*,*,#572,.T.);
#733=ORIENTED_EDGE('',*,*,#574,.F.);
#734=ORIENTED_EDGE('',*,*,#564,.F.);
#735=ORIENTED_EDGE('',*,*,#574,.T.);
#736=ORIENTED_EDGE('',*,*,#571,.T.);
#737=ORIENTED_EDGE('',*,*,#568,.T.);
#738=ORIENTED_EDGE('',*,*,#565,.T.);
#739=ORIENTED_EDGE('',*,*,#562,.T.);
#740=ORIENTED_EDGE('',*,*,#559,.T.);
#741=ORIENTED_EDGE('',*,*,#556,.T.);
#742=ORIENTED_EDGE('',*,*,#553,.T.);
#743=ORIENTED_EDGE('',*,*,#550,.T.);
#744=ORIENTED_EDGE('',*,*,#547,.T.);
#745=ORIENTED_EDGE('',*,*,#544,.T.);
#746=ORIENTED_EDGE('',*,*,#541,.T.);
#747=ORIENTED_EDGE('',*,*,#538,.T.);
#748=ORIENTED_EDGE('',*,*,#535,.T.);
#749=ORIENTED_EDGE('',*,*,#532,.T.);
#750=ORIENTED_EDGE('',*,*,#529,.T.);
#751=ORIENTED_EDGE('',*,*,#526,.T.);
#752=ORIENTED_EDGE('',*,*,#523,.T.);
#753=ORIENTED_EDGE('',*,*,#520,.T.);
#754=ORIENTED_EDGE('',*,*,#517,.T.);
#755=ORIENTED_EDGE('',*,*,#514,.T.);
#756=ORIENTED_EDGE('',*,*,#511,.T.);
#757=ORIENTED_EDGE('',*,*,#508,.T.);
#758=ORIENTED_EDGE('',*,*,#505,.T.);
#759=ORIENTED_EDGE('',*,*,#502,.T.);
#760=ORIENTED_EDGE('',*,*,#499,.T.);
#761=ORIENTED_EDGE('',*,*,#496,.T.);
#762=ORIENTED_EDGE('',*,*,#493,.T.);
#763=ORIENTED_EDGE('',*,*,#490,.T.);
#764=ORIENTED_EDGE('',*,*,#487,.T.);
#765=ORIENTED_EDGE('',*,*,#484,.T.);
#766=ORIENTED_EDGE('',*,*,#481,.T.);
#767=ORIENTED_EDGE('',*,*,#478,.T.);
#768=ORIENTED_EDGE('',*,*,#475,.T.);
#769=ORIENTED_EDGE('',*,*,#472,.T.);
#770=ORIENTED_EDGE('',*,*,#469,.T.);
#771=ORIENTED_EDGE('',*,*,#466,.T.);
#772=ORIENTED_EDGE('',*,*,#463,.T.);
#773=ORIENTED_EDGE('',*,*,#460,.T.);
#774=ORIENTED_EDGE('',*,*,#457,.T.);
#775=ORIENTED_EDGE('',*,*,#573,.F.);
#776=ORIENTED_EDGE('',*,*,#563,.F.);
#777=ORIENTED_EDGE('',*,*,#567,.F.);
#778=ORIENTED_EDGE('',*,*,#570,.F.);
#779=ORIENTED_EDGE('',*,*,#561,.F.);
#780=ORIENTED_EDGE('',*,*,#551,.F.);
#781=ORIENTED_EDGE('',*,*,#555,.F.);
#782=ORIENTED_EDGE('',*,*,#558,.F.);
#783=ORIENTED_EDGE('',*,*,#549,.F.);
#784=ORIENTED_EDGE('',*,*,#539,.F.);
#785=ORIENTED_EDGE('',*,*,#543,.F.);
#786=ORIENTED_EDGE('',*,*,#546,.F.);
#787=ORIENTED_EDGE('',*,*,#537,.F.);
#788=ORIENTED_EDGE('',*,*,#527,.F.);
#789=ORIENTED_EDGE('',*,*,#531,.F.);
#790=ORIENTED_EDGE('',*,*,#534,.F.);
#791=ORIENTED_EDGE('',*,*,#525,.F.);
#792=ORIENTED_EDGE('',*,*,#515,.F.);
#793=ORIENTED_EDGE('',*,*,#519,.F.);
#794=ORIENTED_EDGE('',*,*,#522,.F.);
#795=ORIENTED_EDGE('',*,*,#513,.F.);
#796=ORIENTED_EDGE('',*,*,#503,.F.);
#797=ORIENTED_EDGE('',*,*,#507,.F.);
#798=ORIENTED_EDGE('',*,*,#510,.F.);
#799=ORIENTED_EDGE('',*,*,#501,.F.);
#800=ORIENTED_EDGE('',*,*,#491,.F.);
#801=ORIENTED_EDGE('',*,*,#495,.F.);
#802=ORIENTED_EDGE('',*,*,#498,.F.);
#803=ORIENTED_EDGE('',*,*,#489,.F.);
#804=ORIENTED_EDGE('',*,*,#479,.F.);
#805=ORIENTED_EDGE('',*,*,#483,.F.);
#806=ORIENTED_EDGE('',*,*,#486,.F.);
#807=ORIENTED_EDGE('',*,*,#477,.F.);
#808=ORIENTED_EDGE('',*,*,#467,.F.);
#809=ORIENTED_EDGE('',*,*,#471,.F.);
#810=ORIENTED_EDGE('',*,*,#474,.F.);
#811=ORIENTED_EDGE('',*,*,#465,.F.);
#812=ORIENTED_EDGE('',*,*,#455,.F.);
#813=ORIENTED_EDGE('',*,*,#459,.F.);
#814=ORIENTED_EDGE('',*,*,#462,.F.);
#815=PLANE('',#913);
#816=PLANE('',#914);
#817=PLANE('',#915);
#818=PLANE('',#916);
#819=PLANE('',#917);
#820=PLANE('',#918);
#821=PLANE('',#919);
#822=PLANE('',#920);
#823=PLANE('',#921);
#824=PLANE('',#922);
#825=PLANE('',#923);
#826=PLANE('',#924);
#827=PLANE('',#925);
#828=PLANE('',#926);
#829=PLANE('',#927);
#830=PLANE('',#928);
#831=PLANE('',#929);
#832=PLANE('',#930);
#833=PLANE('',#931);
#834=PLANE('',#932);
#835=PLANE('',#933);
#836=PLANE('',#934);
#837=PLANE('',#935);
#838=PLANE('',#936);
#839=PLANE('',#937);
#840=PLANE('',#938);
#841=PLANE('',#939);
#842=PLANE('',#940);
#843=PLANE('',#941);
#844=PLANE('',#942);
#845=PLANE('',#943);
#846=PLANE('',#944);
#847=PLANE('',#945);
#848=PLANE('',#946);
#849=PLANE('',#947);
#850=PLANE('',#948);
#851=PLANE('',#949);
#852=PLANE('',#950);
#853=PLANE('',#951);
#854=PLANE('',#952);
#855=PLANE('',#953);
#856=PLANE('',#954);
#857=ADVANCED_FACE('',(#33),#815,.T.);
#858=ADVANCED_FACE('',(#34),#816,.T.);
#859=ADVANCED_FACE('',(#35),#817,.T.);
#860=ADVANCED_FACE('',(#36),#818,.T.);
#861=ADVANCED_FACE('',(#37),#819,.T.);
#862=ADVANCED_FACE('',(#38),#820,.T.);
#863=ADVANCED_FACE('',(#39),#821,.T.);
#864=ADVANCED_FACE('',(#40),#822,.T.);
#865=ADVANCED_FACE('',(#41),#823,.T.);
#866=ADVANCED_FACE('',(#42),#824,.T.);
#867=ADVANCED_FACE('',(#43),#825,.T.);
#868=ADVANCED_FACE('',(#44),#826,.T.);
#869=ADVANCED_FACE('',(#45),#827,.T.);
#870=ADVANCED_FACE('',(#46),#828,.T.);
#871=ADVANCED_FACE('',(#47),#829,.T.);
#872=ADVANCED_FACE('',(#48),#830,.T.);
#873=ADVANCED_FACE('',(#49),#831,.T.);
#874=ADVANCED_FACE('',(#50),#832,.T.);
#875=ADVANCED_FACE('',(#51),#833,.T.);
#876=ADVANCED_FACE('',(#52),#834,.T.);
#877=ADVANCED_FACE('',(#53),#835,.T.);
#878=ADVANCED_FACE('',(#54),#836,.T.);
#879=ADVANCED_FACE('',(#55),#837,.T.);
#880=ADVANCED_FACE('',(#56),#838,.T.);
#881=ADVANCED_FACE('',(#57),#839,.T.);
#882=ADVANCED_FACE('',(#58),#840,.T.);
#883=ADVANCED_FACE('',(#59),#841,.T.);
#884=ADVANCED_FACE('',(#60),#842,.T.);
#885=ADVANCED_FACE('',(#61),#843,.T.);
#886=ADVANCED_FACE('',(#62),#844,.T.);
#887=ADVANCED_FACE('',(#63),#845,.T.);
#888=ADVANCED_FACE('',(#64),#846,.T.);
#889=ADVANCED_FACE('',(#65),#847,.T.);
#890=ADVANCED_FACE('',(#66),#848,.T.);
#891=ADVANCED_FACE('',(#67),#849,.T.);
#892=ADVANCED_FACE('',(#68),#850,.T.);
#893=ADVANCED_FACE('',(#69),#851,.T.);
#894=ADVANCED_FACE('',(#70),#852,.T.);
#895=ADVANCED_FACE('',(#71),#853,.T.);
#896=ADVANCED_FACE('',(#72),#854,.T.);
#897=ADVANCED_FACE('',(#73,#15,#16,#17,#18,#19,#20,#21,#22,#23),#855,.T.);
#898=ADVANCED_FACE('',(#74,#24,#25,#26,#27,#28,#29,#30,#31,#32),#856,.F.);
#899=CLOSED_SHELL('',(#857,#858,#859,#860,#861,#862,#863,#864,#865,#866,
#867,#868,#869,#870,#871,#872,#873,#874,#875,#876,#877,#878,#879,#880,#881,
#882,#883,#884,#885,#886,#887,#888,#889,#890,#891,#892,#893,#894,#895,#896,
#897,#898));
#900=DERIVED_UNIT_ELEMENT(#902,1.);
#901=DERIVED_UNIT_ELEMENT(#1409,-3.);
#902=(
MASS_UNIT()
NAMED_UNIT(*)
SI_UNIT(.KILO.,.GRAM.)
);
#903=DERIVED_UNIT((#900,#901));
#904=MEASURE_REPRESENTATION_ITEM('density measure',
POSITIVE_RATIO_MEASURE(7850.),#903);
#905=PROPERTY_DEFINITION_REPRESENTATION(#910,#907);
#906=PROPERTY_DEFINITION_REPRESENTATION(#911,#908);
#907=REPRESENTATION('material name',(#909),#1406);
#908=REPRESENTATION('density',(#904),#1406);
#909=DESCRIPTIVE_REPRESENTATION_ITEM('Steel','Steel');
#910=PROPERTY_DEFINITION('material property','material name',#1416);
#911=PROPERTY_DEFINITION('material property','density of part',#1416);
#912=AXIS2_PLACEMENT_3D('',#1161,#955,#956);
#913=AXIS2_PLACEMENT_3D('',#1162,#957,#958);
#914=AXIS2_PLACEMENT_3D('',#1171,#963,#964);
#915=AXIS2_PLACEMENT_3D('',#1177,#968,#969);
#916=AXIS2_PLACEMENT_3D('',#1183,#973,#974);
#917=AXIS2_PLACEMENT_3D('',#1186,#977,#978);
#918=AXIS2_PLACEMENT_3D('',#1195,#983,#984);
#919=AXIS2_PLACEMENT_3D('',#1201,#988,#989);
#920=AXIS2_PLACEMENT_3D('',#1207,#993,#994);
#921=AXIS2_PLACEMENT_3D('',#1210,#997,#998);
#922=AXIS2_PLACEMENT_3D('',#1219,#1003,#1004);
#923=AXIS2_PLACEMENT_3D('',#1225,#1008,#1009);
#924=AXIS2_PLACEMENT_3D('',#1231,#1013,#1014);
#925=AXIS2_PLACEMENT_3D('',#1234,#1017,#1018);
#926=AXIS2_PLACEMENT_3D('',#1243,#1023,#1024);
#927=AXIS2_PLACEMENT_3D('',#1249,#1028,#1029);
#928=AXIS2_PLACEMENT_3D('',#1255,#1033,#1034);
#929=AXIS2_PLACEMENT_3D('',#1258,#1037,#1038);
#930=AXIS2_PLACEMENT_3D('',#1267,#1043,#1044);
#931=AXIS2_PLACEMENT_3D('',#1273,#1048,#1049);
#932=AXIS2_PLACEMENT_3D('',#1279,#1053,#1054);
#933=AXIS2_PLACEMENT_3D('',#1282,#1057,#1058);
#934=AXIS2_PLACEMENT_3D('',#1291,#1063,#1064);
#935=AXIS2_PLACEMENT_3D('',#1297,#1068,#1069);
#936=AXIS2_PLACEMENT_3D('',#1303,#1073,#1074);
#937=AXIS2_PLACEMENT_3D('',#1306,#1077,#1078);
#938=AXIS2_PLACEMENT_3D('',#1315,#1083,#1084);
#939=AXIS2_PLACEMENT_3D('',#1321,#1088,#1089);
#940=AXIS2_PLACEMENT_3D('',#1327,#1093,#1094);
#941=AXIS2_PLACEMENT_3D('',#1330,#1097,#1098);
#942=AXIS2_PLACEMENT_3D('',#1339,#1103,#1104);
#943=AXIS2_PLACEMENT_3D('',#1345,#1108,#1109);
#944=AXIS2_PLACEMENT_3D('',#1351,#1113,#1114);
#945=AXIS2_PLACEMENT_3D('',#1354,#1117,#1118);
#946=AXIS2_PLACEMENT_3D('',#1363,#1123,#1124);
#947=AXIS2_PLACEMENT_3D('',#1369,#1128,#1129);
#948=AXIS2_PLACEMENT_3D('',#1375,#1133,#1134);
#949=AXIS2_PLACEMENT_3D('',#1378,#1137,#1138);
#950=AXIS2_PLACEMENT_3D('',#1387,#1143,#1144);
#951=AXIS2_PLACEMENT_3D('',#1393,#1148,#1149);
#952=AXIS2_PLACEMENT_3D('',#1399,#1153,#1154);
#953=AXIS2_PLACEMENT_3D('',#1402,#1157,#1158);
#954=AXIS2_PLACEMENT_3D('',#1403,#1159,#1160);
#955=DIRECTION('axis',(0.,0.,1.));
#956=DIRECTION('refdir',(1.,0.,0.));
#957=DIRECTION('center_axis',(1.,0.,0.));
#958=DIRECTION('ref_axis',(0.,0.,-1.));
#959=DIRECTION('',(0.,0.,-1.));
#960=DIRECTION('',(0.,1.,0.));
#961=DIRECTION('',(0.,0.,-1.));
#962=DIRECTION('',(0.,1.,0.));
#963=DIRECTION('center_axis',(0.,0.,-1.));
#964=DIRECTION('ref_axis',(-1.,0.,0.));
#965=DIRECTION('',(-1.,0.,0.));
#966=DIRECTION('',(-1.,0.,0.));
#967=DIRECTION('',(0.,1.,0.));
#968=DIRECTION('center_axis',(-1.,0.,0.));
#969=DIRECTION('ref_axis',(0.,0.,1.));
#970=DIRECTION('',(0.,0.,1.));
#971=DIRECTION('',(0.,0.,1.));
#972=DIRECTION('',(0.,1.,0.));
#973=DIRECTION('center_axis',(1.5636944008805E-16,0.,1.));
#974=DIRECTION('ref_axis',(1.,0.,-1.5636944008805E-16));
#975=DIRECTION('',(1.,0.,-1.5636944008805E-16));
#976=DIRECTION('',(1.,0.,-1.5636944008805E-16));
#977=DIRECTION('center_axis',(1.,0.,0.));
#978=DIRECTION('ref_axis',(0.,0.,-1.));
#979=DIRECTION('',(0.,0.,-1.));
#980=DIRECTION('',(0.,1.,0.));
#981=DIRECTION('',(0.,0.,-1.));
#982=DIRECTION('',(0.,1.,0.));
#983=DIRECTION('center_axis',(0.,0.,-1.));
#984=DIRECTION('ref_axis',(-1.,0.,0.));
#985=DIRECTION('',(-1.,0.,0.));
#986=DIRECTION('',(-1.,0.,0.));
#987=DIRECTION('',(0.,1.,0.));
#988=DIRECTION('center_axis',(-1.,0.,0.));
#989=DIRECTION('ref_axis',(0.,0.,1.));
#990=DIRECTION('',(0.,0.,1.));
#991=DIRECTION('',(0.,0.,1.));
#992=DIRECTION('',(0.,1.,0.));
#993=DIRECTION('center_axis',(0.,0.,1.));
#994=DIRECTION('ref_axis',(1.,0.,0.));
#995=DIRECTION('',(1.,0.,0.));
#996=DIRECTION('',(1.,0.,0.));
#997=DIRECTION('center_axis',(1.,0.,0.));
#998=DIRECTION('ref_axis',(0.,0.,-1.));
#999=DIRECTION('',(0.,0.,-1.));
#1000=DIRECTION('',(0.,1.,0.));
#1001=DIRECTION('',(0.,0.,-1.));
#1002=DIRECTION('',(0.,1.,0.));
#1003=DIRECTION('center_axis',(0.,0.,-1.));
#1004=DIRECTION('ref_axis',(-1.,0.,0.));
#1005=DIRECTION('',(-1.,0.,0.));
#1006=DIRECTION('',(-1.,0.,0.));
#1007=DIRECTION('',(0.,1.,0.));
#1008=DIRECTION('center_axis',(-1.,0.,0.));
#1009=DIRECTION('ref_axis',(0.,0.,1.));
#1010=DIRECTION('',(0.,0.,1.));
#1011=DIRECTION('',(0.,0.,1.));
#1012=DIRECTION('',(0.,1.,0.));
#1013=DIRECTION('center_axis',(0.,0.,1.));
#1014=DIRECTION('ref_axis',(1.,0.,0.));
#1015=DIRECTION('',(1.,0.,0.));
#1016=DIRECTION('',(1.,0.,0.));
#1017=DIRECTION('center_axis',(1.,0.,0.));
#1018=DIRECTION('ref_axis',(0.,0.,-1.));
#1019=DIRECTION('',(0.,0.,-1.));
#1020=DIRECTION('',(0.,1.,0.));
#1021=DIRECTION('',(0.,0.,-1.));
#1022=DIRECTION('',(0.,1.,0.));
#1023=DIRECTION('center_axis',(0.,0.,-1.));
#1024=DIRECTION('ref_axis',(-1.,0.,0.));
#1025=DIRECTION('',(-1.,0.,0.));
#1026=DIRECTION('',(-1.,0.,0.));
#1027=DIRECTION('',(0.,1.,0.));
#1028=DIRECTION('center_axis',(-1.,0.,0.));
#1029=DIRECTION('ref_axis',(0.,0.,1.));
#1030=DIRECTION('',(0.,0.,1.));
#1031=DIRECTION('',(0.,0.,1.));
#1032=DIRECTION('',(0.,1.,0.));
#1033=DIRECTION('center_axis',(0.,0.,1.));
#1034=DIRECTION('ref_axis',(1.,0.,0.));
#1035=DIRECTION('',(1.,0.,0.));
#1036=DIRECTION('',(1.,0.,0.));
#1037=DIRECTION('center_axis',(1.,0.,0.));
#1038=DIRECTION('ref_axis',(0.,0.,-1.));
#1039=DIRECTION('',(0.,0.,-1.));
#1040=DIRECTION('',(0.,1.,0.));
#1041=DIRECTION('',(0.,0.,-1.));
#1042=DIRECTION('',(0.,1.,0.));
#1043=DIRECTION('center_axis',(0.,0.,-1.));
#1044=DIRECTION('ref_axis',(-1.,0.,0.));
#1045=DIRECTION('',(-1.,0.,0.));
#1046=DIRECTION('',(-1.,0.,0.));
#1047=DIRECTION('',(0.,1.,0.));
#1048=DIRECTION('center_axis',(-1.,0.,0.));
#1049=DIRECTION('ref_axis',(0.,0.,1.));
#1050=DIRECTION('',(0.,0.,1.));
#1051=DIRECTION('',(0.,0.,1.));
#1052=DIRECTION('',(0.,1.,0.));
#1053=DIRECTION('center_axis',(0.,0.,1.));
#1054=DIRECTION('ref_axis',(1.,0.,0.));
#1055=DIRECTION('',(1.,0.,0.));
#1056=DIRECTION('',(1.,0.,0.));
#1057=DIRECTION('center_axis',(1.,0.,-6.03699126340245E-17));
#1058=DIRECTION('ref_axis',(-6.03699126340245E-17,0.,-1.));
#1059=DIRECTION('',(-6.03699126340245E-17,0.,-1.));
#1060=DIRECTION('',(0.,1.,0.));
#1061=DIRECTION('',(-6.03699126340245E-17,0.,-1.));
#1062=DIRECTION('',(0.,1.,0.));
#1063=DIRECTION('center_axis',(0.,0.,-1.));
#1064=DIRECTION('ref_axis',(-1.,0.,0.));
#1065=DIRECTION('',(-1.,0.,0.));
#1066=DIRECTION('',(-1.,0.,0.));
#1067=DIRECTION('',(0.,1.,0.));
#1068=DIRECTION('center_axis',(-1.,0.,0.));
#1069=DIRECTION('ref_axis',(0.,0.,1.));
#1070=DIRECTION('',(0.,0.,1.));
#1071=DIRECTION('',(0.,0.,1.));
#1072=DIRECTION('',(0.,1.,0.));
#1073=DIRECTION('center_axis',(0.,0.,1.));
#1074=DIRECTION('ref_axis',(1.,0.,0.));
#1075=DIRECTION('',(1.,0.,0.));
#1076=DIRECTION('',(1.,0.,0.));
#1077=DIRECTION('center_axis',(1.,0.,0.));
#1078=DIRECTION('ref_axis',(0.,0.,-1.));
#1079=DIRECTION('',(0.,0.,-1.));
#1080=DIRECTION('',(0.,1.,0.));
#1081=DIRECTION('',(0.,0.,-1.));
#1082=DIRECTION('',(0.,1.,0.));
#1083=DIRECTION('center_axis',(0.,0.,-1.));
#1084=DIRECTION('ref_axis',(-1.,0.,0.));
#1085=DIRECTION('',(-1.,0.,0.));
#1086=DIRECTION('',(-1.,0.,0.));
#1087=DIRECTION('',(0.,1.,0.));
#1088=DIRECTION('center_axis',(-1.,0.,0.));
#1089=DIRECTION('ref_axis',(0.,0.,1.));
#1090=DIRECTION('',(0.,0.,1.));
#1091=DIRECTION('',(0.,0.,1.));
#1092=DIRECTION('',(0.,1.,0.));
#1093=DIRECTION('center_axis',(1.5636944008805E-16,0.,1.));
#1094=DIRECTION('ref_axis',(1.,0.,-1.5636944008805E-16));
#1095=DIRECTION('',(1.,0.,-1.5636944008805E-16));
#1096=DIRECTION('',(1.,0.,-1.5636944008805E-16));
#1097=DIRECTION('center_axis',(0.,0.,-1.));
#1098=DIRECTION('ref_axis',(-1.,0.,0.));
#1099=DIRECTION('',(-1.,0.,0.));
#1100=DIRECTION('',(0.,1.,0.));
#1101=DIRECTION('',(-1.,0.,0.));
#1102=DIRECTION('',(0.,1.,0.));
#1103=DIRECTION('center_axis',(-1.,0.,0.));
#1104=DIRECTION('ref_axis',(0.,0.,1.));
#1105=DIRECTION('',(0.,0.,1.));
#1106=DIRECTION('',(0.,0.,1.));
#1107=DIRECTION('',(0.,1.,0.));
#1108=DIRECTION('center_axis',(1.5636944008805E-16,0.,1.));
#1109=DIRECTION('ref_axis',(1.,0.,-1.5636944008805E-16));
#1110=DIRECTION('',(1.,0.,-1.5636944008805E-16));
#1111=DIRECTION('',(1.,0.,-1.5636944008805E-16));
#1112=DIRECTION('',(0.,1.,0.));
#1113=DIRECTION('center_axis',(1.,0.,-6.03699126340245E-17));
#1114=DIRECTION('ref_axis',(-6.03699126340245E-17,0.,-1.));
#1115=DIRECTION('',(-6.03699126340245E-17,0.,-1.));
#1116=DIRECTION('',(-6.03699126340245E-17,0.,-1.));
#1117=DIRECTION('center_axis',(1.,0.,-6.03699126340245E-17));
#1118=DIRECTION('ref_axis',(-6.03699126340245E-17,0.,-1.));
#1119=DIRECTION('',(-6.03699126340245E-17,0.,-1.));
#1120=DIRECTION('',(0.,1.,0.));
#1121=DIRECTION('',(-6.03699126340245E-17,0.,-1.));
#1122=DIRECTION('',(0.,1.,0.));
#1123=DIRECTION('center_axis',(0.,0.,-1.));
#1124=DIRECTION('ref_axis',(-1.,0.,0.));
#1125=DIRECTION('',(-1.,0.,0.));
#1126=DIRECTION('',(-1.,0.,0.));
#1127=DIRECTION('',(0.,1.,0.));
#1128=DIRECTION('center_axis',(-1.,0.,0.));
#1129=DIRECTION('ref_axis',(0.,0.,1.));
#1130=DIRECTION('',(0.,0.,1.));
#1131=DIRECTION('',(0.,0.,1.));
#1132=DIRECTION('',(0.,1.,0.));
#1133=DIRECTION('center_axis',(0.,0.,1.));
#1134=DIRECTION('ref_axis',(1.,0.,0.));
#1135=DIRECTION('',(1.,0.,0.));
#1136=DIRECTION('',(1.,0.,0.));
#1137=DIRECTION('center_axis',(0.,0.,-1.));
#1138=DIRECTION('ref_axis',(-1.,0.,0.));
#1139=DIRECTION('',(-1.,0.,0.));
#1140=DIRECTION('',(0.,1.,0.));
#1141=DIRECTION('',(-1.,0.,0.));
#1142=DIRECTION('',(0.,1.,0.));
#1143=DIRECTION('center_axis',(1.,0.,0.));
#1144=DIRECTION('ref_axis',(0.,0.,-1.));
#1145=DIRECTION('',(0.,0.,-1.));
#1146=DIRECTION('',(0.,0.,-1.));
#1147=DIRECTION('',(0.,1.,0.));
#1148=DIRECTION('center_axis',(0.,0.,1.));
#1149=DIRECTION('ref_axis',(1.,0.,0.));
#1150=DIRECTION('',(1.,0.,0.));
#1151=DIRECTION('',(1.,0.,0.));
#1152=DIRECTION('',(0.,1.,0.));
#1153=DIRECTION('center_axis',(-1.,0.,0.));
#1154=DIRECTION('ref_axis',(0.,0.,1.));
#1155=DIRECTION('',(0.,0.,1.));
#1156=DIRECTION('',(0.,0.,1.));
#1157=DIRECTION('center_axis',(0.,1.,0.));
#1158=DIRECTION('ref_axis',(0.,0.,1.));
#1159=DIRECTION('center_axis',(0.,1.,0.));
#1160=DIRECTION('ref_axis',(1.,0.,0.));
#1161=CARTESIAN_POINT('',(0.,0.,0.));
#1162=CARTESIAN_POINT('Origin',(34.,0.,0.));
#1163=CARTESIAN_POINT('',(34.,0.,0.));
#1164=CARTESIAN_POINT('',(34.,0.,-14.2));
#1165=CARTESIAN_POINT('',(34.,0.,-14.2));
#1166=CARTESIAN_POINT('',(34.,1.,-14.2));
#1167=CARTESIAN_POINT('',(34.,0.,-14.2));
#1168=CARTESIAN_POINT('',(34.,1.,0.));
#1169=CARTESIAN_POINT('',(34.,1.,-14.2));
#1170=CARTESIAN_POINT('',(34.,0.,0.));
#1171=CARTESIAN_POINT('Origin',(48.2,0.,0.));
#1172=CARTESIAN_POINT('',(48.2,0.,0.));
#1173=CARTESIAN_POINT('',(34.,0.,0.));
#1174=CARTESIAN_POINT('',(48.2,1.,0.));
#1175=CARTESIAN_POINT('',(34.,1.,0.));
#1176=CARTESIAN_POINT('',(48.2,0.,0.));
#1177=CARTESIAN_POINT('Origin',(48.2,0.,-14.2));
#1178=CARTESIAN_POINT('',(48.2,0.,-14.2));
#1179=CARTESIAN_POINT('',(48.2,0.,0.));
#1180=CARTESIAN_POINT('',(48.2,1.,-14.2));
#1181=CARTESIAN_POINT('',(48.2,1.,0.));
#1182=CARTESIAN_POINT('',(48.2,0.,-14.2));
#1183=CARTESIAN_POINT('Origin',(34.,0.,-14.2));
#1184=CARTESIAN_POINT('',(48.2,0.,-14.2));
#1185=CARTESIAN_POINT('',(48.2,1.,-14.2));
#1186=CARTESIAN_POINT('Origin',(17.,0.,-34.));
#1187=CARTESIAN_POINT('',(17.,0.,-34.));
#1188=CARTESIAN_POINT('',(17.,0.,-48.2));
#1189=CARTESIAN_POINT('',(17.,0.,-48.2));
#1190=CARTESIAN_POINT('',(17.,1.,-48.2));
#1191=CARTESIAN_POINT('',(17.,0.,-48.2));
#1192=CARTESIAN_POINT('',(17.,1.,-34.));
#1193=CARTESIAN_POINT('',(17.,1.,-48.2));
#1194=CARTESIAN_POINT('',(17.,0.,-34.));
#1195=CARTESIAN_POINT('Origin',(31.2,0.,-34.));
#1196=CARTESIAN_POINT('',(31.2,0.,-34.));
#1197=CARTESIAN_POINT('',(17.,0.,-34.));
#1198=CARTESIAN_POINT('',(31.2,1.,-34.));
#1199=CARTESIAN_POINT('',(17.,1.,-34.));
#1200=CARTESIAN_POINT('',(31.2,0.,-34.));
#1201=CARTESIAN_POINT('Origin',(31.2,0.,-48.2));
#1202=CARTESIAN_POINT('',(31.2,0.,-48.2));
#1203=CARTESIAN_POINT('',(31.2,0.,-34.));
#1204=CARTESIAN_POINT('',(31.2,1.,-48.2));
#1205=CARTESIAN_POINT('',(31.2,1.,-34.));
#1206=CARTESIAN_POINT('',(31.2,0.,-48.2));
#1207=CARTESIAN_POINT('Origin',(17.,0.,-48.2));
#1208=CARTESIAN_POINT('',(31.2,0.,-48.2));
#1209=CARTESIAN_POINT('',(31.2,1.,-48.2));
#1210=CARTESIAN_POINT('Origin',(34.,0.,-17.));
#1211=CARTESIAN_POINT('',(34.,0.,-17.));
#1212=CARTESIAN_POINT('',(34.,0.,-31.2));
#1213=CARTESIAN_POINT('',(34.,0.,-31.2));
#1214=CARTESIAN_POINT('',(34.,1.,-31.2));
#1215=CARTESIAN_POINT('',(34.,0.,-31.2));
#1216=CARTESIAN_POINT('',(34.,1.,-17.));
#1217=CARTESIAN_POINT('',(34.,1.,-31.2));
#1218=CARTESIAN_POINT('',(34.,0.,-17.));
#1219=CARTESIAN_POINT('Origin',(48.2,0.,-17.));
#1220=CARTESIAN_POINT('',(48.2,0.,-17.));
#1221=CARTESIAN_POINT('',(34.,0.,-17.));
#1222=CARTESIAN_POINT('',(48.2,1.,-17.));
#1223=CARTESIAN_POINT('',(34.,1.,-17.));
#1224=CARTESIAN_POINT('',(48.2,0.,-17.));
#1225=CARTESIAN_POINT('Origin',(48.2,0.,-31.2));
#1226=CARTESIAN_POINT('',(48.2,0.,-31.2));
#1227=CARTESIAN_POINT('',(48.2,0.,-17.));
#1228=CARTESIAN_POINT('',(48.2,1.,-31.2));
#1229=CARTESIAN_POINT('',(48.2,1.,-17.));
#1230=CARTESIAN_POINT('',(48.2,0.,-31.2));
#1231=CARTESIAN_POINT('Origin',(34.,0.,-31.2));
#1232=CARTESIAN_POINT('',(48.2,0.,-31.2));
#1233=CARTESIAN_POINT('',(48.2,1.,-31.2));
#1234=CARTESIAN_POINT('Origin',(17.,0.,-17.));
#1235=CARTESIAN_POINT('',(17.,0.,-17.));
#1236=CARTESIAN_POINT('',(17.,0.,-31.2));
#1237=CARTESIAN_POINT('',(17.,0.,-31.2));
#1238=CARTESIAN_POINT('',(17.,1.,-31.2));
#1239=CARTESIAN_POINT('',(17.,0.,-31.2));
#1240=CARTESIAN_POINT('',(17.,1.,-17.));
#1241=CARTESIAN_POINT('',(17.,1.,-31.2));
#1242=CARTESIAN_POINT('',(17.,0.,-17.));
#1243=CARTESIAN_POINT('Origin',(31.2,0.,-17.));
#1244=CARTESIAN_POINT('',(31.2,0.,-17.));
#1245=CARTESIAN_POINT('',(17.,0.,-17.));
#1246=CARTESIAN_POINT('',(31.2,1.,-17.));
#1247=CARTESIAN_POINT('',(17.,1.,-17.));
#1248=CARTESIAN_POINT('',(31.2,0.,-17.));
#1249=CARTESIAN_POINT('Origin',(31.2,0.,-31.2));
#1250=CARTESIAN_POINT('',(31.2,0.,-31.2));
#1251=CARTESIAN_POINT('',(31.2,0.,-17.));
#1252=CARTESIAN_POINT('',(31.2,1.,-31.2));
#1253=CARTESIAN_POINT('',(31.2,1.,-17.));
#1254=CARTESIAN_POINT('',(31.2,0.,-31.2));
#1255=CARTESIAN_POINT('Origin',(17.,0.,-31.2));
#1256=CARTESIAN_POINT('',(31.2,0.,-31.2));
#1257=CARTESIAN_POINT('',(31.2,1.,-31.2));
#1258=CARTESIAN_POINT('Origin',(34.,0.,-34.));
#1259=CARTESIAN_POINT('',(34.,0.,-34.));
#1260=CARTESIAN_POINT('',(34.,0.,-48.2));
#1261=CARTESIAN_POINT('',(34.,0.,-48.2));
#1262=CARTESIAN_POINT('',(34.,1.,-48.2));
#1263=CARTESIAN_POINT('',(34.,0.,-48.2));
#1264=CARTESIAN_POINT('',(34.,1.,-34.));
#1265=CARTESIAN_POINT('',(34.,1.,-48.2));
#1266=CARTESIAN_POINT('',(34.,0.,-34.));
#1267=CARTESIAN_POINT('Origin',(48.2,0.,-34.));
#1268=CARTESIAN_POINT('',(48.2,0.,-34.));
#1269=CARTESIAN_POINT('',(34.,0.,-34.));
#1270=CARTESIAN_POINT('',(48.2,1.,-34.));
#1271=CARTESIAN_POINT('',(34.,1.,-34.));
#1272=CARTESIAN_POINT('',(48.2,0.,-34.));
#1273=CARTESIAN_POINT('Origin',(48.2,0.,-48.2));
#1274=CARTESIAN_POINT('',(48.2,0.,-48.2));
#1275=CARTESIAN_POINT('',(48.2,0.,-34.));
#1276=CARTESIAN_POINT('',(48.2,1.,-48.2));
#1277=CARTESIAN_POINT('',(48.2,1.,-34.));
#1278=CARTESIAN_POINT('',(48.2,0.,-48.2));
#1279=CARTESIAN_POINT('Origin',(34.,0.,-48.2));
#1280=CARTESIAN_POINT('',(48.2,0.,-48.2));
#1281=CARTESIAN_POINT('',(48.2,1.,-48.2));
#1282=CARTESIAN_POINT('Origin',(0.,0.,-17.));
#1283=CARTESIAN_POINT('',(0.,0.,-17.));
#1284=CARTESIAN_POINT('',(0.,0.,-31.2));
#1285=CARTESIAN_POINT('',(-8.57252759403147E-16,0.,-31.2));
#1286=CARTESIAN_POINT('',(0.,1.,-31.2));
#1287=CARTESIAN_POINT('',(0.,0.,-31.2));
#1288=CARTESIAN_POINT('',(0.,1.,-17.));
#1289=CARTESIAN_POINT('',(-8.57252759403147E-16,1.,-31.2));
#1290=CARTESIAN_POINT('',(0.,0.,-17.));
#1291=CARTESIAN_POINT('Origin',(14.2,0.,-17.));
#1292=CARTESIAN_POINT('',(14.2,0.,-17.));
#1293=CARTESIAN_POINT('',(0.,0.,-17.));
#1294=CARTESIAN_POINT('',(14.2,1.,-17.));
#1295=CARTESIAN_POINT('',(0.,1.,-17.));
#1296=CARTESIAN_POINT('',(14.2,0.,-17.));
#1297=CARTESIAN_POINT('Origin',(14.2,0.,-31.2));
#1298=CARTESIAN_POINT('',(14.2,0.,-31.2));
#1299=CARTESIAN_POINT('',(14.2,0.,-17.));
#1300=CARTESIAN_POINT('',(14.2,1.,-31.2));
#1301=CARTESIAN_POINT('',(14.2,1.,-17.));
#1302=CARTESIAN_POINT('',(14.2,0.,-31.2));
#1303=CARTESIAN_POINT('Origin',(0.,0.,-31.2));
#1304=CARTESIAN_POINT('',(14.2,0.,-31.2));
#1305=CARTESIAN_POINT('',(14.2,1.,-31.2));
#1306=CARTESIAN_POINT('Origin',(17.,0.,0.));
#1307=CARTESIAN_POINT('',(17.,0.,0.));
#1308=CARTESIAN_POINT('',(17.,0.,-14.2));
#1309=CARTESIAN_POINT('',(17.,0.,-14.2));
#1310=CARTESIAN_POINT('',(17.,1.,-14.2));
#1311=CARTESIAN_POINT('',(17.,0.,-14.2));
#1312=CARTESIAN_POINT('',(17.,1.,0.));
#1313=CARTESIAN_POINT('',(17.,1.,-14.2));
#1314=CARTESIAN_POINT('',(17.,0.,0.));
#1315=CARTESIAN_POINT('Origin',(31.2,0.,0.));
#1316=CARTESIAN_POINT('',(31.2,0.,0.));
#1317=CARTESIAN_POINT('',(17.,0.,0.));
#1318=CARTESIAN_POINT('',(31.2,1.,0.));
#1319=CARTESIAN_POINT('',(17.,1.,0.));
#1320=CARTESIAN_POINT('',(31.2,0.,0.));
#1321=CARTESIAN_POINT('Origin',(31.2,0.,-14.2));
#1322=CARTESIAN_POINT('',(31.2,0.,-14.2));
#1323=CARTESIAN_POINT('',(31.2,0.,0.));
#1324=CARTESIAN_POINT('',(31.2,1.,-14.2));
#1325=CARTESIAN_POINT('',(31.2,1.,0.));
#1326=CARTESIAN_POINT('',(31.2,0.,-14.2));
#1327=CARTESIAN_POINT('Origin',(17.,0.,-14.2));
#1328=CARTESIAN_POINT('',(31.2,0.,-14.2));
#1329=CARTESIAN_POINT('',(31.2,1.,-14.2));
#1330=CARTESIAN_POINT('Origin',(14.2,0.,0.));
#1331=CARTESIAN_POINT('',(14.2,0.,0.));
#1332=CARTESIAN_POINT('',(0.,0.,0.));
#1333=CARTESIAN_POINT('',(0.,0.,0.));
#1334=CARTESIAN_POINT('',(0.,1.,0.));
#1335=CARTESIAN_POINT('',(0.,0.,0.));
#1336=CARTESIAN_POINT('',(14.2,1.,0.));
#1337=CARTESIAN_POINT('',(0.,1.,0.));
#1338=CARTESIAN_POINT('',(14.2,0.,0.));
#1339=CARTESIAN_POINT('Origin',(14.2,0.,-14.2));
#1340=CARTESIAN_POINT('',(14.2,0.,-14.2));
#1341=CARTESIAN_POINT('',(14.2,0.,0.));
#1342=CARTESIAN_POINT('',(14.2,1.,-14.2));
#1343=CARTESIAN_POINT('',(14.2,1.,0.));
#1344=CARTESIAN_POINT('',(14.2,0.,-14.2));
#1345=CARTESIAN_POINT('Origin',(0.,0.,-14.2));
#1346=CARTESIAN_POINT('',(-8.57252759403147E-16,0.,-14.2));
#1347=CARTESIAN_POINT('',(14.2,0.,-14.2));
#1348=CARTESIAN_POINT('',(-8.57252759403147E-16,1.,-14.2));
#1349=CARTESIAN_POINT('',(14.2,1.,-14.2));
#1350=CARTESIAN_POINT('',(-8.57252759403147E-16,0.,-14.2));
#1351=CARTESIAN_POINT('Origin',(0.,0.,0.));
#1352=CARTESIAN_POINT('',(-8.57252759403147E-16,0.,-14.2));
#1353=CARTESIAN_POINT('',(-8.57252759403147E-16,1.,-14.2));
#1354=CARTESIAN_POINT('Origin',(0.,0.,-34.));
#1355=CARTESIAN_POINT('',(0.,0.,-34.));
#1356=CARTESIAN_POINT('',(0.,0.,-48.2));
#1357=CARTESIAN_POINT('',(-8.57252759403147E-16,0.,-48.2));
#1358=CARTESIAN_POINT('',(0.,1.,-48.2));
#1359=CARTESIAN_POINT('',(0.,0.,-48.2));
#1360=CARTESIAN_POINT('',(0.,1.,-34.));
#1361=CARTESIAN_POINT('',(-8.57252759403147E-16,1.,-48.2));
#1362=CARTESIAN_POINT('',(0.,0.,-34.));
#1363=CARTESIAN_POINT('Origin',(14.2,0.,-34.));
#1364=CARTESIAN_POINT('',(14.2,0.,-34.));
#1365=CARTESIAN_POINT('',(0.,0.,-34.));
#1366=CARTESIAN_POINT('',(14.2,1.,-34.));
#1367=CARTESIAN_POINT('',(0.,1.,-34.));
#1368=CARTESIAN_POINT('',(14.2,0.,-34.));
#1369=CARTESIAN_POINT('Origin',(14.2,0.,-48.2));
#1370=CARTESIAN_POINT('',(14.2,0.,-48.2));
#1371=CARTESIAN_POINT('',(14.2,0.,-34.));
#1372=CARTESIAN_POINT('',(14.2,1.,-48.2));
#1373=CARTESIAN_POINT('',(14.2,1.,-34.));
#1374=CARTESIAN_POINT('',(14.2,0.,-48.2));
#1375=CARTESIAN_POINT('Origin',(0.,0.,-48.2));
#1376=CARTESIAN_POINT('',(14.2,0.,-48.2));
#1377=CARTESIAN_POINT('',(14.2,1.,-48.2));
#1378=CARTESIAN_POINT('Origin',(51.2,0.,-51.2));
#1379=CARTESIAN_POINT('',(51.2,0.,-51.2));
#1380=CARTESIAN_POINT('',(-3.,0.,-51.2));
#1381=CARTESIAN_POINT('',(51.2,0.,-51.2));
#1382=CARTESIAN_POINT('',(-3.,1.,-51.2));
#1383=CARTESIAN_POINT('',(-3.,0.,-51.2));
#1384=CARTESIAN_POINT('',(51.2,1.,-51.2));
#1385=CARTESIAN_POINT('',(51.2,1.,-51.2));
#1386=CARTESIAN_POINT('',(51.2,0.,-51.2));
#1387=CARTESIAN_POINT('Origin',(51.2,0.,3.));
#1388=CARTESIAN_POINT('',(51.2,0.,3.));
#1389=CARTESIAN_POINT('',(51.2,0.,3.));
#1390=CARTESIAN_POINT('',(51.2,1.,3.));
#1391=CARTESIAN_POINT('',(51.2,1.,3.));
#1392=CARTESIAN_POINT('',(51.2,0.,3.));
#1393=CARTESIAN_POINT('Origin',(-3.,0.,3.));
#1394=CARTESIAN_POINT('',(-3.,0.,3.));
#1395=CARTESIAN_POINT('',(-3.,0.,3.));
#1396=CARTESIAN_POINT('',(-3.,1.,3.));
#1397=CARTESIAN_POINT('',(-3.,1.,3.));
#1398=CARTESIAN_POINT('',(-3.,0.,3.));
#1399=CARTESIAN_POINT('Origin',(-3.,0.,-51.2));
#1400=CARTESIAN_POINT('',(-3.,0.,-51.2));
#1401=CARTESIAN_POINT('',(-3.,1.,-51.2));
#1402=CARTESIAN_POINT('Origin',(24.1,1.,-24.1));
#1403=CARTESIAN_POINT('Origin',(24.1,0.,-24.1));
#1404=UNCERTAINTY_MEASURE_WITH_UNIT(LENGTH_MEASURE(0.01),#1408,
'DISTANCE_ACCURACY_VALUE',
'Maximum model space distance between geometric entities at asserted c
onnectivities');
#1405=UNCERTAINTY_MEASURE_WITH_UNIT(LENGTH_MEASURE(0.01),#1408,
'DISTANCE_ACCURACY_VALUE',
'Maximum model space distance between geometric entities at asserted c
onnectivities');
#1406=(
GEOMETRIC_REPRESENTATION_CONTEXT(3)
GLOBAL_UNCERTAINTY_ASSIGNED_CONTEXT((#1404))
GLOBAL_UNIT_ASSIGNED_CONTEXT((#1408,#1410,#1411))
REPRESENTATION_CONTEXT('','3D')
);
#1407=(
GEOMETRIC_REPRESENTATION_CONTEXT(3)
GLOBAL_UNCERTAINTY_ASSIGNED_CONTEXT((#1405))
GLOBAL_UNIT_ASSIGNED_CONTEXT((#1408,#1410,#1411))
REPRESENTATION_CONTEXT('','3D')
);
#1408=(
LENGTH_UNIT()
NAMED_UNIT(*)
SI_UNIT(.MILLI.,.METRE.)
);
#1409=(
LENGTH_UNIT()
NAMED_UNIT(*)
SI_UNIT($,.METRE.)
);
#1410=(
NAMED_UNIT(*)
PLANE_ANGLE_UNIT()
SI_UNIT($,.RADIAN.)
);
#1411=(
NAMED_UNIT(*)
SI_UNIT($,.STERADIAN.)
SOLID_ANGLE_UNIT()
);
#1412=SHAPE_DEFINITION_REPRESENTATION(#1413,#1414);
#1413=PRODUCT_DEFINITION_SHAPE('',$,#1416);
#1414=SHAPE_REPRESENTATION('',(#912),#1406);
#1415=PRODUCT_DEFINITION_CONTEXT('part definition',#1420,'design');
#1416=PRODUCT_DEFINITION('2026-10-06-00-32-47-322','socket',#1417,#1415);
#1417=PRODUCT_DEFINITION_FORMATION('',$,#1422);
#1418=PRODUCT_RELATED_PRODUCT_CATEGORY('socket','socket',(#1422));
#1419=APPLICATION_PROTOCOL_DEFINITION('international standard',
'automotive_design',2009,#1420);
#1420=APPLICATION_CONTEXT(
'Core Data for Automotive Mechanical Design Process');
#1421=PRODUCT_CONTEXT('part definition',#1420,'mechanical');
#1422=PRODUCT('2026-10-06-00-32-47-322','socket',$,(#1421));
#1423=PRESENTATION_STYLE_ASSIGNMENT((#1425));
#1424=PRESENTATION_STYLE_ASSIGNMENT((#1426));
#1425=SURFACE_STYLE_USAGE(.BOTH.,#1427);
#1426=SURFACE_STYLE_USAGE(.BOTH.,#1428);
#1427=SURFACE_SIDE_STYLE('',(#1429));
#1428=SURFACE_SIDE_STYLE('',(#1430));
#1429=SURFACE_STYLE_FILL_AREA(#1431);
#1430=SURFACE_STYLE_FILL_AREA(#1432);
#1431=FILL_AREA_STYLE('Steel - Satin',(#1433));
#1432=FILL_AREA_STYLE('ABS (White)',(#1434));
#1433=FILL_AREA_STYLE_COLOUR('Steel - Satin',#1435);
#1434=FILL_AREA_STYLE_COLOUR('ABS (White)',#1436);
#1435=COLOUR_RGB('Steel - Satin',0.627450980392157,0.627450980392157,0.627450980392157);
#1436=COLOUR_RGB('ABS (White)',0.964705882352941,0.964705882352941,0.952941176470588);
ENDSEC;
END-ISO-10303-21;
